<svg width="13" height="12" viewBox="0 0 13 12" fill="none" xmlns="http://www.w3.org/2000/svg">
<path d="M2.0863 11.3491C1.82819 11.6082 1.40877 11.6086 1.15016 11.35V11.35C0.891553 11.0914 0.89196 10.672 1.15107 10.4139L11.1928 0.411133L12.0891 1.30742L2.0863 11.3491Z" fill="black"/>
<path d="M12.3326 8.10737C12.3326 8.48988 12.0225 8.79996 11.64 8.79996V8.79996C11.2575 8.79996 10.9474 8.48988 10.9474 8.10737V2.75983C10.9474 2.09266 10.4065 1.55181 9.73934 1.55181H4.39181C4.0093 1.55181 3.69922 1.24172 3.69922 0.859217V0.859217C3.69922 0.47671 4.0093 0.166626 4.39181 0.166626H10.8937C11.6883 0.166626 12.3326 0.810838 12.3326 1.60551V8.10737Z" fill="black"/>
</svg>
