<svg width="72" height="73" viewBox="0 0 72 73" fill="none" xmlns="http://www.w3.org/2000/svg">
<path d="M66.3542 67.2303C65.7009 67.2303 65.0827 66.8427 64.8256 66.2055L64.1484 64.0179C62.039 58.874 59.6131 56.2774 56.2369 55.6682L55.3791 59.7207L56.5661 64.5853C56.6282 65.1391 56.4001 65.686 55.9613 66.0349L53.3132 68.1409C53.0209 68.3734 52.6574 68.5 52.2824 68.5H51.3427C50.9679 68.5 50.6042 68.3734 50.3119 68.1409L47.6633 66.0349C47.2243 65.686 46.9962 65.1391 47.0585 64.5853L48.2457 59.7207L47.3877 55.6684C44.0118 56.2776 41.5856 58.8752 39.473 64.0262L38.7316 66.2136C38.3899 67.0469 37.4305 67.4486 36.5879 67.1104C35.7457 66.7723 35.34 65.8223 35.6817 64.9888L36.4231 62.8012C38.2319 58.3908 41.4406 52.5636 48.5047 52.2794C48.5672 52.2723 48.6304 52.2686 48.6941 52.2686H54.9305C54.9942 52.2686 55.0574 52.2723 55.1199 52.2794C62.1849 52.5636 65.3931 58.391 67.2015 62.801L67.882 64.9969C68.2194 65.8323 67.8086 66.78 66.9643 67.1135C66.7642 67.1927 66.5574 67.2303 66.3542 67.2303ZM50.4295 64.056L51.8125 65.1556L53.1951 64.0562L52.2416 61.2706H51.3832L50.4295 64.056ZM51.2468 58.0132H52.3778L52.9044 55.5263H50.7204L51.2468 58.0132ZM5.64549 67.2303C5.43936 67.2303 5.22995 67.1919 5.02733 67.1104C4.18515 66.7723 3.77948 65.8223 4.12117 64.9888L4.80064 62.9521C6.63002 58.4912 9.91152 52.5606 17.2595 52.5606H22.7086C26.6695 52.5606 29.9296 54.3037 32.3984 57.7418C32.4391 57.7984 32.6261 58.0506 32.8532 58.3566C33.6396 59.4175 33.8486 59.7018 33.9175 59.8048C34.4191 60.5552 34.2109 61.5654 33.4526 62.0618C32.6975 62.5561 31.6823 62.3537 31.1785 61.611C31.09 61.4852 30.5114 60.7046 30.1995 60.2836C29.9545 59.9534 29.7535 59.682 29.7145 59.6272C28.5759 58.0415 27.3031 56.9726 25.822 56.3804L21.3137 62.4946C21.0038 62.9146 20.5099 63.1632 19.9843 63.1632C19.4588 63.1632 18.9648 62.9146 18.655 62.4946L14.1471 56.3812C11.578 57.412 9.60439 59.899 7.8505 64.1767L7.17104 66.2134C6.91143 66.8464 6.29553 67.2303 5.64549 67.2303ZM17.8065 55.8181L19.9843 58.7718L22.1622 55.8181H17.8065ZM59.2961 63.3587C58.3872 63.3587 57.6504 62.6294 57.6504 61.7299V61.5261C57.6504 60.6267 58.3872 59.8974 59.2961 59.8974C60.2049 59.8974 60.9417 60.6267 60.9417 61.5261V61.7299C60.9417 62.6294 60.2049 63.3587 59.2961 63.3587ZM19.9843 50.1702C15.3799 50.1702 11.6339 46.4628 11.6339 41.9056C11.6339 38.152 14.1753 34.9752 17.6444 33.9715C17.6613 33.9662 17.6781 33.9609 17.6954 33.9562C18.2451 33.8013 18.8102 33.7031 19.3822 33.6626C19.3847 33.6622 19.388 33.6618 19.3907 33.662C19.3946 33.6616 19.3972 33.6614 19.4001 33.6614C19.4036 33.6612 19.4069 33.6612 19.4104 33.6606C19.4139 33.6606 19.4162 33.6604 19.4195 33.66C19.4238 33.6602 19.4267 33.6596 19.43 33.6594C19.4328 33.6586 19.4355 33.659 19.4384 33.6588C19.445 33.659 19.4509 33.6582 19.4573 33.6575C19.4845 33.6557 19.5114 33.6543 19.5388 33.6531C19.5476 33.6527 19.5569 33.652 19.5657 33.6516C19.5686 33.6518 19.5772 33.6508 19.5836 33.6506C19.5836 33.6506 19.589 33.6506 19.5921 33.6502C19.5956 33.6498 19.5988 33.65 19.6023 33.6498C19.6052 33.6496 19.6071 33.6496 19.6104 33.6494C19.6128 33.6494 19.6149 33.6492 19.618 33.6492C19.6211 33.6486 19.6244 33.6488 19.627 33.6488C19.6301 33.6484 19.6326 33.648 19.6365 33.6484C19.6388 33.648 19.6408 33.6478 19.6437 33.648C19.6501 33.6476 19.6566 33.6492 19.6628 33.6472C19.7649 33.6433 19.8671 33.6415 19.9695 33.6413C19.9722 33.6415 19.9743 33.6413 19.9767 33.6413C19.9792 33.6413 19.9841 33.6413 19.9841 33.6413C19.9924 33.6413 20.0012 33.6413 20.0092 33.6413C20.0136 33.6413 20.0185 33.6411 20.0224 33.6413C20.0263 33.6415 20.0321 33.6417 20.0356 33.6415C20.0403 33.6415 20.0454 33.6417 20.0498 33.6415H20.0549C24.1477 33.6748 27.559 36.5895 28.2196 40.533C28.2953 40.9795 28.3348 41.438 28.3348 41.9056C28.335 46.4628 24.589 50.1702 19.9843 50.1702ZM17.0242 37.8477C15.7535 38.7581 14.9253 40.238 14.9253 41.9058C14.9253 44.6669 17.1947 46.913 19.9843 46.913C22.3488 46.913 24.3397 45.2993 24.8914 43.1262C21.3163 43.1463 18.2422 40.9905 17.0242 37.8477ZM20.1921 36.903C20.9534 38.6066 22.6374 39.7848 24.604 39.8646C23.8398 38.1775 22.1587 36.9822 20.1921 36.903ZM51.8121 49.7934C47.1521 49.7934 43.3609 46.041 43.3609 41.4288C43.3609 36.8169 47.1521 33.0647 51.8121 33.0647C52.3696 33.0647 52.9149 33.1184 53.4428 33.221C53.4771 33.2267 53.5117 33.2337 53.546 33.2418C57.3774 34.0356 60.2637 37.405 60.2637 41.429C60.2637 46.041 56.4723 49.7934 51.8121 49.7934ZM48.8887 37.2228C47.5389 38.1447 46.6523 39.6865 46.6523 41.4288C46.6523 44.2449 48.9669 46.5359 51.8121 46.5359C54.6575 46.5359 56.9724 44.2449 56.9724 41.4288C56.9724 39.3335 55.6906 37.5288 53.8622 36.7424C53.1719 37.6223 52.3089 38.3599 51.3178 38.9104C50.5252 39.351 49.5221 39.0718 49.0772 38.2874C48.8861 37.9511 48.8291 37.5761 48.8887 37.2228ZM12.8301 32.7642C12.5426 32.7642 12.255 32.6897 11.9982 32.5406C11.4943 32.2483 11.1845 31.7137 11.1845 31.1355V16.46C11.1845 13.6075 13.5294 11.2869 16.4116 11.2869H22.25C23.1589 11.2869 23.8957 12.0162 23.8957 12.9157C23.8957 13.8151 23.1589 14.5444 22.25 14.5444H16.4116C15.3443 14.5444 14.4758 15.4037 14.4758 16.46V28.3558L16.7417 27.099C16.9876 26.9626 17.2646 26.8912 17.5463 26.8912H31.8263C32.7351 26.8912 33.472 27.6204 33.472 28.5199C33.472 29.4194 32.7351 30.1486 31.8263 30.1486H17.9758L13.6345 32.5563C13.3845 32.695 13.1072 32.7642 12.8301 32.7642ZM51.8212 29.3905C51.3671 29.3905 50.9228 29.2044 50.6048 28.8593L45.539 23.3617H32.2322C29.3501 23.3617 27.0055 21.0412 27.0055 18.1889V9.67305C27.0055 6.82053 29.3501 4.5 32.2322 4.5H48.2391C51.1213 4.5 53.4662 6.82053 53.4662 9.67305V27.7617C53.4662 28.4342 53.0488 29.0374 52.4152 29.2803C52.2219 29.3546 52.0205 29.3905 51.8212 29.3905ZM32.2322 7.75746C31.1649 7.75746 30.2968 8.61682 30.2968 9.67305V18.1887C30.2968 19.2449 31.1651 20.1041 32.2322 20.1041H46.2653C46.7282 20.1041 47.1696 20.2969 47.4813 20.6352L50.1751 23.5584V9.67305C50.1751 8.61682 49.3065 7.75746 48.2393 7.75746H32.2322ZM21.9207 20.7012H18.935C18.0262 20.7012 17.2893 19.9719 17.2893 19.0725C17.2893 18.173 18.0262 17.4437 18.935 17.4437H21.9207C22.8295 17.4437 23.5664 18.173 23.5664 19.0725C23.5664 19.9719 22.8295 20.7012 21.9207 20.7012ZM45.3653 14.0093H38.5726C37.6637 14.0093 36.9269 13.2801 36.9269 12.3806C36.9269 11.4811 37.6637 10.7519 38.5726 10.7519H45.3653C46.2742 10.7519 47.011 11.4811 47.011 12.3806C47.011 13.2801 46.2742 14.0093 45.3653 14.0093Z" fill="#82607D"/>
</svg>
