<svg width="20" height="21" viewBox="0 0 20 21" fill="none" xmlns="http://www.w3.org/2000/svg">
<path d="M17.5556 13.3149C16.4536 13.3149 15.3716 13.1426 14.3462 12.8037C13.8437 12.6323 13.226 12.7896 12.9194 13.1045L10.8955 14.6324C8.54831 13.3794 7.1025 11.9341 5.86669 9.60455L7.34958 7.63336C7.73484 7.24861 7.87303 6.68658 7.70747 6.15923C7.36716 5.12845 7.19428 4.04691 7.19428 2.94441C7.19433 2.14795 6.54638 1.5 5.74997 1.5H2.44436C1.64795 1.5 1 2.14795 1 2.94436C1 12.0733 8.42676 19.5 17.5556 19.5C18.352 19.5 19 18.852 19 18.0556V14.7593C19 13.9629 18.352 13.3149 17.5556 13.3149Z" stroke="#54A8B6" stroke-width="1.5" stroke-linecap="round" stroke-linejoin="round"/>
</svg>
