<svg width="19" height="17" viewBox="0 0 19 17" fill="none" xmlns="http://www.w3.org/2000/svg">
<path d="M16.7734 0.5H2.22656C0.998836 0.5 0 1.53523 0 2.80769V4.71135L8.17115 11.0106C8.56855 11.317 9.03428 11.4702 9.5 11.4702C9.96572 11.4702 10.4314 11.317 10.8288 11.0106L19 4.71135V2.80769C19 1.53523 18.0012 0.5 16.7734 0.5ZM17.5156 3.93831L9.94298 9.77615C9.67801 9.98042 9.32199 9.98042 9.05706 9.77615L1.48438 3.93831V2.80769C1.48438 2.38354 1.81732 2.03846 2.22656 2.03846H16.7734C17.1827 2.03846 17.5156 2.38354 17.5156 2.80769V3.93831ZM17.5156 7.77304L19 6.62873V14.1923C19 15.4648 18.0012 16.5 16.7734 16.5H2.22656C0.998836 16.5 0 15.4648 0 14.1923V6.62873L1.48438 7.77304V14.1923C1.48438 14.6165 1.81732 14.9615 2.22656 14.9615H16.7734C17.1827 14.9615 17.5156 14.6165 17.5156 14.1923V7.77304Z" fill="#54A8B6"/>
</svg>
