<svg width="24" height="24" viewBox="0 0 24 24" fill="none" xmlns="http://www.w3.org/2000/svg">
<path d="M11.6306 21H12.3802C16.4489 21 18.4836 21 19.7472 19.7364C21.0108 18.4728 21 16.4388 21 12.3802V11.6198C21 7.56192 21 5.5272 19.7472 4.2636C18.4944 3 16.4489 3 12.3802 3H11.6306C7.5612 3 5.5272 3 4.2636 4.2636C3 5.5272 3 7.56048 3 11.6198V12.3802C3 16.4388 3 18.4728 4.2636 19.7364C5.5272 21 7.5612 21 11.6306 21Z" stroke="#54A8B6" stroke-width="1.5" stroke-linecap="round" stroke-linejoin="round"/>
<path d="M12.6585 15.9766C8.5999 15.9766 6.13678 13.1607 6.04102 8.48145H8.09662C8.1607 11.9187 9.72454 13.3774 10.9233 13.6748V8.48145H12.894V11.4471C14.0503 11.319 15.2599 9.96969 15.6674 8.48145H17.6049C17.2946 10.3124 15.9777 11.6617 15.0461 12.2182C15.9777 12.6682 17.4768 13.8462 18.0549 15.9766H15.9245C15.4745 14.5525 14.3714 13.4494 12.894 13.2997V15.9766H12.6585Z" fill="#54A8B6"/>
</svg>
