<svg width="72" height="72" viewBox="0 0 72 72" fill="none" xmlns="http://www.w3.org/2000/svg">
<path fill-rule="evenodd" clip-rule="evenodd" d="M34.7797 4.21378C34.1466 4.61155 34.0895 4.91011 34.0895 7.82478C34.0895 10.3567 34.0971 10.4459 34.3438 10.8123C34.4836 11.0199 34.722 11.2526 34.8734 11.3294C35.2824 11.5366 35.9671 11.5015 36.3692 11.2527C37.0182 10.8512 37.0443 10.7126 37.0443 7.66216V4.8908L36.6369 4.48298C36.1127 3.95842 35.3599 3.84938 34.7797 4.21378ZM56.3309 12.9867C56.0258 13.0916 55.4088 13.6257 54.1871 14.8422C53.2437 15.7817 52.3999 16.686 52.3121 16.8517C51.9957 17.449 52.221 18.415 52.759 18.7679C53.1316 19.0122 53.7256 19.0935 54.1048 18.952C54.4788 18.8124 57.8769 15.49 58.1252 15.0213C58.7307 13.8785 57.5686 12.5607 56.3309 12.9867ZM13.3375 13.3563C12.9483 13.7461 12.9047 13.8469 12.9047 14.357C12.9047 15.0287 12.9092 15.0346 15.1319 17.2569C15.9581 18.0831 16.8067 18.8312 17.0174 18.9194C18.0626 19.3564 19.2014 18.3543 18.9831 17.1896C18.9208 16.8577 18.5852 16.4565 17.1601 15.0104C16.1995 14.0355 15.2779 13.1671 15.1124 13.0804C14.9467 12.9939 14.577 12.9231 14.2908 12.9231C13.835 12.9231 13.7167 12.9769 13.3375 13.3563ZM33.755 14.8219C26.4725 15.6652 20.3766 21.4712 19.324 28.5664C18.5616 33.7066 20.1459 38.9727 23.5088 42.4761C25.1487 44.1845 25.943 45.4714 26.3011 47.0004C26.3911 47.3847 26.3671 47.4705 26.0623 47.8558C25.8759 48.0913 25.5868 48.577 25.4198 48.9353C25.1535 49.5065 25.1171 49.7171 25.1239 50.6469C25.1325 51.8135 25.2843 52.3534 25.8331 53.1673L26.1655 53.6604L25.8331 54.1535C24.9145 55.516 24.8299 57.5417 25.6351 58.8968C26.0334 59.5672 26.8642 60.3584 27.5223 60.6943C28.1279 61.0033 28.1529 61.0344 28.3438 61.7173C28.69 62.9556 29.2717 63.9519 30.2089 64.9118C31.7155 66.4547 33.5168 67.1979 35.7063 67.1797C38.4554 67.1569 41.0161 65.5492 42.2573 63.0668C42.5403 62.5007 42.8058 61.8113 42.8472 61.5347C42.9187 61.057 42.953 61.0177 43.5255 60.7554C44.301 60.4 45.2832 59.4162 45.6389 58.6382C46.3622 57.057 46.2085 55.5104 45.166 53.8773C44.9907 53.6028 44.9969 53.574 45.3283 53.1158C45.8445 52.4026 46.0686 51.6283 46.0591 50.5911C46.0499 49.575 45.7953 48.8326 45.1463 47.9286L44.7571 47.3867L44.997 46.6451C45.3432 45.5744 46.1359 44.2409 47.0574 43.1795C49.2195 40.6889 49.88 39.7115 50.6844 37.8119C51.1535 36.7042 51.6034 35.2125 51.812 34.073C52.0175 32.9501 52.0756 30.8045 51.9375 29.4412C51.1191 21.3703 44.1918 14.9503 36.0965 14.7604C35.2687 14.741 34.215 14.7686 33.755 14.8219ZM37.544 17.8948C39.5095 18.2139 41.3323 18.9195 43.0101 20.0108C44.1565 20.7566 46.0677 22.6836 46.8379 23.8705C48.6901 26.7245 49.3643 29.8872 48.8552 33.3332C48.4601 36.0076 47.3212 38.3569 45.3583 40.5463C44.3163 41.7087 43.7942 42.3909 43.2659 43.2807C42.8623 43.9607 42.6828 44.3353 42.1286 45.6547L41.9051 46.187L39.5304 46.1569L37.1558 46.1268L37.1267 41.1641L37.0977 36.2013L40.0404 33.2398C43.2867 29.9727 43.3151 29.9313 42.9456 29.007C42.6306 28.219 41.6624 27.864 40.9133 28.2618C40.7477 28.3499 39.5089 29.5302 38.1603 30.8847C36.8116 32.2393 35.6571 33.3475 35.5947 33.3475C35.5323 33.3475 34.4531 32.3128 33.1965 31.048C31.9399 29.7833 30.7161 28.603 30.477 28.4252C29.4454 27.6583 28.0701 28.3414 28.069 29.6215C28.0687 29.9034 28.1498 30.1835 28.2788 30.3469C28.3943 30.4933 29.7495 31.8791 31.2904 33.4264L34.0919 36.2399L34.0628 41.1833L34.0338 46.1268L31.6136 46.1568L29.1935 46.1869L29.0284 45.6304C28.7891 44.8238 28.0546 43.3006 27.5393 42.542C27.294 42.181 26.5845 41.3388 25.9627 40.6706C24.3762 38.9657 23.6343 37.8003 22.9461 35.9321C21.8776 33.0313 21.881 29.3044 22.9549 26.5173C25.2436 20.5764 31.4538 16.9062 37.544 17.8948ZM4.68705 34.3445C3.69147 34.9605 3.79717 36.3957 4.87894 36.9506C5.22459 37.1279 5.55329 37.1462 7.88719 37.118C10.2454 37.0896 10.5386 37.0652 10.8197 36.8746C11.2432 36.5872 11.4552 36.1381 11.4552 35.5278C11.4552 35.1035 11.3915 34.9488 11.0736 34.6015L10.6922 34.1846L7.86802 34.1541C5.21879 34.1254 5.02188 34.1373 4.68705 34.3445ZM60.3265 34.3606C59.8194 34.6857 59.545 35.4372 59.7199 36.0216C59.8862 36.5772 60.3868 36.9977 60.9893 37.0881C61.2497 37.1272 62.5187 37.1428 63.8094 37.1228C66.4531 37.0819 66.5746 37.0485 66.9804 36.2522C67.2599 35.7038 67.2604 35.5418 66.9842 34.9708C66.5898 34.1552 66.4757 34.1286 63.3967 34.1307C60.855 34.1325 60.6595 34.1471 60.3265 34.3606ZM42.1527 49.3216C42.5754 49.5395 42.8873 49.8855 43.018 50.2818C43.1944 50.8168 42.9075 51.5584 42.4034 51.8702C42.044 52.0925 41.8832 52.0978 35.5131 52.0978C29.0675 52.0978 28.9871 52.095 28.6946 51.8648C27.8283 51.1826 27.8825 50.0097 28.8078 49.4172C29.1083 49.2248 29.5165 49.2119 35.5185 49.2042C40.0483 49.1983 41.9801 49.2326 42.1527 49.3216ZM42.3558 55.3982C42.799 55.6276 43.1673 56.4301 43.059 56.9304C42.9406 57.478 42.6084 57.8659 42.0882 58.0642C41.6699 58.2237 40.8989 58.2408 35.3668 58.2125C29.5629 58.1828 29.0959 58.1661 28.8108 57.9792C27.8915 57.3759 27.8343 56.1334 28.6946 55.4559C28.9871 55.2257 29.0677 55.2229 35.5039 55.2229C41.2061 55.2229 42.0593 55.2448 42.3558 55.3982ZM39.776 61.3101C39.776 61.5447 39.2102 62.3888 38.7325 62.8666C37.029 64.5704 34.3397 64.6364 32.5746 63.0177C32.0334 62.5213 31.4136 61.6553 31.4136 61.3953C31.4136 61.2782 32.2314 61.2498 35.5948 61.2498C37.8945 61.2498 39.776 61.2769 39.776 61.3101Z" fill="#82607D"/>
</svg>
