<svg width="72" height="72" viewBox="0 0 72 72" fill="none" xmlns="http://www.w3.org/2000/svg">
<path fill-rule="evenodd" clip-rule="evenodd" d="M38.4596 14.8333C35.1966 14.8333 32.543 12.1797 32.543 8.91667C32.543 5.65363 35.1966 3 38.4596 3C41.7227 3 44.3763 5.65363 44.3763 8.91667C44.3763 12.1797 41.7227 14.8333 38.4596 14.8333ZM38.4596 5.95833C36.8296 5.95833 35.5013 7.28663 35.5013 8.91667C35.5013 10.5467 36.8296 11.875 38.4596 11.875C40.0897 11.875 41.418 10.5467 41.418 8.91667C41.418 7.28663 40.0897 5.95833 38.4596 5.95833ZM24.4862 7.28071C24.6992 7.38721 24.924 7.4375 25.1459 7.4375C25.6873 7.4375 26.2079 7.13871 26.4712 6.621C26.8351 5.89029 26.5393 5.00279 25.8086 4.63596L22.8502 3.15679C22.1195 2.79587 21.2291 3.08875 20.8652 3.8165C20.4984 4.54721 20.7942 5.43766 21.5279 5.80154L24.4862 7.28071ZM51.7708 7.43749C51.2265 7.43749 50.7058 7.1387 50.4455 6.62099C50.0787 5.89028 50.3775 5.00278 51.1082 4.63595L54.0665 3.15678C54.7972 2.79587 55.6847 3.08874 56.0515 3.81945C56.4184 4.55016 56.1196 5.43766 55.3889 5.80449L52.4305 7.28366C52.2205 7.3872 51.9957 7.43749 51.7708 7.43749ZM54.7291 17.7917C54.5072 17.7917 54.2824 17.7414 54.0694 17.6349L51.1111 16.1557C50.3804 15.7889 50.0845 14.9014 50.4484 14.1707C50.8152 13.437 51.6998 13.1441 52.4334 13.508L55.3918 14.9872C56.1225 15.354 56.4183 16.2415 56.0544 16.9722C55.7912 17.4929 55.2705 17.7917 54.7291 17.7917ZM22.1875 17.7917C21.6431 17.7917 21.1225 17.4929 20.8621 16.9752C20.4983 16.2445 20.7941 15.354 21.5248 14.9901L24.4831 13.511C25.2168 13.1441 26.1013 13.44 26.4682 14.1736C26.835 14.9043 26.5362 15.7918 25.8055 16.1587L22.8472 17.6378C22.6371 17.7414 22.4123 17.7917 22.1875 17.7917ZM26.9298 66.9823C27.1339 67.6065 27.7138 68 28.335 68C28.4889 68 28.6457 67.9763 28.7965 67.9231C29.5716 67.6687 29.9946 66.8315 29.7402 66.0564L29.0894 64.0743C28.8853 63.4531 28.714 62.989 28.5831 62.6343C28.3411 61.9785 28.237 61.6965 28.3182 61.4859C28.3794 61.3269 28.546 61.2086 28.8384 61.0009C29.2095 60.7374 29.7832 60.33 30.601 59.513L32.5121 57.602V61.545C32.5121 62.3615 33.1747 63.0242 33.9912 63.0242C34.8107 63.0242 35.4704 62.3615 35.4704 61.545V54.2801C35.5012 54.1094 35.5011 53.9342 35.4704 53.763V38.5833C35.4704 36.9533 36.7987 35.625 38.4583 35.625C40.0736 35.625 41.3871 36.9385 41.3871 38.5537V50.2742V60.6283C41.3871 61.4448 42.0497 62.1075 42.8662 62.1075C43.6827 62.1075 44.3454 61.4448 44.3454 60.6283L44.3454 50.2742L44.3454 50.2694C44.348 48.6415 45.6753 47.3158 47.3037 47.3158C48.9338 47.3158 50.2621 48.6441 50.2621 50.2742V53.2325V60.6283C50.2621 61.4448 50.9247 62.1075 51.7412 62.1075C52.5607 62.1075 53.2204 61.4448 53.2204 60.6283L53.2204 53.2325L53.2204 53.2277C53.223 51.5999 54.5503 50.2742 56.1787 50.2742C57.8088 50.2742 59.1371 51.6025 59.1371 53.2325V59.2675V63.5867C59.1371 64.4032 59.7997 65.0658 60.6162 65.0658C61.4357 65.0658 62.0954 64.4032 62.0954 63.5867L62.0954 59.2675L62.0954 59.2626C62.098 57.5845 63.4638 56.2204 65.1425 56.2204C66.8051 56.2204 68.16 57.5872 68.16 59.2675L68.1304 64.5149C68.1274 65.3314 68.7871 65.997 69.6036 66H69.6096C70.4231 66 71.0858 65.3403 71.0887 64.5268L71.1183 59.2675C71.1183 55.9571 68.4381 53.2621 65.1425 53.2621C64.0312 53.2621 62.9893 53.5658 62.0954 54.0945V53.2325C62.0954 49.9695 59.4418 47.3158 56.1787 47.3158C54.9617 47.3158 53.8294 47.685 52.888 48.3172C52.0785 46.0133 49.8812 44.3575 47.3037 44.3575C46.2267 44.3575 45.2161 44.6466 44.3454 45.1513V38.5537C44.3454 35.3085 41.7036 32.6667 38.4287 32.6667C35.1657 32.6667 32.5121 35.3203 32.5121 38.5833V53.4189L28.5095 57.4215C28.0106 57.92 27.5768 58.3333 27.2038 58.6885L27.2037 58.6887L27.2034 58.689L27.2033 58.689C26.1956 59.649 25.6326 60.1853 25.4326 60.8337C25.1794 61.6545 25.5082 62.6549 26.2532 64.9219L26.2532 64.9219L26.279 65.0003L26.9298 66.9823ZM11.8346 38.5C8.57159 38.5 5.91797 35.8464 5.91797 32.5834C5.91797 29.3203 8.57159 26.6667 11.8346 26.6667C15.0977 26.6667 17.7513 29.3203 17.7513 32.5834C17.7513 35.8464 15.0977 38.5 11.8346 38.5ZM11.8346 29.625C10.2046 29.625 8.8763 30.9533 8.8763 32.5834C8.8763 34.2134 10.2046 35.5417 11.8346 35.5417C13.4647 35.5417 14.793 34.2134 14.793 32.5834C14.793 30.9533 13.4647 29.625 11.8346 29.625ZM20.7083 51.8125C20.7083 52.629 21.371 53.2917 22.1875 53.2917C23.004 53.2917 23.6667 52.629 23.6667 51.8125V48.8542C23.6667 44.7776 20.3474 41.4583 16.2708 41.4583H7.39583C3.31925 41.4583 0 44.7776 0 48.8542V51.8125C0 52.629 0.662667 53.2917 1.47917 53.2917C2.29567 53.2917 2.95833 52.629 2.95833 51.8125V48.8542C2.95833 46.4076 4.94929 44.4167 7.39583 44.4167H16.2708C18.7174 44.4167 20.7083 46.4076 20.7083 48.8542V51.8125ZM47.3333 28.1458C47.3333 28.9623 47.996 29.625 48.8125 29.625C49.629 29.625 50.2917 28.9623 50.2917 28.1458V25.1875C50.2917 21.1109 46.9724 17.7917 42.8958 17.7917H34.0208C29.9443 17.7917 26.625 21.1109 26.625 25.1875V28.1458C26.625 28.9623 27.2877 29.625 28.1042 29.625C28.9207 29.625 29.5833 28.9623 29.5833 28.1458V25.1875C29.5833 22.741 31.5743 20.75 34.0208 20.75H42.8958C45.3424 20.75 47.3333 22.741 47.3333 25.1875V28.1458Z" fill="#82607D"/>
</svg>
