<svg width="73" height="73" viewBox="0 0 73 73" fill="none" xmlns="http://www.w3.org/2000/svg">
<path d="M54.875 15.5H8.125C6.95139 15.5 6 16.4481 6 17.6176V49.3824C6 50.5519 6.95139 51.5 8.125 51.5H54.875C56.0486 51.5 57 50.5519 57 49.3824V17.6176C57 16.4481 56.0486 15.5 54.875 15.5Z" stroke="#82607D" stroke-width="4" stroke-linecap="round" stroke-linejoin="round"/>
<path d="M23 51.5L15 62.5" stroke="#82607D" stroke-width="4" stroke-linecap="round" stroke-linejoin="round"/>
<path d="M16 37.5H27" stroke="#82607D" stroke-width="4" stroke-linecap="round" stroke-linejoin="round"/>
<path d="M16 27.5H40" stroke="#82607D" stroke-width="4" stroke-linecap="round" stroke-linejoin="round"/>
<path d="M32 15.5V9.5" stroke="#82607D" stroke-width="4" stroke-linecap="round" stroke-linejoin="round"/>
<path d="M39 40.5L46.5 30.5L52.5 24.5L65 31.5L73 65.5H25L39 40.5Z" fill="white"/>
<path d="M65.5459 64.0892C65.752 64.0892 65.9615 64.0507 66.1641 63.9693C67.0063 63.6311 67.4119 62.6811 67.0702 61.8476L66.3908 59.8109C64.5614 55.35 61.2799 49.4194 53.9319 49.4194H48.4828C44.5219 49.4194 40.2618 52.1626 37.793 55.6006C37.7523 55.6572 37.5653 55.9095 37.3382 56.2155C36.5518 57.2764 36.3428 57.5606 36.2739 57.6636C35.7723 58.4141 35.9805 59.4243 36.7388 59.9206C37.4939 60.4149 38.5091 60.2126 39.0129 59.4699C39.1014 59.3441 39.68 58.5635 39.9919 58.1425C40.2369 57.8122 40.4379 57.5408 40.4769 57.4861C41.6156 55.9003 43.8883 53.8315 45.3694 53.2392L49.8778 59.3535C50.1876 59.7735 50.6815 60.0221 51.2071 60.0221C51.7327 60.0221 52.2266 59.7735 52.5364 59.3535L57.0443 53.24C59.6134 54.2708 61.587 56.7579 63.3409 61.0355L64.0204 63.0722C64.28 63.7052 64.8959 64.0892 65.5459 64.0892ZM53.3849 52.6769L51.2071 55.6306L49.0292 52.6769H53.3849ZM51.2071 47.0291C55.8115 47.0291 59.5575 43.3217 59.5575 38.7645C59.5575 35.0109 57.0161 31.834 53.547 30.8303C53.5301 30.825 53.5133 30.8197 53.496 30.815C52.9463 30.6601 52.3813 30.562 51.8092 30.5215C51.8067 30.5211 51.8034 30.5207 51.8007 30.5209C51.7968 30.5204 51.7942 30.5202 51.7913 30.5202C51.7878 30.52 51.7845 30.52 51.781 30.5194C51.7775 30.5194 51.7752 30.5192 51.7719 30.5188C51.7676 30.519 51.7647 30.5184 51.7614 30.5182C51.7586 30.5174 51.7559 30.5178 51.753 30.5176C51.7464 30.5178 51.7405 30.517 51.7341 30.5164C51.7069 30.5145 51.68 30.5131 51.6526 30.5119C51.6438 30.5115 51.6345 30.5109 51.6257 30.5105C51.6228 30.5107 51.6142 30.5097 51.6078 30.5095C51.6078 30.5095 51.6024 30.5095 51.5994 30.509C51.5959 30.5086 51.5926 30.5088 51.5891 30.5086C51.5862 30.5084 51.5843 30.5084 51.581 30.5082C51.5786 30.5082 51.5765 30.508 51.5734 30.508C51.5703 30.5074 51.5671 30.5076 51.5644 30.5076C51.5613 30.5072 51.5588 30.5068 51.5549 30.5072C51.5527 30.5068 51.5506 30.5066 51.5477 30.5068C51.5413 30.5064 51.5348 30.508 51.5286 30.506C51.4266 30.5021 51.3243 30.5003 51.2219 30.5001C51.2192 30.5003 51.2171 30.5001 51.2147 30.5001C51.2122 30.5001 51.2073 30.5001 51.2073 30.5001C51.199 30.5001 51.1902 30.5001 51.1822 30.5001C51.1778 30.5001 51.1729 30.4999 51.169 30.5001C51.1651 30.5003 51.1593 30.5005 51.1558 30.5003C51.1511 30.5003 51.146 30.5005 51.1416 30.5003H51.1365C47.0437 30.5337 43.6324 33.4483 42.9718 37.3919C42.8961 37.8383 42.8566 38.2968 42.8566 38.7645C42.8564 43.3217 46.6024 47.0291 51.2071 47.0291ZM54.1672 34.7065C55.4379 35.6169 56.2661 37.0969 56.2661 38.7647C56.2661 41.5258 53.9967 43.7718 51.2071 43.7718C48.8426 43.7718 46.8518 42.1581 46.3 39.985C49.8751 40.0052 52.9492 37.8493 54.1672 34.7065ZM50.9993 33.7618C50.238 35.4655 48.554 36.6437 46.5874 36.7235C47.3516 35.0363 49.0327 33.841 50.9993 33.7618Z" fill="#82607D"/>
</svg>
