<svg width="72" height="72" viewBox="0 0 72 72" fill="none" xmlns="http://www.w3.org/2000/svg">
<path fill-rule="evenodd" clip-rule="evenodd" d="M20.8027 21.775C20.6577 21.775 20.5152 21.76 20.3702 21.725C19.3627 21.4875 18.7377 20.4775 18.9727 19.47C20.8452 11.54 27.8452 6 36.0002 6C41.4602 6 46.502 8.58065 49.7498 12.708V10.375C49.7498 9.33998 50.5898 8.49997 51.6248 8.49997C52.6598 8.49997 53.4998 9.33998 53.4998 10.375V19.125C53.4998 20.16 52.6598 21 51.6248 21H51.0252C50.9908 21.0009 50.9565 21.0009 50.9223 21H42.8748C41.8398 21 40.9998 20.16 40.9998 19.125C40.9998 18.09 41.8398 17.25 42.8748 17.25H48.2277C45.9255 12.7331 41.2049 9.75 36.0002 9.75C29.5952 9.75 24.0927 14.1 22.6252 20.33C22.4202 21.1925 21.6527 21.775 20.8027 21.775ZM18.4998 36.625C18.4998 37.66 19.3398 38.5 20.3748 38.5C21.4098 38.5 22.2498 37.66 22.2498 36.625V34.2914C25.4976 38.4191 30.5396 41 35.9998 41C44.1549 41 51.1549 35.46 53.0274 27.53C53.2624 26.5225 52.6374 25.5125 51.6299 25.275C50.6424 25.045 49.6174 25.66 49.3749 26.67C47.9074 32.9 42.4049 37.25 35.9998 37.25C30.7952 37.25 26.0745 34.2669 23.7708 29.75H29.1248C30.1598 29.75 30.9998 28.91 30.9998 27.875C30.9998 26.84 30.1598 26 29.1248 26H21.1571C21.0743 25.9944 20.9905 25.9943 20.9063 26H20.3748C19.3398 26 18.4998 26.84 18.4998 27.875V36.625ZM17.2498 53.5C13.8023 53.5 10.9998 50.695 10.9998 47.25C10.9998 43.805 13.8023 41 17.2498 41C20.6973 41 23.4998 43.805 23.4998 47.25C23.4998 50.695 20.6973 53.5 17.2498 53.5ZM17.2498 44.75C15.8698 44.75 14.7498 45.8725 14.7498 47.25C14.7498 48.6275 15.8698 49.75 17.2498 49.75C18.6298 49.75 19.7498 48.6275 19.7498 47.25C19.7498 45.8725 18.6298 44.75 17.2498 44.75ZM24.75 64.125C24.75 65.16 25.59 66 26.625 66C27.66 66 28.5 65.16 28.5 64.125V62.875C28.5 59.0825 25.4175 56 21.625 56H12.875C9.0825 56 6 59.0825 6 62.875V64.125C6 65.16 6.84 66 7.875 66C8.91 66 9.75 65.16 9.75 64.125V62.875C9.75 61.1525 11.1525 59.75 12.875 59.75H21.625C23.3475 59.75 24.75 61.1525 24.75 62.875V64.125ZM54.7498 53.5C51.3023 53.5 48.4998 50.695 48.4998 47.25C48.4998 43.805 51.3023 41 54.7498 41C58.1973 41 60.9998 43.805 60.9998 47.25C60.9998 50.695 58.1973 53.5 54.7498 53.5ZM54.7498 44.75C53.3698 44.75 52.2498 45.8725 52.2498 47.25C52.2498 48.6275 53.3698 49.75 54.7498 49.75C56.1298 49.75 57.2498 48.6275 57.2498 47.25C57.2498 45.8725 56.1298 44.75 54.7498 44.75ZM62.25 64.125C62.25 65.16 63.09 66 64.125 66C65.16 66 66 65.16 66 64.125V62.875C66 59.0825 62.9175 56 59.125 56H50.375C46.5825 56 43.5 59.0825 43.5 62.875V64.125C43.5 65.16 44.34 66 45.375 66C46.41 66 47.25 65.16 47.25 64.125V62.875C47.25 61.1525 48.6525 59.75 50.375 59.75H59.125C60.8475 59.75 62.25 61.1525 62.25 62.875V64.125Z" fill="#528CBE"/>
</svg>
