<svg width="72" height="72" viewBox="0 0 72 72" fill="none" xmlns="http://www.w3.org/2000/svg">
<path fill-rule="evenodd" clip-rule="evenodd" d="M25.6088 5.25265C23.9368 5.82871 22.7665 7.00874 22.2016 8.68824C21.9595 9.40782 21.9504 9.71523 21.9504 17.1007C21.9504 25.5343 21.9327 25.3291 22.7072 25.8823C23.0139 26.1015 23.2847 26.1786 23.7473 26.1786C24.3265 26.1786 24.5972 26.0492 27.4277 24.4186L30.4831 22.6586H32.1231H33.7632L33.8119 24.6039C33.8579 26.443 33.8798 26.5892 34.2146 27.2826C34.6643 28.2136 35.4568 29.0093 36.3546 29.4307L37.057 29.7605L41.9539 29.7967L46.8508 29.8328L49.0957 31.1244C51.0532 32.2506 51.413 32.416 51.9063 32.4155C52.6747 32.4149 53.2276 32.0574 53.5344 31.3629C53.7678 30.8343 53.7767 30.5648 53.7418 25.0951L53.7052 19.3797L53.3044 18.5647C52.8279 17.5956 52.0491 16.8334 51.0826 16.3903C50.5367 16.14 50.1331 16.0602 49.1803 16.0143L47.9708 15.956V12.7125C47.9708 9.82751 47.9438 9.38126 47.7264 8.67626C47.2351 7.08321 45.8873 5.73336 44.2968 5.24129C43.5392 5.00699 43.1377 4.99662 34.9168 5.00057C26.6456 5.00464 26.3016 5.01391 25.6088 5.25265ZM43.8064 9.16722L44.2096 9.57085L44.2453 13.6069C44.2843 18.0039 44.2662 18.1462 43.6075 18.6168C43.2236 18.8911 43.212 18.8916 36.2554 18.9532L29.2879 19.015L27.4689 20.0908L25.65 21.1666V15.5457C25.65 9.34174 25.6401 9.4256 26.4267 8.94243C26.8101 8.70677 27.0591 8.70071 35.1124 8.73172L43.4033 8.76358L43.8064 9.16722ZM49.8206 19.9413C50.0559 20.177 50.0673 20.353 50.0673 23.7804C50.0673 25.7561 50.0245 27.3541 49.9721 27.3314C49.9198 27.3088 49.4341 27.0401 48.893 26.7344L47.9092 26.1786L42.9199 26.1437C38.5232 26.1129 37.9045 26.0849 37.7096 25.9084C37.52 25.7365 37.4886 25.4923 37.4886 24.1833V22.6586H40.179C43.1001 22.6586 43.987 22.5521 44.9801 22.0824C45.7545 21.7161 46.8421 20.751 47.1722 20.1372L47.4103 19.6943H48.4921C49.4096 19.6943 49.6115 19.7319 49.8206 19.9413ZM21.6908 29.5063C19.3139 30.003 17.0589 31.4197 15.6164 33.3225C14.2477 35.128 13.5889 36.9237 13.4773 39.1537C13.334 42.0185 14.2756 44.594 16.2537 46.7482L16.9806 47.5397L15.735 48.1373C15.05 48.4661 13.9346 49.1027 13.2563 49.552C11.6063 50.6451 9.20502 53.0416 8.15027 54.648C6.142 57.7066 5.0172 61.2133 5.0008 64.4671C4.99451 65.7091 5.0193 65.8614 5.28974 66.2411C5.87132 67.0577 3.45376 66.9991 36.5021 66.9991C69.5504 66.9991 67.1329 67.0577 67.7144 66.2411C67.986 65.8598 68.0093 65.7141 67.9977 64.4671C67.946 58.9051 64.3224 53.2712 59.1443 50.702L58.0823 50.1753L58.6684 49.5269C59.4235 48.6919 59.9988 47.7207 60.3678 46.6582C62.1419 41.5489 59.1848 36.1315 53.9349 34.8732C53.0398 34.6587 52.5964 34.6226 51.4854 34.674C49.0511 34.7866 47.2931 35.565 45.5661 37.2947C43.8137 39.0499 43.0483 40.8015 42.945 43.2936C42.8961 44.4765 42.9307 44.8998 43.1459 45.7526C43.4835 47.0891 44.1193 48.3633 44.9552 49.3782L45.6248 50.1914L44.4962 50.7753C43.0675 51.5142 41.6388 52.5694 40.4196 53.7859L39.466 54.7373L38.7661 53.7972C36.97 51.3843 34.1233 49.1211 31.3844 47.9282L30.4667 47.5285L31.0293 46.9815C32.2778 45.7675 33.3238 43.9258 33.7953 42.1116C33.9864 41.3763 34.0521 40.7443 34.0521 39.6414C34.0521 38.5384 33.9864 37.9064 33.7953 37.1711C32.8804 33.6512 30.3298 30.9322 26.8832 29.8031C25.8659 29.4699 25.5006 29.4138 24.1085 29.3777C23.0665 29.3507 22.2202 29.3957 21.6908 29.5063ZM25.1815 33.1683C26.2777 33.3943 27.5718 34.1074 28.4112 34.9482C29.7243 36.2633 30.3672 37.829 30.3574 39.6884C30.3419 42.668 28.489 45.1387 25.608 46.0216C24.5011 46.3607 22.4994 46.3003 21.4571 45.8963C17.7304 44.4519 16.0911 40.1664 17.8956 36.5859C18.3784 35.628 19.6761 34.3037 20.5946 33.8315C22.0231 33.0972 23.6771 32.8581 25.1815 33.1683ZM54.0628 38.8146C57.4573 40.4055 58.2487 44.7405 55.6245 47.3687C54.3944 48.6007 52.7276 49.1557 51.0972 48.8759C48.4689 48.4251 46.6143 46.2661 46.6143 43.6575C46.6143 41.3517 48.0881 39.3024 50.2642 38.5827C51.388 38.211 52.9827 38.3083 54.0628 38.8146ZM27.3546 50.4558C30.1741 51.1559 32.5312 52.5264 34.5988 54.6676C35.7713 55.8818 36.5518 56.9549 37.2337 58.2906C37.938 59.6698 38.7218 62.1783 38.7218 63.0528C38.7218 63.2904 38.5136 63.2937 23.7276 63.2937H8.73344L8.82051 62.7688C9.82828 56.6894 14.3282 51.8684 20.3407 50.4265C22.4008 49.9324 25.2958 49.9445 27.3546 50.4558ZM53.9476 52.8598C57.0823 53.4073 59.8111 55.035 61.7222 57.4972C62.9782 59.1156 63.6418 60.591 64.177 62.9547L64.2541 63.2951L53.3753 63.2635L42.4964 63.232L42.3429 62.1821C42.2585 61.6047 42.0403 60.6321 41.858 60.0207C41.3592 58.3479 41.3596 58.427 41.8418 57.7708C42.446 56.9486 44.065 55.4061 44.9495 54.8101C47.5927 53.0292 50.8614 52.3208 53.9476 52.8598Z" fill="#528CBE"/>
</svg>
