<svg width="72" height="72" viewBox="0 0 72 72" fill="none" xmlns="http://www.w3.org/2000/svg">
<path fill-rule="evenodd" clip-rule="evenodd" d="M19.2444 25.8122C19.2444 27.1069 18.1949 28.1564 16.9003 28.1564C15.6056 28.1564 14.5561 27.1069 14.5561 25.8122V15.6152C14.5561 15.2861 14.6246 14.9733 14.7471 14.6889C15.153 13.451 16.1871 12.4375 17.6443 11.9149L31.9769 6.73841C34.7205 5.7541 37.8621 5.75422 40.6006 6.73665L54.8446 11.9184C56.7395 12.5981 57.9228 14.1196 57.9228 15.8856C57.9228 17.6516 56.7395 19.173 54.8349 19.8561L49.3983 21.8066C49.8423 23.1333 50.7733 26.7661 50.7733 33.8995C50.7733 35.1061 49.8574 36.1155 48.6567 36.2325C48.6063 36.2377 43.1966 36.8207 37.7687 40.036C37.3437 40.3909 36.8083 40.5807 36.264 40.5807C36.2599 40.5807 36.2558 40.5805 36.2518 40.5803C36.2477 40.5801 36.2436 40.5799 36.2396 40.5799C36.2359 40.5799 36.2322 40.5801 36.2285 40.5803C36.2241 40.5805 36.2196 40.5807 36.2152 40.5807C35.6707 40.5807 35.1351 40.3908 34.7101 40.0358C29.2394 36.7934 23.8769 36.2379 23.8223 36.2325C22.6215 36.1155 21.7058 35.1061 21.7058 33.8995C21.7058 26.7439 22.6426 23.1106 23.0849 21.794L19.2444 20.4261V25.8122ZM26.4211 31.9137C28.6591 32.3696 32.3706 33.378 36.2395 35.5105C40.1084 33.3778 43.8198 32.3696 46.0578 31.9137C45.9139 26.7915 45.2376 24.1985 44.9827 23.3909L40.6007 24.9628H40.6006C39.2312 25.4541 37.7612 25.6997 36.291 25.6997C34.821 25.6997 33.351 25.4541 31.9816 24.9628L27.5035 23.3679C27.2549 24.147 26.5665 26.739 26.4211 31.9137ZM27.6906 13.2711H36.4484C37.7431 13.2711 38.7926 14.3205 38.7926 15.6152C38.7926 16.9099 37.7431 17.9594 36.4484 17.9594H26.2916L33.5596 20.548C35.272 21.1624 37.3105 21.1622 39.0176 20.5499L52.0275 15.8826L39.0077 11.146C37.3105 10.537 35.2718 10.5371 33.5647 11.1495L27.6906 13.2711ZM63.6661 44.917C62.3714 44.917 61.3219 45.9665 61.3219 47.2612C61.3219 49.8463 59.2188 51.9495 56.6336 51.9495H15.3767C12.7916 51.9495 10.6884 49.8463 10.6884 47.2612V23.8197C10.6884 23.1372 10.831 22.4803 11.1123 21.8674C11.6523 20.6908 11.1364 19.2991 9.95973 18.7591C8.78285 18.2188 7.39137 18.7352 6.85139 19.9117C6.28645 21.1424 6 22.4573 6 23.8197V47.2612C6 52.4314 10.2063 56.6377 15.3766 56.6377H33.6609V61.3117H25.4564C24.1617 61.3117 23.1123 62.3612 23.1123 63.6559C23.1123 64.9506 24.1617 66 25.4564 66H46.5537C47.8484 66 48.8978 64.9506 48.8978 63.6559C48.8978 62.3612 47.8484 61.3117 46.5537 61.3117H38.3492V56.6377H56.6335C61.8038 56.6377 66.0101 52.4314 66.0101 47.2612C66.0101 45.9666 64.9607 44.917 63.6661 44.917ZM65.1587 19.9117C64.6186 18.7352 63.2269 18.2192 62.0503 18.7591C60.8737 19.2992 60.3577 20.6909 60.8977 21.8674C61.179 22.4803 61.3217 23.1372 61.3217 23.8197V35.5404C61.3217 36.8351 62.3711 37.8846 63.6658 37.8846C64.9605 37.8846 66.0099 36.8351 66.0099 35.5404V23.8197C66.0099 22.4573 65.7235 21.1425 65.1587 19.9117Z" fill="#528CBE"/>
</svg>
