<svg width="72" height="72" viewBox="0 0 72 72" fill="none" xmlns="http://www.w3.org/2000/svg">
<mask id="path-1-inside-1_2093_19092" fill="white">
<path d="M28.4956 8.41029C28.4956 7.08112 29.5767 6 30.9059 6H56.2578C60.2122 6 63.429 9.21682 63.429 13.1713V33.9708H64.5897C65.9189 33.9708 67 35.0519 67 36.3811C67 37.7098 65.9189 38.7914 64.5897 38.7914H40.9039C39.5748 38.7914 38.4937 37.7098 38.4937 36.3811C38.4937 35.0519 39.5748 33.9708 40.9039 33.9708H58.6089V13.1713C58.6089 11.8752 57.5544 10.8206 56.2578 10.8206H30.9059C29.5767 10.8206 28.4956 9.73946 28.4956 8.41029ZM8.41009 42.9571C9.73925 42.9571 10.8204 41.876 10.8204 40.5469V29.7157C10.8204 28.4196 11.8749 27.365 13.1711 27.365H22.5255C23.279 27.365 23.9803 27.7219 24.4215 28.3251L29.2486 37.5027C29.5488 38.0733 30.0533 38.4926 30.669 38.6834C31.2847 38.8738 31.9376 38.8133 32.5073 38.5121C33.6754 37.8955 34.1297 36.4407 33.5153 35.259L28.6189 25.9502C28.5803 25.8771 28.5384 25.8063 28.4923 25.7375C27.2418 23.8615 25.1652 22.678 22.9188 22.5551C22.8438 22.5481 22.7684 22.5444 22.693 22.5444H13.1711C9.21708 22.5444 6.00027 25.7612 6.00027 29.7157V40.5469C6.00027 41.876 7.08139 42.9571 8.41009 42.9571ZM10.7613 13.1713C10.7613 9.21682 13.9781 6 17.9321 6C21.8865 6 25.1033 9.21682 25.1033 13.1713C25.1033 17.1253 21.8865 20.3426 17.9321 20.3426C13.9781 20.3426 10.7613 17.1258 10.7613 13.1713ZM15.5814 13.1713C15.5814 14.4674 16.6359 15.522 17.9321 15.522C19.2286 15.522 20.2828 14.4674 20.2828 13.1713C20.2828 11.8752 19.2286 10.8206 17.9321 10.8206C16.6359 10.8206 15.5814 11.8752 15.5814 13.1713ZM66.9144 62.1925C67.1615 63.3815 66.8655 64.5972 66.1037 65.5331C65.3451 66.4657 64.2211 67 63.0199 67H9.97986C8.77868 67 7.65475 66.4657 6.89616 65.5335C6.13477 64.5972 5.83878 63.3815 6.08451 62.198C6.62297 59.6053 8.04894 57.2472 10.099 55.5564C10.5732 55.1659 11.0773 54.8173 11.6027 54.5083C10.846 53.3723 10.4038 52.0096 10.4038 50.545C10.4038 46.591 13.6211 43.3737 17.5751 43.3737C21.5296 43.3737 24.7464 46.591 24.7464 50.545C24.7464 52.0096 24.3042 53.3723 23.548 54.5083C24.0734 54.8173 24.577 55.1659 25.0512 55.5564C25.8014 56.1753 26.4674 56.8841 27.0375 57.6604C27.6076 56.8841 28.2736 56.1753 29.0238 55.5564C29.498 55.1659 30.0016 54.8173 30.527 54.5083C29.7708 53.3723 29.3286 52.0096 29.3286 50.545C29.3286 46.591 32.5454 43.3737 36.4999 43.3737C40.4539 43.3737 43.6712 46.591 43.6712 50.545C43.6712 52.0096 43.229 53.3723 42.4723 54.5083C42.9982 54.8173 43.5018 55.1659 43.976 55.5564C44.7262 56.1753 45.3917 56.8841 45.9623 57.6604C46.5324 56.8841 47.1979 56.1753 47.9486 55.5564C48.4224 55.1659 48.9264 54.8173 49.4518 54.5083C48.6956 53.3723 48.2534 52.0096 48.2534 50.545C48.2534 46.591 51.4703 43.3737 55.4242 43.3737C59.3787 43.3737 62.5955 46.591 62.5955 50.545C62.5955 54.4576 59.4457 57.646 55.5494 57.713C55.5285 57.7135 55.508 57.7163 55.4866 57.7163H55.3623C52.4834 57.7163 49.9303 59.542 48.9436 62.1799H62.1999C62.3949 61.2849 63.0939 60.5408 64.0401 60.3337C64.0406 60.3332 64.041 60.3332 64.042 60.3332C64.0489 60.3313 64.0564 60.3299 64.0638 60.3285C64.0643 60.3285 64.0643 60.3281 64.0648 60.3281C64.0657 60.3281 64.0662 60.3281 64.0666 60.3276H64.068C64.6814 60.201 65.3306 60.3211 65.8579 60.6599C66.3973 61.0062 66.7827 61.5646 66.9144 62.1925ZM53.074 50.545C53.074 51.8411 54.1286 52.8957 55.4247 52.8957C56.7213 52.8957 57.7754 51.8411 57.7754 50.545C57.7754 49.2488 56.7213 48.1943 55.4247 48.1943C54.1286 48.1943 53.074 49.2488 53.074 50.545ZM15.2244 50.545C15.2244 51.8411 16.279 52.8957 17.5751 52.8957C18.8712 52.8957 19.9258 51.8411 19.9258 50.545C19.9258 49.2488 18.8712 48.1943 17.5751 48.1943C16.279 48.1943 15.2244 49.2488 15.2244 50.545ZM24.0576 62.1794C23.0696 59.5402 20.5159 57.7163 17.6375 57.7163H17.5127C14.6338 57.7163 12.0788 59.5416 11.0926 62.1794H24.0576ZM34.1492 50.545C34.1492 51.8411 35.2038 52.8957 36.4999 52.8957C37.7965 52.8957 38.8506 51.8411 38.8506 50.545C38.8506 49.2488 37.7965 48.1943 36.4999 48.1943C35.2038 48.1943 34.1492 49.2488 34.1492 50.545ZM42.9815 62.1794C41.9953 59.5425 39.4421 57.7163 36.5623 57.7163H36.4375C33.5586 57.7163 31.0059 59.542 30.0188 62.1794H42.9815Z"/>
</mask>
<path d="M28.4956 8.41029C28.4956 7.08112 29.5767 6 30.9059 6H56.2578C60.2122 6 63.429 9.21682 63.429 13.1713V33.9708H64.5897C65.9189 33.9708 67 35.0519 67 36.3811C67 37.7098 65.9189 38.7914 64.5897 38.7914H40.9039C39.5748 38.7914 38.4937 37.7098 38.4937 36.3811C38.4937 35.0519 39.5748 33.9708 40.9039 33.9708H58.6089V13.1713C58.6089 11.8752 57.5544 10.8206 56.2578 10.8206H30.9059C29.5767 10.8206 28.4956 9.73946 28.4956 8.41029ZM8.41009 42.9571C9.73925 42.9571 10.8204 41.876 10.8204 40.5469V29.7157C10.8204 28.4196 11.8749 27.365 13.1711 27.365H22.5255C23.279 27.365 23.9803 27.7219 24.4215 28.3251L29.2486 37.5027C29.5488 38.0733 30.0533 38.4926 30.669 38.6834C31.2847 38.8738 31.9376 38.8133 32.5073 38.5121C33.6754 37.8955 34.1297 36.4407 33.5153 35.259L28.6189 25.9502C28.5803 25.8771 28.5384 25.8063 28.4923 25.7375C27.2418 23.8615 25.1652 22.678 22.9188 22.5551C22.8438 22.5481 22.7684 22.5444 22.693 22.5444H13.1711C9.21708 22.5444 6.00027 25.7612 6.00027 29.7157V40.5469C6.00027 41.876 7.08139 42.9571 8.41009 42.9571ZM10.7613 13.1713C10.7613 9.21682 13.9781 6 17.9321 6C21.8865 6 25.1033 9.21682 25.1033 13.1713C25.1033 17.1253 21.8865 20.3426 17.9321 20.3426C13.9781 20.3426 10.7613 17.1258 10.7613 13.1713ZM15.5814 13.1713C15.5814 14.4674 16.6359 15.522 17.9321 15.522C19.2286 15.522 20.2828 14.4674 20.2828 13.1713C20.2828 11.8752 19.2286 10.8206 17.9321 10.8206C16.6359 10.8206 15.5814 11.8752 15.5814 13.1713ZM66.9144 62.1925C67.1615 63.3815 66.8655 64.5972 66.1037 65.5331C65.3451 66.4657 64.2211 67 63.0199 67H9.97986C8.77868 67 7.65475 66.4657 6.89616 65.5335C6.13477 64.5972 5.83878 63.3815 6.08451 62.198C6.62297 59.6053 8.04894 57.2472 10.099 55.5564C10.5732 55.1659 11.0773 54.8173 11.6027 54.5083C10.846 53.3723 10.4038 52.0096 10.4038 50.545C10.4038 46.591 13.6211 43.3737 17.5751 43.3737C21.5296 43.3737 24.7464 46.591 24.7464 50.545C24.7464 52.0096 24.3042 53.3723 23.548 54.5083C24.0734 54.8173 24.577 55.1659 25.0512 55.5564C25.8014 56.1753 26.4674 56.8841 27.0375 57.6604C27.6076 56.8841 28.2736 56.1753 29.0238 55.5564C29.498 55.1659 30.0016 54.8173 30.527 54.5083C29.7708 53.3723 29.3286 52.0096 29.3286 50.545C29.3286 46.591 32.5454 43.3737 36.4999 43.3737C40.4539 43.3737 43.6712 46.591 43.6712 50.545C43.6712 52.0096 43.229 53.3723 42.4723 54.5083C42.9982 54.8173 43.5018 55.1659 43.976 55.5564C44.7262 56.1753 45.3917 56.8841 45.9623 57.6604C46.5324 56.8841 47.1979 56.1753 47.9486 55.5564C48.4224 55.1659 48.9264 54.8173 49.4518 54.5083C48.6956 53.3723 48.2534 52.0096 48.2534 50.545C48.2534 46.591 51.4703 43.3737 55.4242 43.3737C59.3787 43.3737 62.5955 46.591 62.5955 50.545C62.5955 54.4576 59.4457 57.646 55.5494 57.713C55.5285 57.7135 55.508 57.7163 55.4866 57.7163H55.3623C52.4834 57.7163 49.9303 59.542 48.9436 62.1799H62.1999C62.3949 61.2849 63.0939 60.5408 64.0401 60.3337C64.0406 60.3332 64.041 60.3332 64.042 60.3332C64.0489 60.3313 64.0564 60.3299 64.0638 60.3285C64.0643 60.3285 64.0643 60.3281 64.0648 60.3281C64.0657 60.3281 64.0662 60.3281 64.0666 60.3276H64.068C64.6814 60.201 65.3306 60.3211 65.8579 60.6599C66.3973 61.0062 66.7827 61.5646 66.9144 62.1925ZM53.074 50.545C53.074 51.8411 54.1286 52.8957 55.4247 52.8957C56.7213 52.8957 57.7754 51.8411 57.7754 50.545C57.7754 49.2488 56.7213 48.1943 55.4247 48.1943C54.1286 48.1943 53.074 49.2488 53.074 50.545ZM15.2244 50.545C15.2244 51.8411 16.279 52.8957 17.5751 52.8957C18.8712 52.8957 19.9258 51.8411 19.9258 50.545C19.9258 49.2488 18.8712 48.1943 17.5751 48.1943C16.279 48.1943 15.2244 49.2488 15.2244 50.545ZM24.0576 62.1794C23.0696 59.5402 20.5159 57.7163 17.6375 57.7163H17.5127C14.6338 57.7163 12.0788 59.5416 11.0926 62.1794H24.0576ZM34.1492 50.545C34.1492 51.8411 35.2038 52.8957 36.4999 52.8957C37.7965 52.8957 38.8506 51.8411 38.8506 50.545C38.8506 49.2488 37.7965 48.1943 36.4999 48.1943C35.2038 48.1943 34.1492 49.2488 34.1492 50.545ZM42.9815 62.1794C41.9953 59.5425 39.4421 57.7163 36.5623 57.7163H36.4375C33.5586 57.7163 31.0059 59.542 30.0188 62.1794H42.9815Z" fill="#528CBE" stroke="white" mask="url(#path-1-inside-1_2093_19092)"/>
</svg>
