<svg width="72" height="72" viewBox="0 0 72 72" fill="none" xmlns="http://www.w3.org/2000/svg">
<path fill-rule="evenodd" clip-rule="evenodd" d="M62.543 45.3265V12.1855C62.543 9.32624 60.2167 7 57.3574 7H19.2148C16.3555 7 14.0293 9.32624 14.0293 12.1855V14.0293H12.1855C9.32624 14.0293 7 16.3555 7 19.2148C7 22.0742 9.32624 24.4004 12.1855 24.4004H14.0293V31.3145H12.1855C9.32624 31.3145 7 33.6407 7 36.5C7 39.3593 9.32624 41.6855 12.1855 41.6855H14.0293V48.5996H12.1855C9.32624 48.5996 7 50.9258 7 53.7852C7 56.6445 9.32624 58.9707 12.1855 58.9707H14.0293V60.6992C14.0293 62.0768 14.559 63.3896 15.5209 64.3958C16.5098 65.4303 17.8218 66 19.2148 66H53.9004C60.5721 66 66 60.5205 66 53.7852C66 50.496 64.6801 47.5097 62.543 45.3265ZM12.1855 20.9434C11.2324 20.9434 10.457 20.1679 10.457 19.2148C10.457 18.2617 11.2324 17.4863 12.1855 17.4863H15.7578C16.7109 17.4863 17.4863 18.2617 17.4863 19.2148C17.4863 20.1679 16.7109 20.9434 15.7578 20.9434H12.1855ZM12.1855 38.2285C11.2324 38.2285 10.457 37.4531 10.457 36.5C10.457 35.5469 11.2324 34.7715 12.1855 34.7715H15.7578C16.7109 34.7715 17.4863 35.5469 17.4863 36.5C17.4863 37.4531 16.7109 38.2285 15.7578 38.2285H12.1855ZM15.7578 55.5137H12.1855C11.2324 55.5137 10.457 54.7383 10.457 53.7852C10.457 52.8321 11.2324 52.0566 12.1855 52.0566H15.7578C16.7109 52.0566 17.4863 52.8321 17.4863 53.7852C17.4863 54.7383 16.7109 55.5137 15.7578 55.5137ZM19.2148 62.543C18.2941 62.543 17.4863 61.6814 17.4863 60.6992V58.6734C19.4982 57.9599 20.9434 56.0386 20.9434 53.7852C20.9434 51.5317 19.4982 49.6104 17.4863 48.8969V41.3882C19.4982 40.6747 20.9434 38.7534 20.9434 36.5C20.9434 34.2466 19.4982 32.3253 17.4863 31.6118V24.1031C19.4982 23.3896 20.9434 21.4683 20.9434 19.2148C20.9434 16.9614 19.4982 15.0401 17.4863 14.3266V12.1855C17.4863 11.2324 18.2617 10.457 19.2148 10.457H57.3574C58.3105 10.457 59.0859 11.2324 59.0859 12.1855V42.8546C57.5135 42.1056 55.7551 41.6855 53.9004 41.6855C47.2287 41.6855 41.8008 47.1134 41.8008 53.7852C41.8008 57.2168 43.2104 60.3219 45.4751 62.543H19.2148ZM53.9004 62.543C49.1349 62.543 45.2578 58.6143 45.2578 53.7852C45.2578 49.0196 49.1349 45.1426 53.9004 45.1426C58.6659 45.1426 62.543 49.0196 62.543 53.7852C62.543 58.6143 58.6659 62.543 53.9004 62.543ZM53.9004 20.9434H43.5293C42.5747 20.9434 41.8008 21.7173 41.8008 22.6719C41.8008 23.6265 42.5747 24.4004 43.5293 24.4004H53.9004C54.855 24.4004 55.6289 23.6265 55.6289 22.6719C55.6289 21.7173 54.855 20.9434 53.9004 20.9434ZM43.5293 34.7715H53.9004C54.855 34.7715 55.6289 35.5454 55.6289 36.5C55.6289 37.4546 54.855 38.2285 53.9004 38.2285H43.5293C42.5747 38.2285 41.8008 37.4546 41.8008 36.5C41.8008 35.5454 42.5747 34.7715 43.5293 34.7715ZM57.3574 52.0566H55.6289V50.3281C55.6289 49.3735 54.855 48.5996 53.9004 48.5996C52.9458 48.5996 52.1719 49.3735 52.1719 50.3281V53.7852C52.1719 54.7398 52.9458 55.5137 53.9004 55.5137H57.3574C58.312 55.5137 59.0859 54.7398 59.0859 53.7852C59.0859 52.8306 58.312 52.0566 57.3574 52.0566ZM35.2778 17.9927C35.9527 17.3175 37.0472 17.3175 37.7221 17.9926C38.3972 18.6676 38.3972 19.762 37.7221 20.437L30.8081 27.3511C30.4707 27.6887 30.0283 27.8574 29.5859 27.8574C29.1435 27.8574 28.7011 27.6887 28.3637 27.3512L24.4206 23.4081C23.7456 22.7331 23.7456 21.6387 24.4206 20.9636C25.0957 20.2886 26.1902 20.2886 26.8651 20.9636L29.5859 23.6844L35.2778 17.9927ZM37.7221 31.8207C37.0472 31.1456 35.9527 31.1456 35.2778 31.8208L29.5859 37.5126L26.8651 34.7918C26.1902 34.1167 25.0957 34.1167 24.4206 34.7918C23.7456 35.4668 23.7456 36.5612 24.4206 37.2362L28.3637 41.1793C28.7011 41.5168 29.1435 41.6855 29.5859 41.6855C30.0283 41.6855 30.4707 41.5168 30.8081 41.1792L37.7221 34.2651C38.3972 33.5901 38.3972 32.4957 37.7221 31.8207ZM35.2778 45.6489C35.9527 44.9738 37.0472 44.9738 37.7221 45.6488C38.3972 46.3238 38.3972 47.4182 37.7221 48.0933L30.8081 55.0073C30.4707 55.345 30.0283 55.5137 29.5859 55.5137C29.1435 55.5137 28.7011 55.345 28.3637 55.0074L24.4206 51.0644C23.7456 50.3893 23.7456 49.2949 24.4206 48.6199C25.0957 47.9448 26.1902 47.9448 26.8651 48.6199L29.5859 51.3407L35.2778 45.6489Z" fill="#528CBE"/>
</svg>
