<svg width="72" height="73" viewBox="0 0 72 73" fill="none" xmlns="http://www.w3.org/2000/svg">
<path fill-rule="evenodd" clip-rule="evenodd" d="M30.6961 16.6658C33.716 13.6458 38.5997 13.6051 41.6695 16.5743L47.8213 22.5244C48.8867 23.5549 48.882 25.2646 47.8108 26.2892C46.8076 27.2488 45.229 27.2559 44.2172 26.3054L38.4953 20.9303C37.8653 20.3385 36.8749 20.3694 36.2831 20.9994C35.6913 21.6294 35.7222 22.6198 36.3522 23.2116L42.0741 28.5867C44.2985 30.6763 47.7689 30.6607 49.9744 28.5511C52.3293 26.2986 52.3397 22.54 49.9974 20.2745L43.8456 14.3245C39.5478 10.1676 32.7107 10.2245 28.4828 14.4525L23.9944 18.9409H4.81894C3.95459 18.9409 3.25391 19.6416 3.25391 20.5059C3.25391 21.3702 3.95459 22.0709 4.81894 22.0709H24.6427C25.0577 22.0709 25.4558 21.906 25.7493 21.6125L30.6961 16.6658ZM55.74 19.347C55.3686 19.607 55.1602 20.0236 55.1602 20.5059C55.1602 21.9606 55.6605 22.0709 62.261 22.0709C67.8544 22.0709 68.2326 22.0404 68.7238 21.5493C69.0107 21.2623 69.2454 20.7928 69.2454 20.5059C69.2454 20.219 69.0107 19.7495 68.7238 19.4625C68.2326 18.9714 67.8544 18.9409 62.261 18.9409C57.3058 18.9409 56.2233 19.0082 55.74 19.347ZM25.555 29.6452C25.2681 29.7563 23.0781 31.8242 20.6883 34.2406C16.9716 37.9988 16.2981 38.8035 16.0315 39.8053C15.3247 42.4609 16.4916 45.1379 18.9075 46.4027C20.3189 47.1414 20.3369 47.1659 20.2477 48.2051C19.9511 51.6542 22.5251 54.3948 26.0939 54.4303L27.6417 54.4454L28.3024 55.7937C28.7878 56.7841 29.2928 57.3457 30.205 57.9099C31.5929 58.768 33.7401 59.093 35.036 58.6413C35.7838 58.3804 35.8315 58.4128 36.4354 59.586C37.3308 61.3261 38.8327 62.3071 40.8216 62.4511L40.8437 62.4527C41.3969 62.4927 41.8416 62.5249 42.2764 62.4734C44.0576 62.2623 45.6724 60.6469 53.9033 52.4126L53.9851 52.3308L63.374 42.938H65.788C67.8544 42.938 68.2772 42.8629 68.7238 42.4163C69.0107 42.1294 69.2454 41.6599 69.2454 41.373C69.2454 41.0861 69.0107 40.6165 68.7238 40.3296C68.2642 39.87 67.8544 39.8079 65.2789 39.8079H62.3557L52.563 49.5717C46.2768 55.8391 42.5202 59.3967 42.0718 59.507C40.651 59.8565 39.1105 58.8528 38.8379 57.4002C38.6337 56.3117 38.9725 55.6917 40.849 53.7203C41.6905 52.836 42.3791 51.9523 42.3791 51.7567C42.3791 51.0561 41.5728 50.2415 40.8793 50.2415C40.3591 50.2415 39.5495 50.8735 37.5541 52.8371C36.1036 54.2644 34.5834 55.5592 34.176 55.7141C32.5729 56.3235 30.6414 54.9358 30.6414 53.1741C30.6414 52.389 30.9272 51.9716 32.7281 50.1267C34.3919 48.4219 34.8148 47.8311 34.8148 47.2111C34.8148 46.2193 34.3961 45.8072 33.3885 45.8072C32.7197 45.8072 32.1414 46.2556 29.8682 48.5366C26.9088 51.5063 26.2606 51.843 24.8207 51.1599C23.8324 50.6909 23.3379 49.845 23.3379 48.6232C23.3379 47.9401 23.8069 47.3342 26.3057 44.7881C27.938 43.125 29.4052 41.5078 29.5662 41.1943C30.0949 40.1656 29.333 39.0254 28.1167 39.0254C27.8992 39.0254 26.5704 40.1405 25.1637 41.5034C22.7632 43.8293 22.5394 43.9814 21.5175 43.9814C19.9736 43.9814 18.9036 42.9023 18.9036 41.3453C18.9036 40.2574 18.9941 40.1429 23.2075 35.9032C25.9249 33.1686 27.5113 31.3779 27.5113 31.0448C27.5113 30.0004 26.5018 29.2782 25.555 29.6452ZM3.25391 41.373C3.25391 40.5086 3.95459 39.8079 4.81894 39.8079H10.2965C11.1609 39.8079 11.8616 40.5086 11.8616 41.373C11.8616 42.2373 11.1609 42.938 10.2965 42.938H4.81894C3.95459 42.938 3.25391 42.2373 3.25391 41.373Z" fill="#82607D"/>
<path d="M41.6695 16.5743L41.8433 16.3946L41.6695 16.5743ZM30.6961 16.6658L30.8729 16.8426L30.6961 16.6658ZM47.8213 22.5244L47.6475 22.7041L47.8213 22.5244ZM47.8108 26.2892L47.638 26.1085L47.8108 26.2892ZM44.2172 26.3054L44.3884 26.1232L44.2172 26.3054ZM38.4953 20.9303L38.3241 21.1125L38.4953 20.9303ZM36.2831 20.9994L36.4653 21.1706V21.1706L36.2831 20.9994ZM36.3522 23.2116L36.181 23.3938L36.3522 23.2116ZM42.0741 28.5867L42.2453 28.4045L42.0741 28.5867ZM49.9744 28.5511L50.1472 28.7317L49.9744 28.5511ZM49.9974 20.2745L50.1712 20.0948L49.9974 20.2745ZM43.8456 14.3245L43.6718 14.5042L43.8456 14.3245ZM28.4828 14.4525L28.6596 14.6293L28.4828 14.4525ZM23.9944 18.9409V19.1909C24.0607 19.1909 24.1243 19.1645 24.1712 19.1176L23.9944 18.9409ZM25.7493 21.6125L25.5725 21.4358V21.4358L25.7493 21.6125ZM55.74 19.347L55.8834 19.5518L55.8835 19.5517L55.74 19.347ZM68.7238 21.5493L68.547 21.3725V21.3725L68.7238 21.5493ZM68.7238 19.4625L68.547 19.6393L68.547 19.6393L68.7238 19.4625ZM20.6883 34.2406L20.5105 34.0648L20.5105 34.0648L20.6883 34.2406ZM25.555 29.6452L25.6453 29.8783L25.6454 29.8783L25.555 29.6452ZM16.0315 39.8053L16.2731 39.8696L16.2731 39.8696L16.0315 39.8053ZM18.9075 46.4027L18.7916 46.6242L18.7916 46.6242L18.9075 46.4027ZM20.2477 48.2051L20.4968 48.2265L20.4968 48.2265L20.2477 48.2051ZM26.0939 54.4303L26.0914 54.6803H26.0914L26.0939 54.4303ZM27.6417 54.4454L27.8662 54.3354C27.8246 54.2505 27.7387 54.1964 27.6442 54.1954L27.6417 54.4454ZM28.3024 55.7937L28.0779 55.9037L28.0779 55.9037L28.3024 55.7937ZM30.205 57.9099L30.0735 58.1225L30.0735 58.1225L30.205 57.9099ZM35.036 58.6413L35.1183 58.8773L35.1183 58.8773L35.036 58.6413ZM36.4354 59.586L36.6576 59.4716L36.6576 59.4716L36.4354 59.586ZM40.8216 62.4511L40.8036 62.7004H40.8036L40.8216 62.4511ZM40.8437 62.4527L40.8618 62.2033H40.8618L40.8437 62.4527ZM42.2764 62.4734L42.2469 62.2251L42.2764 62.4734ZM53.9033 52.4126L53.7265 52.2359L53.9033 52.4126ZM53.9851 52.3308L54.1619 52.5075L54.1619 52.5075L53.9851 52.3308ZM63.374 42.938V42.688C63.3076 42.688 63.244 42.7144 63.1972 42.7613L63.374 42.938ZM68.7238 42.4163L68.547 42.2395V42.2396L68.7238 42.4163ZM68.7238 40.3296L68.547 40.5064L68.547 40.5064L68.7238 40.3296ZM62.3557 39.8079V39.5579C62.2895 39.5579 62.226 39.5842 62.1791 39.6309L62.3557 39.8079ZM52.563 49.5717L52.7395 49.7487L52.563 49.5717ZM42.0718 59.507L42.1315 59.7498L42.1316 59.7497L42.0718 59.507ZM38.8379 57.4002L38.5922 57.4463V57.4463L38.8379 57.4002ZM40.849 53.7203L41.0301 53.8927L41.0301 53.8926L40.849 53.7203ZM37.5541 52.8371L37.7294 53.0153L37.7294 53.0153L37.5541 52.8371ZM34.176 55.7141L34.2648 55.9478L34.2648 55.9478L34.176 55.7141ZM32.7281 50.1267L32.907 50.3013L32.907 50.3013L32.7281 50.1267ZM29.8682 48.5366L30.0453 48.7131L29.8682 48.5366ZM24.8207 51.1599L24.7136 51.3858L24.7136 51.3858L24.8207 51.1599ZM26.3057 44.7881L26.1273 44.613L26.1273 44.613L26.3057 44.7881ZM29.5662 41.1943L29.3438 41.08L29.3438 41.0801L29.5662 41.1943ZM25.1637 41.5034L24.9898 41.3238L24.9898 41.3238L25.1637 41.5034ZM23.2075 35.9032L23.3848 36.0794L23.3848 36.0794L23.2075 35.9032ZM41.8433 16.3946C38.6754 13.3306 33.6357 13.3726 30.5193 16.489L30.8729 16.8426C33.7963 13.9191 38.5239 13.8797 41.4957 16.754L41.8433 16.3946ZM47.9951 22.3447L41.8433 16.3946L41.4957 16.754L47.6475 22.7041L47.9951 22.3447ZM47.9836 26.4698C49.1573 25.3472 49.1625 23.4738 47.9951 22.3447L47.6475 22.7041C48.611 23.636 48.6067 25.182 47.638 26.1085L47.9836 26.4698ZM44.046 26.4876C45.1547 27.5291 46.8844 27.5213 47.9836 26.4698L47.638 26.1085C46.7308 26.9763 45.3033 26.9827 44.3884 26.1232L44.046 26.4876ZM38.3241 21.1125L44.046 26.4876L44.3884 26.1232L38.6665 20.748L38.3241 21.1125ZM36.4653 21.1706C36.9625 20.6412 37.7948 20.6152 38.3241 21.1125L38.6665 20.748C37.9358 20.0617 36.7872 20.0976 36.1009 20.8282L36.4653 21.1706ZM36.5234 23.0294C35.994 22.5321 35.968 21.6999 36.4653 21.1706L36.1009 20.8282C35.4145 21.5588 35.4504 22.7075 36.181 23.3938L36.5234 23.0294ZM42.2453 28.4045L36.5234 23.0294L36.181 23.3938L41.9029 28.7689L42.2453 28.4045ZM49.8016 28.3704C47.6921 30.3882 44.3728 30.4031 42.2453 28.4045L41.9029 28.7689C44.2242 30.9495 47.8457 30.9332 50.1472 28.7317L49.8016 28.3704ZM49.8236 20.4542C52.0639 22.6211 52.0539 26.216 49.8016 28.3704L50.1472 28.7317C52.6046 26.3812 52.6155 22.459 50.1712 20.0948L49.8236 20.4542ZM43.6718 14.5042L49.8236 20.4542L50.1712 20.0948L44.0194 14.1448L43.6718 14.5042ZM28.6596 14.6293C32.791 10.4978 39.4721 10.4421 43.6718 14.5042L44.0194 14.1448C39.6236 9.893 32.6304 9.95128 28.306 14.2757L28.6596 14.6293ZM24.1712 19.1176L28.6596 14.6293L28.306 14.2757L23.8176 18.7641L24.1712 19.1176ZM4.81894 19.1909H23.9944V18.6909H4.81894V19.1909ZM3.50391 20.5059C3.50391 19.7796 4.09267 19.1909 4.81894 19.1909V18.6909C3.81652 18.6909 3.00391 19.5035 3.00391 20.5059H3.50391ZM4.81894 21.8209C4.09267 21.8209 3.50391 21.2322 3.50391 20.5059H3.00391C3.00391 21.5083 3.81652 22.3209 4.81894 22.3209V21.8209ZM24.6427 21.8209H4.81894V22.3209H24.6427V21.8209ZM25.5725 21.4358C25.3259 21.6824 24.9914 21.8209 24.6427 21.8209V22.3209C25.124 22.3209 25.5857 22.1297 25.9261 21.7893L25.5725 21.4358ZM30.5193 16.489L25.5725 21.4358L25.9261 21.7893L30.8729 16.8426L30.5193 16.489ZM55.4102 20.5059C55.4102 20.099 55.5837 19.7616 55.8834 19.5518L55.5966 19.1422C55.1535 19.4524 54.9102 19.9482 54.9102 20.5059H55.4102ZM62.261 21.8209C60.6104 21.8209 59.3456 21.814 58.3754 21.7811C57.4018 21.7481 56.7402 21.6892 56.2892 21.5898C55.8364 21.49 55.6428 21.3591 55.5465 21.221C55.4451 21.0758 55.4102 20.8682 55.4102 20.5059H54.9102C54.9102 20.8709 54.9378 21.2226 55.1365 21.5072C55.3402 21.799 55.6843 21.9684 56.1816 22.0781C56.6807 22.1881 57.3818 22.2477 58.3584 22.2808C59.3383 22.3141 60.6113 22.3209 62.261 22.3209V21.8209ZM68.547 21.3725C68.4391 21.4803 68.3527 21.5487 68.2056 21.6039C68.0469 21.6634 67.8067 21.7111 67.3856 21.7451C66.5432 21.8131 65.0633 21.8209 62.261 21.8209V22.3209C65.0521 22.3209 66.558 22.3135 67.4258 22.2435C67.8599 22.2084 68.1559 22.1564 68.3811 22.0721C68.6178 21.9833 68.7628 21.8638 68.9005 21.726L68.547 21.3725ZM68.9954 20.5059C68.9954 20.5931 68.9558 20.7415 68.8686 20.9158C68.7841 21.0848 68.6686 21.2509 68.547 21.3725L68.9005 21.726C69.0659 21.5607 69.2112 21.3486 69.3158 21.1394C69.4178 20.9355 69.4954 20.7056 69.4954 20.5059H68.9954ZM68.547 19.6393C68.6686 19.7609 68.7841 19.927 68.8686 20.096C68.9558 20.2703 68.9954 20.4186 68.9954 20.5059H69.4954C69.4954 20.3062 69.4178 20.0763 69.3158 19.8724C69.2112 19.6632 69.0659 19.4511 68.9005 19.2858L68.547 19.6393ZM62.261 19.1909C65.0633 19.1909 66.5432 19.1987 67.3856 19.2667C67.8067 19.3007 68.0469 19.3484 68.2056 19.4079C68.3527 19.4631 68.4391 19.5315 68.547 19.6393L68.9006 19.2858C68.7628 19.148 68.6178 19.0285 68.3811 18.9397C68.1559 18.8553 67.8599 18.8034 67.4258 18.7683C66.558 18.6983 65.0521 18.6909 62.261 18.6909V19.1909ZM55.8835 19.5517C56.0605 19.4276 56.3836 19.3259 57.3391 19.2664C58.2803 19.2078 59.7815 19.1909 62.261 19.1909V18.6909C59.7853 18.6909 58.2677 18.7076 57.308 18.7674C56.3626 18.8262 55.9029 18.9275 55.5965 19.1423L55.8835 19.5517ZM20.866 34.4164C22.0594 33.2098 23.2023 32.0907 24.0819 31.2602C24.5219 30.8447 24.8946 30.5027 25.1741 30.2585C25.3141 30.1362 25.4286 30.0403 25.5155 29.9724C25.559 29.9384 25.5934 29.9132 25.6191 29.8958C25.6489 29.8757 25.6549 29.8745 25.6453 29.8783L25.4647 29.412C25.4192 29.4296 25.3745 29.4576 25.3395 29.4813C25.3005 29.5076 25.2561 29.5405 25.2076 29.5784C25.1104 29.6544 24.9881 29.7571 24.8451 29.882C24.5586 30.1323 24.1807 30.4792 23.7386 30.8966C22.854 31.7319 21.707 32.8551 20.5105 34.0648L20.866 34.4164ZM16.2731 39.8696C16.3935 39.4173 16.6042 38.9981 17.2578 38.217C17.9162 37.4304 19.0058 36.2974 20.866 34.4164L20.5105 34.0648C18.654 35.942 17.5486 37.0904 16.8744 37.8961C16.1955 38.7074 15.9362 39.1915 15.7899 39.7411L16.2731 39.8696ZM19.0235 46.1812C16.7123 44.9712 15.596 42.4136 16.2731 39.8696L15.7899 39.741C15.0534 42.5083 16.271 45.3046 18.7916 46.6242L19.0235 46.1812ZM20.4968 48.2265C20.5186 47.9726 20.5367 47.755 20.5238 47.5715C20.5102 47.377 20.4613 47.204 20.341 47.0421C20.2272 46.8891 20.0626 46.7642 19.856 46.637C19.6482 46.509 19.3737 46.3645 19.0235 46.1812L18.7916 46.6242C19.1471 46.8103 19.4041 46.9459 19.5938 47.0627C19.7848 47.1803 19.8837 47.265 19.9397 47.3404C19.9892 47.4069 20.0163 47.481 20.025 47.6064C20.0346 47.7429 20.0215 47.918 19.9986 48.1837L20.4968 48.2265ZM26.0964 54.1803C22.665 54.1462 20.2134 51.5226 20.4968 48.2265L19.9986 48.1837C19.6889 51.7858 22.3852 54.6434 26.0914 54.6803L26.0964 54.1803ZM27.6442 54.1954L26.0963 54.1803L26.0914 54.6803L27.6393 54.6954L27.6442 54.1954ZM28.5269 55.6837L27.8662 54.3354L27.4172 54.5554L28.0779 55.9037L28.5269 55.6837ZM30.3365 57.6973C29.4655 57.1585 28.9922 56.633 28.5269 55.6837L28.0779 55.9037C28.5835 56.9351 29.1201 57.5328 30.0735 58.1225L30.3365 57.6973ZM34.9537 58.4052C34.3572 58.6132 33.5408 58.648 32.6924 58.5196C31.8468 58.3916 30.9964 58.1053 30.3364 57.6972L30.0735 58.1225C30.8014 58.5726 31.7187 58.8779 32.6176 59.014C33.5137 59.1496 34.4189 59.1212 35.1183 58.8773L34.9537 58.4052ZM36.6576 59.4716C36.5077 59.1804 36.387 58.9493 36.2799 58.7756C36.1749 58.6053 36.0661 58.4609 35.9296 58.3687C35.7777 58.2661 35.618 58.2447 35.4533 58.2659C35.3037 58.2851 35.1353 58.3419 34.9536 58.4052L35.1183 58.8773C35.3106 58.8103 35.4285 58.7732 35.5171 58.7618C35.5905 58.7524 35.6208 58.7635 35.6498 58.7831C35.6941 58.813 35.7571 58.8804 35.8543 59.038C35.9494 59.1921 36.061 59.4051 36.2131 59.7004L36.6576 59.4716ZM40.8397 62.2017C38.9357 62.0639 37.5123 61.1324 36.6576 59.4716L36.2131 59.7004C37.1493 61.5198 38.7297 62.5503 40.8036 62.7004L40.8397 62.2017ZM40.8618 62.2033L40.8396 62.2017L40.8036 62.7004L40.8257 62.702L40.8618 62.2033ZM42.2469 62.2251C41.8404 62.2733 41.4207 62.2438 40.8618 62.2033L40.8257 62.702C41.3731 62.7416 41.8428 62.7765 42.3058 62.7216L42.2469 62.2251ZM53.7265 52.2359C49.6077 56.3564 47.1535 58.8113 45.5059 60.2642C43.8555 61.7194 43.0562 62.1292 42.2469 62.2251L42.3058 62.7216C43.2778 62.6065 44.1764 62.103 45.8365 60.6392C47.4993 59.173 49.968 56.7031 54.0801 52.5894L53.7265 52.2359ZM53.8083 52.1541L53.7265 52.2359L54.0801 52.5894L54.1619 52.5075L53.8083 52.1541ZM63.1972 42.7613L53.8083 52.1541L54.1619 52.5075L63.5508 43.1147L63.1972 42.7613ZM65.788 42.688H63.374V43.188H65.788V42.688ZM68.547 42.2396C68.4476 42.3389 68.3578 42.4095 68.2522 42.4643C68.1457 42.5195 68.012 42.5643 67.8196 42.5985C67.4255 42.6685 66.8261 42.688 65.788 42.688V43.188C66.8163 43.188 67.4616 43.1699 67.9071 43.0908C68.1344 43.0504 68.3194 42.9927 68.4823 42.9082C68.6462 42.8232 68.7767 42.717 68.9005 42.5931L68.547 42.2396ZM68.9954 41.373C68.9954 41.4602 68.9558 41.6085 68.8686 41.7828C68.7841 41.9519 68.6686 42.118 68.547 42.2395L68.9005 42.5931C69.0659 42.4278 69.2112 42.2157 69.3158 42.0065C69.4178 41.8026 69.4954 41.5726 69.4954 41.373H68.9954ZM68.547 40.5064C68.6686 40.628 68.7841 40.7941 68.8686 40.9631C68.9558 41.1374 68.9954 41.2857 68.9954 41.373H69.4954C69.4954 41.1733 69.4178 40.9434 69.3158 40.7395C69.2112 40.5303 69.0659 40.3182 68.9005 40.1528L68.547 40.5064ZM65.2789 40.0579C66.5727 40.0579 67.2981 40.0741 67.7574 40.1436C67.9826 40.1777 68.1305 40.223 68.2435 40.2786C68.3544 40.3331 68.4443 40.4037 68.547 40.5064L68.9006 40.1528C68.7734 40.0257 68.6397 39.9162 68.4641 39.8299C68.2905 39.7445 68.0888 39.6881 67.8322 39.6493C67.3278 39.5729 66.5605 39.5579 65.2789 39.5579V40.0579ZM62.3557 40.0579H65.2789V39.5579H62.3557V40.0579ZM52.7395 49.7487L62.5322 39.985L62.1791 39.6309L52.3865 49.3946L52.7395 49.7487ZM42.1316 59.7497C42.2015 59.7325 42.2716 59.6928 42.3272 59.6579C42.3898 59.6187 42.4629 59.5668 42.5448 59.5045C42.7092 59.3795 42.922 59.2029 43.1804 58.978C43.6978 58.5276 44.4088 57.8739 45.3001 57.0297C47.0834 55.341 49.5958 52.883 52.7395 49.7487L52.3865 49.3946C49.2439 52.5278 46.735 54.9823 44.9563 56.6667C44.0667 57.5092 43.3616 58.1573 42.8521 58.6008C42.597 58.8229 42.3937 58.9913 42.2422 59.1065C42.1662 59.1642 42.1065 59.2062 42.0617 59.2343C42.01 59.2666 41.9982 59.2677 42.0121 59.2642L42.1316 59.7497ZM38.5922 57.4463C38.8908 59.0374 40.5688 60.1342 42.1315 59.7498L42.0121 59.2642C40.7332 59.5788 39.3302 58.6682 39.0837 57.3541L38.5922 57.4463ZM40.6679 53.5479C39.7326 54.5306 39.1556 55.2009 38.8438 55.7715C38.5184 56.3669 38.4811 56.8541 38.5922 57.4463L39.0837 57.3541C38.9905 56.8578 39.0205 56.4908 39.2826 56.0112C39.5582 55.5068 40.089 54.8814 41.0301 53.8927L40.6679 53.5479ZM42.1291 51.7567C42.1291 51.7235 42.139 51.7166 42.1206 51.7567C42.1064 51.7878 42.0823 51.8318 42.0464 51.8891C41.9751 52.0031 41.8685 52.152 41.7324 52.3266C41.461 52.6749 41.0841 53.1106 40.6679 53.5479L41.0301 53.8926C41.4554 53.4457 41.8435 52.9975 42.1268 52.6339C42.2681 52.4526 42.3862 52.2887 42.4703 52.1543C42.5121 52.0874 42.5484 52.0234 42.5751 51.9652C42.5976 51.9161 42.6291 51.8388 42.6291 51.7567H42.1291ZM40.8793 50.4915C41.1356 50.4915 41.4505 50.6484 41.7116 50.9122C41.9724 51.1757 42.1291 51.495 42.1291 51.7567H42.6291C42.6291 51.3178 42.3826 50.8794 42.0669 50.5605C41.7515 50.2418 41.3165 49.9915 40.8793 49.9915V50.4915ZM37.7294 53.0153C38.7271 52.0335 39.4193 51.3937 39.9237 51C40.44 50.597 40.7123 50.4915 40.8793 50.4915V49.9915C40.5261 49.9915 40.1335 50.202 39.6161 50.6059C39.0868 51.019 38.3765 51.677 37.3787 52.6589L37.7294 53.0153ZM34.2648 55.9478C34.4039 55.8949 34.6015 55.7637 34.8209 55.6005C35.0494 55.4306 35.3275 55.2058 35.636 54.9431C36.2534 54.4173 37.0004 53.7326 37.7294 53.0153L37.3787 52.6589C36.6572 53.3689 35.919 54.0453 35.3118 54.5624C35.008 54.8212 34.739 55.0383 34.5225 55.1993C34.2969 55.3671 34.1518 55.4559 34.0871 55.4805L34.2648 55.9478ZM30.3914 53.1741C30.3914 54.1486 30.9244 55.0066 31.6616 55.5363C32.3985 56.0658 33.3695 56.2881 34.2648 55.9478L34.0872 55.4804C33.3793 55.7495 32.583 55.5826 31.9534 55.1302C31.324 54.678 30.8914 53.9613 30.8914 53.1741H30.3914ZM32.5492 49.9521C31.6524 50.8708 31.1143 51.4522 30.8031 51.9066C30.6448 52.1377 30.5395 52.3439 30.4752 52.5526C30.4107 52.762 30.3914 52.9617 30.3914 53.1741H30.8914C30.8914 52.9939 30.9077 52.8471 30.9531 52.6997C30.9987 52.5517 31.0774 52.391 31.2157 52.1891C31.4977 51.7773 32.0029 51.2276 32.907 50.3013L32.5492 49.9521ZM34.5648 47.2111C34.5648 47.45 34.4886 47.7022 34.1921 48.1166C33.8909 48.5373 33.3821 49.0987 32.5491 49.9521L32.907 50.3013C33.738 49.4499 34.2724 48.8634 34.5987 48.4076C34.9295 47.9453 35.0648 47.5921 35.0648 47.2111H34.5648ZM33.3885 46.0572C33.8662 46.0572 34.1424 46.1562 34.3041 46.3154C34.4649 46.4737 34.5648 46.7431 34.5648 47.2111H35.0648C35.0648 46.6873 34.9553 46.2548 34.6549 45.9591C34.3554 45.6643 33.9184 45.5572 33.3885 45.5572V46.0572ZM30.0453 48.7131C31.1843 47.5702 31.8858 46.8998 32.3832 46.5141C32.8732 46.1342 33.1317 46.0572 33.3885 46.0572V45.5572C32.9765 45.5572 32.6115 45.7044 32.0768 46.119C31.5496 46.5278 30.8254 47.222 29.6911 48.3602L30.0453 48.7131ZM24.7136 51.3858C25.0845 51.5618 25.4292 51.6845 25.7861 51.7054C26.149 51.7266 26.5022 51.6414 26.8899 51.4399C27.6434 51.0483 28.574 50.1894 30.0453 48.7131L29.6911 48.3602C28.2029 49.8535 27.3297 50.6478 26.6593 50.9962C26.3351 51.1647 26.0713 51.2212 25.8153 51.2062C25.5531 51.1909 25.2769 51.0996 24.9279 50.934L24.7136 51.3858ZM23.0879 48.6232C23.0879 49.2676 23.2184 49.8305 23.4929 50.3C23.7683 50.7712 24.1795 51.1323 24.7136 51.3858L24.9279 50.934C24.4737 50.7185 24.1434 50.4221 23.9245 50.0477C23.7046 49.6715 23.5879 49.2006 23.5879 48.6232H23.0879ZM26.1273 44.613C24.8803 45.8836 24.1273 46.6823 23.687 47.2513C23.2421 47.8262 23.0879 48.2021 23.0879 48.6232H23.5879C23.5879 48.3612 23.6681 48.0926 24.0824 47.5573C24.5013 47.016 25.2323 46.2388 26.4841 44.9632L26.1273 44.613ZM29.3438 41.0801C29.3189 41.1285 29.2178 41.2656 29.0267 41.4937C28.844 41.7119 28.5969 41.9927 28.3026 42.3171C27.7141 42.9657 26.9415 43.7834 26.1273 44.613L26.4841 44.9632C27.3022 44.1298 28.0794 43.3073 28.6729 42.6531C28.9695 42.3262 29.2214 42.04 29.41 41.8148C29.5904 41.5994 29.7329 41.4169 29.7886 41.3085L29.3438 41.0801ZM28.1167 39.2754C29.1725 39.2754 29.7752 40.2407 29.3438 41.08L29.7885 41.3086C30.4146 40.0904 29.4934 38.7754 28.1167 38.7754V39.2754ZM25.3377 41.6829C26.0378 41.0047 26.7172 40.3893 27.2469 39.9448C27.5122 39.7222 27.7368 39.545 27.9061 39.4248C27.9912 39.3643 28.0579 39.3214 28.1061 39.2947C28.1303 39.2813 28.1455 39.2745 28.1531 39.2715C28.1652 39.2669 28.1491 39.2754 28.1167 39.2754V38.7754C28.0571 38.7754 28.0051 38.7927 27.9731 38.805C27.9367 38.8191 27.8997 38.8375 27.864 38.8573C27.7924 38.8969 27.7086 38.9518 27.6166 39.0171C27.4316 39.1486 27.1953 39.3353 26.9255 39.5618C26.3847 40.0156 25.6964 40.6392 24.9898 41.3238L25.3377 41.6829ZM21.5175 44.2314C21.7766 44.2314 22.0079 44.2222 22.2415 44.1638C22.4787 44.1044 22.7042 43.998 22.9642 43.8214C23.4703 43.4774 24.1448 42.8387 25.3377 41.6829L24.9898 41.3238C23.7821 42.494 23.1445 43.0943 22.6831 43.4078C22.4593 43.5599 22.2873 43.6369 22.1201 43.6787C21.9492 43.7215 21.7693 43.7314 21.5175 43.7314V44.2314ZM18.6536 41.3453C18.6536 42.1824 18.9422 42.9071 19.4541 43.4232C19.966 43.9396 20.6856 44.2314 21.5175 44.2314V43.7314C20.8054 43.7314 20.2181 43.4836 19.8091 43.0712C19.4 42.6586 19.1536 42.0652 19.1536 41.3453H18.6536ZM23.0301 35.727C20.9299 37.8403 19.84 38.9423 19.2795 39.6511C18.9964 40.009 18.8331 40.2849 18.7457 40.5553C18.6581 40.8265 18.6536 41.0732 18.6536 41.3453H19.1536C19.1536 41.0735 19.1605 40.8979 19.2215 40.7091C19.2827 40.5196 19.4054 40.2978 19.6716 39.9612C20.2097 39.2809 21.2716 38.2058 23.3848 36.0794L23.0301 35.727ZM27.2613 31.0448C27.2613 31.0214 27.267 31.0149 27.2593 31.0348C27.253 31.0515 27.2409 31.0774 27.2201 31.1141C27.1787 31.1874 27.113 31.2859 27.0202 31.4109C26.8354 31.6598 26.5576 31.9941 26.1913 32.4076C25.4596 33.2336 24.3874 34.3611 23.0301 35.727L23.3848 36.0794C24.745 34.7106 25.8247 33.5755 26.5655 32.7392C26.9355 32.3216 27.2242 31.9749 27.4217 31.709C27.5201 31.5764 27.5995 31.4591 27.6555 31.36C27.6835 31.3105 27.7081 31.2612 27.7263 31.2136C27.7432 31.1694 27.7613 31.1099 27.7613 31.0448H27.2613ZM25.6454 29.8783C26.4171 29.5791 27.2613 30.1639 27.2613 31.0448H27.7613C27.7613 29.8369 26.5866 28.9772 25.4647 29.4121L25.6454 29.8783ZM4.81894 39.5579C3.81652 39.5579 3.00391 40.3706 3.00391 41.373H3.50391C3.50391 40.6467 4.09267 40.0579 4.81894 40.0579V39.5579ZM10.2965 39.5579H4.81894V40.0579H10.2965V39.5579ZM12.1116 41.373C12.1116 40.3706 11.299 39.5579 10.2965 39.5579V40.0579C11.0228 40.0579 11.6116 40.6467 11.6116 41.373H12.1116ZM10.2965 43.188C11.299 43.188 12.1116 42.3754 12.1116 41.373H11.6116C11.6116 42.0992 11.0228 42.688 10.2965 42.688V43.188ZM4.81894 43.188H10.2965V42.688H4.81894V43.188ZM3.00391 41.373C3.00391 42.3754 3.81652 43.188 4.81894 43.188V42.688C4.09267 42.688 3.50391 42.0992 3.50391 41.373H3.00391Z" fill="#82607D"/>
</svg>
