<svg width="59" height="75" viewBox="0 0 59 75" fill="none" xmlns="http://www.w3.org/2000/svg">
<path d="M4.07178 4L55.0002 4.06112L54.9285 70.9999L4.0001 70.9388L4.07178 4Z" stroke="#E0570B" stroke-width="6"/>
<rect x="16.9629" y="41" width="25.9766" height="3" fill="#ABABAB"/>
<rect x="16.9629" y="49" width="25.9766" height="3" fill="#ABABAB"/>
<path d="M20.2563 20H17.1538C17.0424 20 16.9629 20.0786 16.9629 20.1886V30.8114C16.9629 30.9214 17.0424 31 17.1538 31H18.713C18.8244 31 18.9039 30.9214 18.9039 30.8114V28.1086C18.9039 28.0457 18.9358 28.0143 18.9994 28.0143H20.2563C22.786 28.0143 24.4884 26.4429 24.4884 24.0071C24.4884 21.5714 22.786 20 20.2563 20ZM18.9039 26.0971V21.9171C18.9039 21.8543 18.9517 21.8229 18.9994 21.8229H20.0972C21.6246 21.8229 22.4519 22.6243 22.4519 24.0071C22.4519 25.39 21.6246 26.1914 20.0972 26.1914H18.9994C18.9358 26.1914 18.9039 26.16 18.9039 26.0971Z" fill="#ABABAB"/>
<path d="M29.6627 20H26.2898C26.1784 20 26.0988 20.0786 26.0988 20.1886V30.8114C26.0988 30.9214 26.1784 31 26.2898 31H29.6627C32.7971 31 35.0404 28.8314 35.0404 25.5C35.0404 22.1686 32.7971 20 29.6627 20ZM28.0399 29.0829V21.9171C28.0399 21.8543 28.0876 21.8229 28.1354 21.8229H29.4559C31.2697 21.8229 32.988 22.75 32.988 25.5C32.988 28.25 31.2697 29.1771 29.4559 29.1771H28.1354C28.0717 29.1771 28.0399 29.1457 28.0399 29.0829Z" fill="#ABABAB"/>
<path d="M42.7485 20H37.2436C37.1322 20 37.0527 20.0786 37.0527 20.1886V30.8114C37.0527 30.9214 37.1322 31 37.2436 31H38.8028C38.9142 31 38.9937 30.9214 38.9937 30.8114V26.5843C38.9937 26.5214 39.0415 26.49 39.0892 26.49H42.7485C42.8599 26.49 42.9395 26.4114 42.9395 26.3014V24.8557C42.9395 24.7457 42.8599 24.6671 42.7485 24.6671H39.0892C39.0255 24.6671 38.9937 24.62 38.9937 24.5729V21.9171C38.9937 21.8543 39.0415 21.8229 39.0892 21.8229H42.7485C42.8599 21.8229 42.9395 21.7443 42.9395 21.6343V20.1886C42.9395 20.0786 42.8599 20 42.7485 20Z" fill="#ABABAB"/>
</svg>
