<svg width="74" height="111" viewBox="0 0 74 111" fill="none" xmlns="http://www.w3.org/2000/svg">
<path d="M56.042 78.1719H37.1992C35.0884 78.1719 33.3711 76.4546 33.3711 74.3438V45.4414C33.3711 43.3306 35.0884 41.6133 37.1992 41.6133H43.2179V42.5703C43.2179 45.7366 45.7938 48.3125 48.9601 48.3125C52.1263 48.3125 54.7023 45.7366 54.7023 42.5703V41.6133H60.7316C62.8424 41.6133 64.5597 43.3306 64.5597 45.4414V59.4141C64.5597 60.4712 65.4166 61.3281 66.4738 61.3281C67.5309 61.3281 68.3878 60.4712 68.3878 59.4141V45.4414C68.3878 41.2198 64.9532 37.7852 60.7316 37.7852H54.7023V34.9141C54.7023 33.8569 53.8453 33 52.7882 33H45.132C44.0748 33 43.2179 33.8569 43.2179 34.9141V37.7852H37.1992C32.9776 37.7852 29.543 41.2198 29.543 45.4414V74.3438C29.543 78.5654 32.9776 82 37.1992 82H56.0421C57.0992 82 57.9562 81.1431 57.9562 80.0859C57.9562 79.0288 57.0992 78.1719 56.042 78.1719ZM47.0459 36.8281H50.874V42.5703C50.874 43.6257 50.0154 44.4844 48.96 44.4844C47.9046 44.4844 47.0459 43.6257 47.0459 42.5703V36.8281ZM71.7797 72.199L61.2945 61.6905C61.0718 61.4673 60.7975 61.3025 60.4958 61.2109L52.9615 58.9224C52.2936 58.7194 51.5681 58.8964 51.0686 59.3838C50.5689 59.8713 50.3743 60.5922 50.5606 61.2648L52.7007 68.9904C52.7889 69.3083 52.9576 69.5982 53.1906 69.8316L63.6573 80.3181C64.7767 81.4375 66.2473 81.9972 67.7177 81.9972C69.1881 81.9972 70.6586 81.4375 71.7781 80.3181C74.0171 78.0792 74.0171 74.4364 71.7797 72.199ZM55.1791 63.5968L58.9237 64.7343L65.9985 71.8248L63.2911 74.5322L56.2557 67.4835L55.1791 63.5968ZM69.0712 77.6112C68.325 78.3576 67.1108 78.3576 66.3656 77.6126L65.9955 77.2418L68.7024 74.535L69.0711 74.9046C69.8176 75.6507 69.8176 76.865 69.0712 77.6112Z" fill="#77C5D5"/>
<path d="M38.64 84.04V77C38.64 76.44 38.24 76.04 37.68 76.04H14.88C14.4 76.04 14.16 75.8 14.16 75.32C14.56 71 17.04 68.92 21.36 66.2L26.88 62.68C31.76 59.56 39.12 54.44 39.12 44.52C39.12 34.76 32 27.56 21.36 27.56C12 27.56 5.36 33.88 3.2 42.44C3.04 43 3.28 43.4 3.84 43.56L11.36 45.72C11.92 45.88 12.4 45.64 12.48 45C13.52 39.96 16.8 37 21.36 37C25.92 37 29.12 40.12 29.12 44.68C29.12 49.4 25.92 52.6 22.24 54.92L16.72 58.44C6.8 64.68 4.24 69.88 4.24 78.68V84.04C4.24 84.6 4.64 85 5.2 85H37.68C38.24 85 38.64 84.6 38.64 84.04Z" fill="#77C5D5"/>
</svg>
