<svg width="102" height="111" viewBox="0 0 102 111" fill="none" xmlns="http://www.w3.org/2000/svg">
<path d="M69.272 45.3635C68.0766 45.3635 67.1074 46.2997 67.1074 47.4544V64.1816C67.1074 65.3363 68.0766 66.2725 69.272 66.2725C70.4674 66.2725 71.4366 65.3363 71.4366 64.1816V47.4544C71.4366 46.2997 70.4674 45.3635 69.272 45.3635Z" fill="#77C5D5"/>
<path d="M77.9302 45.3635C76.7348 45.3635 75.7656 46.2997 75.7656 47.4544V55.818C75.7656 56.9727 76.7348 57.9089 77.9302 57.9089C79.1256 57.9089 80.0948 56.9727 80.0948 55.818V47.4544C80.0948 46.2997 79.1256 45.3635 77.9302 45.3635Z" fill="#77C5D5"/>
<path d="M60.612 45.3635C59.4166 45.3635 58.4474 46.2997 58.4474 47.4544V53.7271H54.1182V47.4544C54.1182 46.2997 53.1491 45.3635 51.9536 45.3635C50.7582 45.3635 49.7891 46.2997 49.7891 47.4544V64.1816C49.7891 65.3363 50.7582 66.2725 51.9536 66.2725C53.1491 66.2725 54.1182 65.3363 54.1182 64.1816V57.9089H58.4474V64.1816C58.4474 65.3363 59.4166 66.2725 60.612 66.2725C61.8074 66.2725 62.7766 65.3363 62.7766 64.1816V47.4544C62.7766 46.2997 61.8074 45.3635 60.612 45.3635Z" fill="#77C5D5"/>
<path d="M77.9302 66.2725C79.1257 66.2725 80.0948 65.3364 80.0948 64.1816C80.0948 63.0268 79.1257 62.0907 77.9302 62.0907C76.7347 62.0907 75.7656 63.0268 75.7656 64.1816C75.7656 65.3364 76.7347 66.2725 77.9302 66.2725Z" fill="#77C5D5"/>
<path d="M82.2589 37H47.6256C36.8039 37 28 45.4418 28 55.8181C28 65.4934 35.6537 73.4864 45.461 74.5225V80.9088C45.461 81.68 45.9004 82.3885 46.6042 82.7523C47.3065 83.1153 48.1604 83.0772 48.8262 82.6486L61.2685 74.6362H82.2589C93.0804 74.6362 101.884 66.1944 101.884 55.8181C101.884 45.4418 93.0804 37 82.2589 37ZM82.2589 70.4544H60.6131C60.1858 70.4544 59.768 70.5766 59.4124 70.8055L49.7901 77.0019V72.5453C49.7901 71.3905 48.821 70.4544 47.6256 70.4544C39.191 70.4544 32.3292 63.8885 32.3292 55.8181C32.3292 47.7476 39.191 41.1818 47.6256 41.1818H82.2589C90.6933 41.1818 97.5553 47.7476 97.5553 55.8181C97.5553 63.8885 90.6933 70.4544 82.2589 70.4544Z" fill="#77C5D5"/>
<path d="M21.76 86.52C34.16 86.52 41.12 78.52 41.12 69.56C41.12 63.24 38.08 58.76 33.04 56.2C32.48 55.88 32.48 55.48 33.04 55.16C37.28 52.68 39.68 48.52 39.68 43.16C39.68 34.44 33.36 27.48 21.52 27.48C13.68 27.48 7.2 31.48 4.16 37.72C3.84 38.28 4.08 38.84 4.56 39.08L11.44 42.76C12 43.08 12.4 42.92 12.64 42.28C14.08 38.92 17.2 36.68 21.52 36.68C26.32 36.68 29.6 39.8 29.6 44.12C29.6 48.44 26.56 51.48 21.28 51.48H18.72C18.16 51.48 17.76 51.88 17.76 52.44V59.4C17.76 59.96 18.16 60.36 18.72 60.36H21.28C26.48 60.36 31.28 62.92 31.28 68.84C31.28 73.72 27.28 77.08 21.76 77.08C16.88 77.08 13.04 74.36 11.04 69.4C10.72 68.76 10.32 68.6 9.76 68.92L2.64 72.76C2.16 73 1.92 73.48 2.16 74.04C5.44 81.88 12.88 86.52 21.76 86.52Z" fill="#77C5D5"/>
</svg>
