<svg width="117" height="111" viewBox="0 0 117 111" fill="none" xmlns="http://www.w3.org/2000/svg">
<path d="M25.36 48.04C21.44 48.04 18.08 49.4 15.68 51.4C15.2 51.88 14.88 51.64 14.88 51V38.44C14.88 38.12 15.04 37.96 15.36 37.96H38.64C39.2 37.96 39.6 37.56 39.6 37V29.96C39.6 29.4 39.2 29 38.64 29H6.32C5.76 29 5.36 29.4 5.36 29.96V60.36C5.36 60.92 5.6 61.32 6.16 61.48L13.52 63.32C14.08 63.48 14.48 63.24 14.72 62.6C15.84 59.56 19.2 57.4 23.36 57.4C28.72 57.4 32.32 61.24 32.32 67C32.32 72.84 28.8 77.08 23.04 77.08C18.16 77.08 14.96 74.28 13.68 70.44C13.52 69.8 13.12 69.56 12.48 69.8L4.4 72.44C3.76 72.68 3.6 73.08 3.76 73.64C6.24 80.92 12.88 86.44 23.04 86.44C34.48 86.44 42.32 78.28 42.32 67C42.32 55.48 35.12 48.04 25.36 48.04Z" fill="#77C5D5"/>
<path d="M59.9409 37.3909L75.1279 56.7777L62.0976 63.5309L55.403 58.8895L51.7106 60.1491L55.9516 66.7816L53.5049 69.7596L57.4561 70.2255L58.2533 78.3626L61.4556 77.6L64.3578 69.1903L78.3993 65.8845L79.3136 90.7995L83.7445 89.2881L92.1854 61.3467L101.537 57.8269L108.891 50.8666L108.132 48.1577L98.0139 47.9816L88.1721 51.9984L65.1103 35.6275L59.9409 37.3909Z" stroke="#77C5D5" stroke-width="4" stroke-linecap="round" stroke-linejoin="round"/>
<path d="M47.8863 45.5789L29.3047 51.7259" stroke="#77C5D5" stroke-width="4" stroke-linecap="round" stroke-linejoin="round"/>
<path d="M56.4136 92.5936L37.832 98.7406" stroke="#77C5D5" stroke-width="4" stroke-linecap="round" stroke-linejoin="round"/>
</svg>
