<svg width="100" height="111" viewBox="0 0 100 111" fill="none" xmlns="http://www.w3.org/2000/svg">
<path d="M79.3887 31.4682H27.6113C26.7214 31.4682 26 32.1896 26 33.0795V73.6631C26 74.553 26.7214 75.2744 27.6113 75.2744H47.2276V80.3091H46.7635C45.8736 80.3091 45.1521 81.0305 45.1521 81.9204C45.1521 82.8103 45.8736 83.5317 46.7635 83.5317H60.2365C61.1264 83.5317 61.8479 82.8103 61.8479 81.9204C61.8479 81.0305 61.1264 80.3091 60.2365 80.3091H59.7724V75.2744H79.3887C80.2786 75.2744 81 74.553 81 73.6631V33.0795C81 32.1896 80.2786 31.4682 79.3887 31.4682ZM29.2227 37.6909C29.2227 36.034 30.5658 34.6909 32.2227 34.6909H77.7773V63.6663H29.2227V37.6909ZM56.5497 80.3091H50.4503V75.2744H56.5496L56.5497 80.3091ZM77.7773 72.0518H29.2227V66.889H77.7773V72.0518Z" fill="#77C5D5"/>
<path d="M68.2834 39.2988H40.2891C39.3992 39.2988 38.6777 40.0203 38.6777 40.9102C38.6777 41.8 39.3992 42.5215 40.2891 42.5215H68.2834C69.1733 42.5215 69.8947 41.8 69.8947 40.9102C69.8947 40.0203 69.1734 39.2988 68.2834 39.2988Z" fill="#77C5D5"/>
<path d="M68.2823 55.8356H57.7969C56.907 55.8356 56.1855 56.5571 56.1855 57.447C56.1855 58.3368 56.907 59.0583 57.7969 59.0583H68.2823C69.1722 59.0583 69.8936 58.3368 69.8936 57.447C69.8936 56.5571 69.1723 55.8356 68.2823 55.8356Z" fill="#77C5D5"/>
<path d="M68.2823 48.0616H57.7969C56.907 48.0616 56.1855 48.7831 56.1855 49.673C56.1855 50.5629 56.907 51.2843 57.7969 51.2843H68.2823C69.1722 51.2843 69.8936 50.5629 69.8936 49.673C69.8936 48.7831 69.1723 48.0616 68.2823 48.0616Z" fill="#77C5D5"/>
<path d="M51.3527 48.0616H40.2891C39.3992 48.0616 38.6777 48.7831 38.6777 49.673V57.447C38.6777 58.3369 39.3992 59.0583 40.2891 59.0583H51.3527C52.2425 59.0583 52.964 58.3369 52.964 57.447V49.673C52.964 48.7831 52.2425 48.0616 51.3527 48.0616ZM49.7413 55.8357H41.9004V51.2843H49.7413V55.8357Z" fill="#77C5D5"/>
<path d="M59.8558 74.8557L59.8368 74.8368L59.8558 74.8557ZM59.8558 74.8557L59.8579 74.8578L59.8558 74.8557ZM90.2635 72.7365L90.2635 72.7365C88.8842 71.3572 87.3574 70.1734 85.7178 69.2002C87.5027 66.7848 88.5625 63.7968 88.5625 60.5625C88.5625 52.5301 82.0324 46 74 46C65.9676 46 59.4375 52.5301 59.4375 60.5625C59.4375 63.7968 60.4973 66.7848 62.2822 69.2002C60.6427 70.1734 59.1159 71.3572 57.7366 72.7365L57.7365 72.7365C53.3965 77.0767 51 82.8621 51 89V92H54H57.125H60.125V89C60.125 81.3519 66.3519 75.125 74 75.125C81.6481 75.125 87.875 81.3519 87.875 89V92H90.875H94H97V89C97 82.8621 94.6035 77.0767 90.2635 72.7365ZM74 66C71.0044 66 68.5625 63.5581 68.5625 60.5625C68.5625 57.5669 71.0044 55.125 74 55.125C76.9956 55.125 79.4375 57.5669 79.4375 60.5625C79.4375 63.5581 76.9956 66 74 66Z" fill="#77C5D5" stroke="white" stroke-width="6"/>
<path d="M13.04 29.48L2.64 38.36C2.08 38.84 1.92 39.24 1.92 39.96V48.68C1.92 49.48 2.48 49.72 3.12 49.24L13.68 40.44C14.16 40.04 14.48 40.28 14.48 40.76V84.04C14.48 84.6 14.88 85 15.44 85H23.12C23.68 85 24.08 84.6 24.08 84.04V29.96C24.08 29.4 23.68 29 23.12 29H14.16C13.68 29 13.36 29.16 13.04 29.48Z" fill="#77C5D5"/>
</svg>
