<svg width="89" height="111" viewBox="0 0 89 111" fill="none" xmlns="http://www.w3.org/2000/svg">
<path d="M64.5 63.5L73 74L87 51.5" stroke="#77C5D5" stroke-width="4" stroke-linecap="round" stroke-linejoin="round"/>
<path d="M66.499 78.1719H47.6562C45.5454 78.1719 43.8281 76.4546 43.8281 74.3438V45.4414C43.8281 43.3306 45.5454 41.6133 47.6562 41.6133H53.6749V42.5703C53.6749 45.7366 56.2509 48.3125 59.4171 48.3125C62.5834 48.3125 65.1593 45.7366 65.1593 42.5703V41.6133H71.1886C73.2994 41.6133 75.0167 43.3306 75.0167 45.4414V51.4141C75.0167 52.4712 75.8736 53.3281 76.9308 53.3281C77.9879 53.3281 78.8448 52.4712 78.8448 51.4141V45.4414C78.8448 41.2197 75.4103 37.7852 71.1886 37.7852H65.1593V34.9141C65.1593 33.8569 64.3024 33 63.2452 33H55.589C54.5318 33 53.6749 33.8569 53.6749 34.9141V37.7852H47.6562C43.4346 37.7852 40 41.2197 40 45.4414V74.3438C40 78.5654 43.4346 82 47.6562 82H66.4991C67.5563 82 68.4132 81.1431 68.4132 80.0859C68.4132 79.0288 67.5562 78.1719 66.499 78.1719ZM57.503 36.8281H61.3311V42.5703C61.3311 43.6257 60.4724 44.4844 59.417 44.4844C58.3616 44.4844 57.503 43.6257 57.503 42.5703V36.8281Z" fill="#77C5D5"/>
<path d="M36.56 63V53C36.56 52.44 36.16 52.04 35.6 52.04H27.92C27.36 52.04 26.96 52.44 26.96 53V63C26.96 63.32 26.72 63.48 26.48 63.48H15.04C14.72 63.48 14.48 63.32 14.64 62.92L29.76 30.12C30.08 29.4 29.68 29 28.96 29H20.48C20 29 19.6 29.16 19.36 29.72L1.04 70.6C0.64 71.56 1.12 72.52 2.16 72.52H26.48C26.8 72.52 26.96 72.68 26.96 73V84.04C26.96 84.6 27.36 85 27.92 85H35.6C36.16 85 36.56 84.6 36.56 84.04V73C36.56 72.68 36.8 72.52 37.04 72.52H42.56C43.12 72.52 43.52 72.12 43.52 71.56V64.44C43.52 63.88 43.12 63.48 42.56 63.48H37.04C36.72 63.48 36.56 63.32 36.56 63Z" fill="#77C5D5"/>
</svg>
