<svg width="72" height="72" viewBox="0 0 72 72" fill="none" xmlns="http://www.w3.org/2000/svg">
<path d="M6.1522 59.134L6.15185 59.1335C5.48665 58.2452 5.66551 56.9874 6.55374 56.3203L14.7932 50.1413L14.9134 50.0511L14.8901 49.9025C14.8357 49.5555 14.787 49.2279 14.787 48.8907C14.787 45.4945 17.4073 42.7255 20.732 42.4228L21.3122 42.37L20.8741 41.9859C20.8141 41.9332 20.7545 41.8814 20.6953 41.8299C20.4423 41.6097 20.1976 41.3967 19.962 41.1612C13.013 34.2121 13.013 22.9046 19.962 15.9556C26.9111 9.00651 38.2186 9.00651 45.1676 15.9556C48.0017 18.7896 49.7482 22.4139 50.2339 26.3287L50.2611 26.548H50.482H53.3603H53.5366L53.5958 26.3819C54.4975 23.8534 56.8919 22.0294 59.7224 22.0294C63.3212 22.0294 66.2502 24.9585 66.2502 28.5572C66.2502 32.156 63.3212 35.085 59.7224 35.085C56.8919 35.085 54.4975 33.2611 53.5958 30.7325L53.5366 30.5665H53.3603H50.482H50.2611L50.2339 30.7857C49.8396 33.9671 48.6033 36.9476 46.6338 39.4763L46.4981 39.6505L46.6542 39.8067L49.9596 43.112L50.1361 43.2885L50.3129 43.1123C51.006 42.4211 52.1036 42.3287 52.9032 42.8992C52.9033 42.8992 52.9033 42.8992 52.9033 42.8993L64.0866 50.888L64.088 50.8889C64.174 50.9496 64.2584 51.0215 64.3387 51.0997C65.5699 52.3315 66.2502 53.9709 66.2502 55.716C66.2502 57.4594 65.5716 59.0993 64.3398 60.3311C63.1078 61.5631 61.4702 62.2438 59.7247 62.2438C57.9798 62.2438 56.3425 61.5635 55.1083 60.3322C55.0304 60.252 54.9581 60.1674 54.8948 60.0783L54.8945 60.0779L46.9057 48.8945L46.9056 48.8943C46.3352 48.097 46.4254 47.002 47.1208 46.3066L47.2976 46.1298L47.1207 45.953L43.8131 42.6477L43.6571 42.4918L43.483 42.6272C40.2814 45.1158 36.4271 46.3724 32.5637 46.3724C30.8258 46.3724 29.0901 46.1184 27.4121 45.6148L26.8533 45.4471L27.1173 45.9673C27.5675 46.8546 27.8426 47.8373 27.8426 48.8907C27.8426 52.4895 24.9136 55.4185 21.3148 55.4185C19.6594 55.4185 18.1607 54.7802 17.005 53.7554L16.8524 53.62L16.6892 53.7424L8.96473 59.5352L9.11472 59.7352L8.96472 59.5352C8.60288 59.8066 8.17923 59.9371 7.76142 59.9371C7.14913 59.9371 6.54525 59.6614 6.1522 59.134ZM61.6142 54.0694L61.595 54.0474L61.5713 54.0305L52.1253 47.2798L51.9529 47.1566L51.8031 47.3064L51.3151 47.7944L51.1654 47.9441L51.2885 48.1165L58.0369 57.5648L58.0538 57.5883L58.0755 57.6074C59.0351 58.4486 60.5897 58.4013 61.4965 57.49C61.9704 57.0162 62.2317 56.3855 62.2317 55.716C62.2317 55.104 62.0131 54.526 61.6142 54.0694ZM28.5164 41.6899C33.2439 43.1385 38.5901 42.0589 42.3266 38.3201C44.3814 36.2653 45.6955 33.6715 46.1671 30.8601L46.216 30.5688H45.9205H41.6505H41.4005V30.8188C41.4005 34.4175 38.4715 37.3466 34.8727 37.3466C33.8772 37.3466 32.9422 37.1038 32.0927 36.6998L31.9081 36.612L31.7854 36.7755L28.3897 41.3008L28.176 41.5856L28.5164 41.6899ZM22.8008 18.7966L22.8008 18.7967C17.4188 24.181 17.4188 32.938 22.8008 38.3201C23.2528 38.7721 23.7502 39.1411 24.2303 39.4973C24.2685 39.5256 24.3065 39.5538 24.3444 39.582L24.5442 39.7306L24.6936 39.5314L28.7439 34.1303C28.744 34.1301 28.7441 34.13 28.7442 34.1299C28.7584 34.1111 28.779 34.0921 28.819 34.0609C28.8244 34.0567 28.8306 34.0519 28.8374 34.0467C28.8728 34.0196 28.9246 33.98 28.9698 33.9349L29.096 33.8087L29.0176 33.6483C28.5962 32.7858 28.3426 31.8336 28.3426 30.8165C28.3426 27.2177 31.2717 24.2887 34.8704 24.2887C36.7893 24.2887 38.5038 25.138 39.7003 26.4653L39.7748 26.548H39.886H45.9205H46.2157L46.1671 26.2568C45.6978 23.4452 44.3836 20.8514 42.3265 18.7965C39.6343 16.1066 36.0996 14.7606 32.5637 14.7606C29.0279 14.7606 25.4932 16.1043 22.8008 18.7966ZM34.8704 28.3072C33.4877 28.3072 32.3612 29.4311 32.3612 30.8165C32.3612 32.2019 33.4877 33.3258 34.8704 33.3258C36.2532 33.3258 37.3797 32.2019 37.3797 30.8165C37.3797 29.4311 36.2532 28.3072 34.8704 28.3072ZM62.2317 28.5572C62.2317 27.1719 61.1052 26.048 59.7224 26.048C58.3397 26.048 57.2132 27.1719 57.2132 28.5572C57.2132 29.9426 58.3397 31.0665 59.7224 31.0665C61.1052 31.0665 62.2317 29.9426 62.2317 28.5572ZM23.8241 48.8907C23.8241 47.5053 22.6976 46.3814 21.3148 46.3814C19.932 46.3814 18.8055 47.5053 18.8055 48.8907C18.8055 50.276 19.932 51.4 21.3148 51.4C22.6976 51.4 23.8241 50.276 23.8241 48.8907Z" fill="#82607D" stroke="white" stroke-width="0.5"/>
</svg>
