<svg width="72" height="72" viewBox="0 0 72 72" fill="none" xmlns="http://www.w3.org/2000/svg">
<path d="M66.3542 66.7303C65.7009 66.7303 65.0827 66.3427 64.8256 65.7055L64.1484 63.5179C62.039 58.374 59.6131 55.7774 56.2369 55.1682C55.1199 54.9667 53.5 55.0263 51.8212 55.0263C50 55 48.8887 54.8976 47.3877 55.1684C44.0118 55.7776 41.5856 58.3752 39.473 63.5262L38.7316 65.7136C38.3899 66.5469 37.4305 66.9486 36.5879 66.6104C35.7457 66.2723 35.34 65.3223 35.6817 64.4888L36.4231 62.3012C38.2319 57.8908 41.4406 52.0636 48.5047 51.7794C48.5672 51.7723 48.6304 51.7686 48.6941 51.7686H54.9305C54.9942 51.7686 55.0574 51.7723 55.1199 51.7794C62.1849 52.0636 65.3931 57.891 67.2015 62.301L67.882 64.4969C68.2194 65.3323 67.8086 66.28 66.9643 66.6135C66.7642 66.6927 66.5574 66.7303 66.3542 66.7303ZM5.64549 66.7303C5.43936 66.7303 5.22995 66.6919 5.02733 66.6104C4.18515 66.2723 3.77948 65.3223 4.12117 64.4888L4.80064 62.4521C6.63002 57.9912 9.91152 52.0606 17.2595 52.0606H22.7086C26.6695 52.0606 29.9296 53.8037 32.3984 57.2418C32.4391 57.2984 32.6261 57.5506 32.8532 57.8566C33.6396 58.9175 33.8486 59.2018 33.9175 59.3048C34.4191 60.0552 34.2109 61.0654 33.4526 61.5618C32.6975 62.0561 31.6823 61.8537 31.1785 61.111C31.09 60.9852 30.5114 60.2047 30.1995 59.7836C29.9545 59.4534 29.7535 59.182 29.7145 59.1272C28.5758 57.5415 27.3031 56.4726 25.822 55.8804C23.6861 55.0263 21.7114 54.9924 20.1921 55.0263C17.9758 55.0263 16.2778 55.0263 14.1471 55.8812C11.578 56.912 9.60439 59.399 7.8505 63.6767L7.17104 65.7134C6.91143 66.3464 6.29553 66.7303 5.64549 66.7303ZM19.9843 49.6702C15.3799 49.6702 11.6339 45.9628 11.6339 41.4056C11.6339 37.652 14.1753 34.4752 17.6444 33.4715C17.6613 33.4662 17.6781 33.4609 17.6954 33.4562C18.2451 33.3013 18.8101 33.2031 19.3822 33.1626C19.3847 33.1622 19.388 33.1618 19.3907 33.162C19.3946 33.1616 19.3972 33.1614 19.4001 33.1614C19.4036 33.1612 19.4069 33.1612 19.4104 33.1606C19.4139 33.1606 19.4162 33.1604 19.4195 33.16C19.4238 33.1602 19.4267 33.1596 19.43 33.1594C19.4328 33.1586 19.4355 33.159 19.4384 33.1588C19.445 33.159 19.4509 33.1582 19.4573 33.1575C19.4845 33.1557 19.5114 33.1543 19.5388 33.1531C19.5476 33.1527 19.5569 33.152 19.5657 33.1516C19.5686 33.1518 19.5772 33.1508 19.5836 33.1506C19.5836 33.1506 19.589 33.1506 19.5921 33.1502C19.5956 33.1498 19.5988 33.15 19.6023 33.1498C19.6052 33.1496 19.6071 33.1496 19.6104 33.1494C19.6128 33.1494 19.6149 33.1492 19.618 33.1492C19.6211 33.1486 19.6244 33.1488 19.627 33.1488C19.6301 33.1484 19.6326 33.148 19.6365 33.1484C19.6388 33.148 19.6408 33.1478 19.6437 33.148C19.6501 33.1476 19.6566 33.1492 19.6628 33.1472C19.7649 33.1433 19.8671 33.1415 19.9695 33.1413C19.9722 33.1415 19.9743 33.1413 19.9767 33.1413C19.9792 33.1413 19.9841 33.1413 19.9841 33.1413C19.9924 33.1413 20.0012 33.1413 20.0092 33.1413C20.0136 33.1413 20.0185 33.1411 20.0224 33.1413C20.0263 33.1415 20.0321 33.1417 20.0356 33.1415C20.0403 33.1415 20.0454 33.1417 20.0498 33.1415H20.0549C24.1477 33.1748 27.559 36.0895 28.2196 40.033C28.2953 40.4795 28.3348 40.938 28.3348 41.4056C28.335 45.9628 24.589 49.6702 19.9843 49.6702ZM17.0242 37.3477C15.7535 38.2581 14.9253 39.738 14.9253 41.4058C14.9253 44.1669 17.1947 46.413 19.9843 46.413C22.3488 46.413 24.3397 44.7993 24.8914 42.6262C21.3163 42.6463 18.2422 40.4905 17.0242 37.3477ZM20.1921 36.403C20.9534 38.1066 22.6374 39.2848 24.604 39.3646C23.8398 37.6775 22.1587 36.4822 20.1921 36.403ZM51.8121 49.2934C47.1521 49.2934 43.3609 45.541 43.3609 40.9288C43.3609 36.3169 47.1521 32.5647 51.8121 32.5647C52.3696 32.5647 52.9149 32.6184 53.4428 32.721C53.4771 32.7267 53.5117 32.7337 53.546 32.7418C57.3774 33.5356 60.2637 36.905 60.2637 40.929C60.2637 45.541 56.4723 49.2934 51.8121 49.2934ZM48.8887 36.7228C47.5389 37.6447 46.6523 39.1865 46.6523 40.9288C46.6523 43.7449 48.9669 46.0359 51.8121 46.0359C54.6575 46.0359 56.9724 43.7449 56.9724 40.9288C56.9724 38.8335 55.6906 37.0288 53.8622 36.2424C53.1719 37.1223 52.3089 37.8599 51.3178 38.4104C50.5252 38.851 49.5221 38.5718 49.0772 37.7874C48.8861 37.4511 48.8291 37.0761 48.8887 36.7228ZM12.8301 32.2642C12.5426 32.2642 12.255 32.1897 11.9982 32.0406C11.4943 31.7483 11.1845 31.2137 11.1845 30.6355V15.96C11.1845 13.1075 13.5294 10.7869 16.4116 10.7869H22.25C23.1589 10.7869 23.8957 11.5162 23.8957 12.4157C23.8957 13.3151 23.1589 14.0444 22.25 14.0444H16.4116C15.3443 14.0444 14.4758 14.9037 14.4758 15.96V27.8558L16.7417 26.599C16.9876 26.4626 17.2646 26.3912 17.5463 26.3912H31.8263C32.7351 26.3912 33.472 27.1204 33.472 28.0199C33.472 28.9194 32.7351 29.6486 31.8263 29.6486H17.9758L13.6345 32.0563C13.3845 32.195 13.1072 32.2642 12.8301 32.2642ZM51.8212 28.8905C51.3671 28.8905 50.9228 28.7044 50.6048 28.3593L45.539 22.8617H32.2322C29.3501 22.8617 27.0055 20.5412 27.0055 17.6889V9.17305C27.0055 6.32053 29.3501 4 32.2322 4H48.2391C51.1213 4 53.4662 6.32053 53.4662 9.17305V27.2617C53.4662 27.9342 53.0488 28.5374 52.4152 28.7803C52.2219 28.8546 52.0205 28.8905 51.8212 28.8905ZM32.2322 7.25746C31.1649 7.25746 30.2968 8.11682 30.2968 9.17305V17.6887C30.2968 18.7449 31.1651 19.6041 32.2322 19.6041H46.2653C46.7282 19.6041 47.1696 19.7969 47.4813 20.1352L50.1751 23.0584V9.17305C50.1751 8.11682 49.3065 7.25746 48.2393 7.25746H32.2322ZM21.9207 20.2012H18.935C18.0262 20.2012 17.2893 19.4719 17.2893 18.5725C17.2893 17.673 18.0262 16.9437 18.935 16.9437H21.9207C22.8295 16.9437 23.5664 17.673 23.5664 18.5725C23.5664 19.4719 22.8295 20.2012 21.9207 20.2012ZM45.3653 13.5093H38.5726C37.6637 13.5093 36.9269 12.7801 36.9269 11.8806C36.9269 10.9811 37.6637 10.2519 38.5726 10.2519H45.3653C46.2742 10.2519 47.011 10.9811 47.011 11.8806C47.011 12.7801 46.2742 13.5093 45.3653 13.5093Z" fill="#DE6F7E"/>
<path d="M55.35 59.4H57.2498C57.2499 59.4 57.2499 59.4 57.25 59.4C57.3904 59.3999 57.5301 59.4252 57.6612 59.475C57.7925 59.5248 57.9136 59.5985 58.017 59.6932C58.1204 59.7881 58.2042 59.9023 58.262 60.0303C58.3199 60.1584 58.3501 60.297 58.35 60.4377M55.35 59.4L58 60.4375M55.35 59.4V59.0625L55.35 59.0621C55.3492 58.4123 55.067 57.7961 54.5768 57.3468C54.0875 56.8983 53.4302 56.6507 52.7504 56.65H52.75L51.25 56.65L51.2496 56.65C50.5698 56.6507 49.9125 56.8983 49.4232 57.3468C48.933 57.7961 48.6508 58.4123 48.65 59.0621V59.0625V59.4H46.7502C46.7501 59.4 46.7501 59.4 46.75 59.4C46.6096 59.3999 46.4699 59.4252 46.3388 59.475C46.2075 59.5248 46.0864 59.5985 45.983 59.6932C45.8796 59.7881 45.7958 59.9023 45.738 60.0303C45.6802 60.1584 45.6499 60.2968 45.65 60.4375C45.65 60.4376 45.65 60.4376 45.65 60.4377L45.65 67.3124C45.65 67.3124 45.65 67.3123 45.65 67.3123L55.35 59.4ZM58.35 60.4377L58 60.4375M58.35 60.4377V60.4375H58M58.35 60.4377V67.3123M58 60.4375V67.3125M58.35 67.3123L58 67.3125M58.35 67.3123V67.3125H58M58.35 67.3123C58.3501 67.453 58.3199 67.5916 58.262 67.7197C58.2042 67.8477 58.1204 67.9619 58.017 68.0568C57.9136 68.1515 57.7925 68.2252 57.6612 68.275C57.5301 68.3248 57.3904 68.3501 57.25 68.35L58 67.3125M45.738 67.7197C45.6802 67.5916 45.6499 67.4532 45.65 67.3125L45.738 67.7197ZM45.738 67.7197C45.7958 67.8477 45.8796 67.9619 45.983 68.0568M45.738 67.7197L45.983 68.0568M45.983 68.0568C46.0864 68.1515 46.2075 68.2252 46.3388 68.275M45.983 68.0568L46.3388 68.275M46.3388 68.275C46.4699 68.3248 46.6096 68.3501 46.75 68.35M46.3388 68.275L46.75 68.35M46.75 68.35C46.7501 68.35 46.7501 68.35 46.7502 68.35M46.75 68.35H46.7502M46.7502 68.35H57.2498H46.7502ZM50.85 59.063C50.85 59.0629 50.85 59.0628 50.85 59.0627C50.8502 58.9835 50.8843 58.9007 50.9565 58.8346C51.0296 58.7676 51.1348 58.7252 51.2502 58.725H52.7498C52.8652 58.7252 52.9704 58.7676 53.0435 58.8346C53.1157 58.9007 53.1498 58.9835 53.15 59.0627C53.15 59.0628 53.15 59.0629 53.15 59.063L53.15 59.4H50.85L50.85 59.063ZM56.15 66.275H47.85V61.475H56.15V66.275Z" fill="#DE6F7E" stroke="#DE6F7E" stroke-width="0.7"/>
<path d="M15.9999 57.6938L15.9999 57.6938C16.704 57.5827 17.5173 57.6876 18.1718 57.9737L18.1718 57.9737C18.6656 58.1896 19.0322 58.4493 19.4727 58.8835L19.227 59.1327L19.4727 58.8835L19.5006 58.911L19.5025 58.9091C19.5025 58.9091 19.5025 58.9091 19.5025 58.9091C19.9599 58.4576 20.3021 58.2094 20.7868 57.9939C21.88 57.5079 23.1062 57.5384 24.1793 58.0767C25.2783 58.6279 26.0396 59.6521 26.2959 60.8992L26.2959 60.8992C26.3372 61.1002 26.3522 61.388 26.3497 61.6572C26.3472 61.9276 26.3267 62.218 26.2828 62.426L26.2828 62.426C26.1969 62.8321 26.102 63.1106 25.9218 63.4854L15.9999 57.6938ZM15.9999 57.6938C14.3547 57.9535 13.0767 59.1845 12.717 60.8381L12.717 60.8381M15.9999 57.6938L12.717 60.8381M18.0648 68.4411C16.5483 67.1587 15.5605 66.2836 14.6545 65.4192C13.7678 64.5731 13.3941 64.1302 13.0932 63.5129L18.0648 68.4411ZM18.0648 68.4411C18.3039 68.6433 18.53 68.8319 18.702 68.973C18.7878 69.0435 18.8611 69.1029 18.9162 69.1466C18.9435 69.1682 18.9678 69.1872 18.9876 69.2021L18.9895 69.2035C19.001 69.2122 19.034 69.2371 19.0666 69.2545L19.0668 69.2545C19.1825 69.3159 19.326 69.3387 19.43 69.3464C19.5356 69.3542 19.6787 69.3521 19.8011 69.3111L19.8012 69.3111C19.917 69.2722 20.0116 69.2065 20.163 69.0864C20.32 68.962 20.5759 68.747 21.0229 68.3691C22.9353 66.7522 24.5452 65.2869 25.1517 64.6039L25.1517 64.6038C25.5195 64.1895 25.7248 63.8951 25.9218 63.4854L18.0648 68.4411ZM12.717 60.8381C12.6694 61.0568 12.6495 61.3523 12.65 61.6327C12.6505 61.9139 12.6717 62.2121 12.7192 62.4371L12.7192 62.4372M12.717 60.8381L12.7192 62.4372M12.7192 62.4372C12.8076 62.8558 12.8956 63.1075 13.0932 63.5129L12.7192 62.4372ZM16.9492 59.5477L16.9492 59.5477C15.8284 59.3526 14.7305 60.1211 14.532 61.2377L14.532 61.2377C14.4218 61.8572 14.5785 62.517 14.978 63.0643C15.1537 63.3049 15.6073 63.7715 16.3184 64.432C17.0205 65.084 17.9516 65.9052 19.0605 66.8475C19.2286 66.9904 19.3839 67.1204 19.501 67.2168C19.5295 67.1933 19.5607 67.1674 19.5943 67.1394C19.781 66.9835 20.0371 66.7658 20.323 66.5203C20.8949 66.0293 21.5817 65.4305 22.0637 64.9986L22.2972 65.2593L22.0637 64.9986C23.0758 64.0918 23.7994 63.3693 24.0301 63.0533L24.0301 63.0533C24.2812 62.7093 24.4483 62.2723 24.4914 61.8457C24.596 60.8101 23.9389 59.8572 22.9318 59.5858C22.7513 59.5372 22.6983 59.5293 22.3997 59.5293C22.1031 59.5293 22.0464 59.5377 21.8775 59.5833C21.6125 59.6549 21.369 59.7686 21.1833 59.9017L21.1832 59.9017C21.1178 59.9486 20.8448 60.1988 20.5742 60.4695C20.4386 60.605 20.3045 60.7343 20.1968 60.8338C20.1433 60.8834 20.0944 60.9273 20.0543 60.9615C20.0344 60.9785 20.0145 60.995 19.9959 61.0093C19.9832 61.0191 19.9517 61.0433 19.9146 61.0624L19.9146 61.0624C19.7938 61.1246 19.6514 61.1435 19.5417 61.1466C19.426 61.1499 19.2915 61.1369 19.1708 61.0957L16.9492 59.5477ZM16.9492 59.5477C17.2772 59.6048 17.5471 59.7144 17.814 59.8974C17.8139 59.8974 17.8139 59.8974 17.814 59.8974C17.8143 59.8976 17.8198 59.9017 17.8322 59.9118C17.8451 59.9222 17.8616 59.9361 17.8818 59.9537C17.9222 59.9888 17.9731 60.0347 18.0314 60.0887C18.1478 60.1966 18.289 60.3324 18.426 60.4692L18.426 60.4692M16.9492 59.5477L18.426 60.4692M18.426 60.4692C18.6178 60.6608 18.7576 60.7964 18.861 60.8884M18.426 60.4692L18.861 60.8884M18.861 60.8884C18.9489 60.9665 19.0555 61.0563 19.1707 61.0957L18.861 60.8884Z" fill="#DE6F7E" stroke="#DE6F7E" stroke-width="0.7"/>
</svg>
