<svg width="72" height="72" viewBox="0 0 72 72" fill="none" xmlns="http://www.w3.org/2000/svg">
<path d="M66.7937 66.1657C66.1403 66.1657 65.5222 65.778 65.265 65.1408L64.5878 62.9532C62.4785 57.8093 60.0525 55.2127 56.6764 54.6035L55.8186 58.656L57.0055 63.5207C57.0677 64.0744 56.8395 64.6213 56.4008 64.9702L53.7526 67.0762C53.4603 67.3087 53.0968 67.4353 52.7218 67.4353H51.7821C51.4073 67.4353 51.0436 67.3087 50.7513 67.0762L48.1028 64.9702C47.6638 64.6213 47.4357 64.0744 47.498 63.5207L48.6852 58.656L47.8271 54.6037C44.4512 55.2129 42.0251 57.8105 39.9124 62.9616L39.171 65.1489C38.8294 65.9822 37.8699 66.3839 37.0273 66.0457C36.1851 65.7076 35.7795 64.7576 36.1212 63.9241L36.8626 61.7366C38.6714 57.3262 41.88 51.499 48.9441 51.2148C49.0067 51.2076 49.0698 51.204 49.1336 51.204H55.3699C55.4337 51.204 55.4969 51.2076 55.5594 51.2148C62.6243 51.499 65.8326 57.3264 67.641 61.7364L68.3215 63.9323C68.6588 64.7676 68.248 65.7153 67.4038 66.0488C67.2037 66.128 66.9969 66.1657 66.7937 66.1657ZM50.869 62.9913L52.252 64.0909L53.6346 62.9915L52.6811 60.206H51.8227L50.869 62.9913ZM51.6863 56.9485H52.8173L53.3439 54.4616H51.1599L51.6863 56.9485ZM59.7355 62.294C58.8267 62.294 58.0898 61.5647 58.0898 60.6653V60.4615C58.0898 59.562 58.8267 58.8327 59.7355 58.8327C60.6444 58.8327 61.3812 59.562 61.3812 60.4615V60.6653C61.3812 61.5647 60.6444 62.294 59.7355 62.294ZM52.2516 48.7287C47.5916 48.7287 43.8004 44.9763 43.8004 40.3641C43.8004 35.7522 47.5916 32 52.2516 32C52.809 32 53.3544 32.0537 53.8822 32.1564C53.9166 32.1621 53.9512 32.169 53.9855 32.1771C57.8169 32.9709 60.7032 36.3404 60.7032 40.3643C60.7032 44.9763 56.9117 48.7287 52.2516 48.7287ZM49.3282 36.1581C47.9783 37.08 47.0917 38.6218 47.0917 40.3641C47.0917 43.1802 49.4064 45.4712 52.2516 45.4712C55.097 45.4712 57.4118 43.1802 57.4118 40.3641C57.4118 38.2688 56.13 36.4641 54.3017 35.6777C53.6113 36.5576 52.7484 37.2952 51.7572 37.8457C50.9646 38.2863 49.9616 38.0072 49.5166 37.2227C49.3255 36.8864 49.2686 36.5114 49.3282 36.1581Z" fill="#DE6F7E"/>
<path fill-rule="evenodd" clip-rule="evenodd" d="M6.71354 7.09131C5.3239 7.42778 4.04505 8.46563 3.38311 9.79397L3 10.5629V31.5536V52.5444L3.34923 53.2412C3.89852 54.3368 4.52302 54.9842 5.58014 55.554L6.55881 56.0813L14.6435 56.1262L22.7282 56.1711V59.4709V62.7707H21.1035H19.4788C17.5323 62.9671 17.5323 65.8036 19.4788 66H26.0549H32.631C34.3901 65.6456 34.3901 63.1312 32.631 62.7768L29.3429 62.7353L26.0549 62.6938L26.0131 59.426L25.9713 56.1582H27.6765H29.3816C31.3282 55.9617 31.3282 53.1253 29.3816 52.9288H18.5351C8.97818 52.9288 7.62754 52.8999 7.17433 52.6863C6.10591 52.1824 6.17198 53.5762 6.17198 31.5536C6.17198 9.531 6.10591 10.9249 7.17433 10.4209C7.63698 10.2029 10.5269 10.1784 35.8699 10.1784C66.2739 10.1784 64.7531 10.1378 65.3363 10.9653C65.5654 11.2904 65.5886 12.7073 65.5886 26.3594V41.3954C65.7753 43.4747 68.8133 43.4747 69 41.3954L68.9576 26.1329C68.9177 11.6887 68.8999 10.8309 68.6282 10.1344C68.2302 9.11488 67.0182 7.84175 66.0172 7.39225L65.2018 7.02595L36.1898 7.00243C20.2332 6.98951 6.96885 7.02949 6.71354 7.09131ZM26.114 13.7647C23.5695 14.7098 22.1818 17.3489 22.946 19.7896L23.187 20.5585L19.9042 23.825L16.6216 27.0916C15.4401 28.6211 17.4025 30.5848 18.932 29.4033L22.2009 26.1572L25.4697 22.9111L26.5746 23.1781C27.6234 23.4313 27.7357 23.4313 28.7842 23.1781L29.8887 22.9113L32.3283 25.3324L34.7678 27.7533L34.5504 28.3656C34.2575 29.1907 34.2762 30.5745 34.5934 31.5505C34.9227 32.5641 35.9766 33.7467 37.0241 34.2784C38.1535 34.8516 39.8088 34.9355 41.0206 34.4811C43.2915 33.6295 44.6249 31.0514 44.0029 28.7156L43.7589 27.7997L46.2081 25.3657L48.6572 22.9317L49.6398 23.1818C50.2837 23.3458 50.868 23.3967 51.3359 23.3297C53.1314 23.0723 54.7765 21.8031 55.3821 20.208C55.8394 19.0036 55.7549 17.3585 55.1782 16.2361C53.3524 12.6828 48.1381 12.6722 46.4172 16.2182C45.7973 17.4955 45.6921 18.3527 46.0061 19.5704L46.2576 20.5469L43.8123 22.9772L41.3668 25.4077L40.3276 25.1527C39.3065 24.9024 38.7427 24.9353 37.3503 25.327C37.1056 25.3959 36.5311 24.9056 34.6067 22.9863L32.1725 20.5585L32.4133 19.7896C33.1035 17.5838 31.9983 15.123 29.8141 14.003C28.9858 13.5783 26.9663 13.4482 26.114 13.7647ZM28.473 17.0317C29.9074 17.7689 29.3199 20.0202 27.6932 20.0202C26.0798 20.0202 25.4425 17.9133 26.8058 17.0871C27.3973 16.7286 27.8538 16.7135 28.473 17.0317ZM51.9078 17.2642C52.6771 17.9825 52.4842 19.4316 51.5637 19.8483C50.0626 20.5282 48.6721 19.1591 49.3537 17.6725C49.7651 16.7752 51.1473 16.5542 51.9078 17.2642ZM40.3794 28.7738C41.1421 29.5317 40.9448 30.8176 39.9872 31.3302C38.9989 31.8592 37.8199 31.2573 37.6359 30.1299C37.3916 28.6343 39.2932 27.6942 40.3794 28.7738ZM9.57606 36.4745V38.1661H11.2007H12.8254V36.4745V34.783H11.2007H9.57606V36.4745ZM9.57606 43.4538C9.57606 45.9733 9.7981 46.7841 10.7868 47.8772C11.1664 48.2967 11.8325 48.8253 12.2671 49.0515C13.0047 49.4356 13.215 49.4667 15.4172 49.5182L17.7768 49.5732V47.957V46.3408L15.7684 46.2901C12.9726 46.2196 12.9227 46.1701 12.8519 43.3915L12.8008 41.3954H11.1885H9.57606V43.4538Z" fill="#DE6F7E"/>
</svg>
