<svg width="72" height="72" viewBox="0 0 72 72" fill="none" xmlns="http://www.w3.org/2000/svg">
<path d="M68.5279 57.8893C67.9438 57.8893 67.3912 57.5501 67.1613 56.9927L66.5559 55.0789C64.6702 50.5788 62.5015 48.3072 59.4833 47.7743L58.7165 51.3196L59.7776 55.5753C59.8331 56.0598 59.6292 56.5382 59.2369 56.8435L56.8696 58.6858C56.6082 58.8892 56.2833 59 55.948 59H55.108C54.7729 59 54.4478 58.8892 54.1865 58.6858L51.8188 56.8435C51.4263 56.5382 51.2224 56.0598 51.2781 55.5753L52.3394 51.3196L51.5723 47.7745C50.2187 48.0135 49.0358 48.6025 47.9725 49.5861C47.5 48.5 47.4991 48.5 46.5 47.0514C48.0647 45.787 50.0413 44.9093 52.5709 44.8097C52.6268 44.8035 52.6833 44.8003 52.7403 44.8003H58.3154C58.3724 44.8003 58.4289 44.8035 58.4848 44.8097C64.8006 45.0583 67.6687 50.1563 69.2854 54.0144L69.8937 55.9354C70.1953 56.6662 69.8281 57.4953 69.0733 57.787C68.8944 57.8563 68.7096 57.8893 68.5279 57.8893ZM54.2917 55.1122L55.528 56.0742L56.764 55.1124L55.9116 52.6755H55.1442L54.2917 55.1122ZM55.0223 49.8258H56.0334L56.5042 47.6502H54.5517L55.0223 49.8258ZM55.5276 42.6348C51.3618 42.6348 47.9725 39.3521 47.9725 35.3172C47.9725 31.2825 51.3618 28 55.5276 28C56.026 28 56.5135 28.047 56.9854 28.1368C57.0161 28.1418 57.047 28.1478 57.0777 28.155C60.5029 28.8494 63.0832 31.7971 63.0832 35.3174C63.0832 39.3521 59.6937 42.6348 55.5276 42.6348ZM52.9143 31.6377C51.7075 32.4442 50.9149 33.793 50.9149 35.3172C50.9149 37.7808 52.9841 39.7851 55.5276 39.7851C58.0713 39.7851 60.1408 37.7808 60.1408 35.3172C60.1408 33.4841 58.9949 31.9054 57.3604 31.2174C56.7432 31.9871 55.9718 32.6324 55.0857 33.114C54.3772 33.4995 53.4805 33.2553 53.0827 32.569C52.9119 32.2748 52.8609 31.9467 52.9143 31.6377Z" fill="#DE6F7E"/>
<path d="M2.97211 57.8893C3.55617 57.8893 4.10879 57.5501 4.33866 56.9927L4.94407 55.0789C6.82977 50.5788 8.99851 48.3072 12.0167 47.7743L12.7835 51.3196L11.7224 55.5753C11.6669 56.0598 11.8708 56.5382 12.2631 56.8435L14.6304 58.6858C14.8918 58.8892 15.2167 59 15.552 59H16.392C16.7271 59 17.0522 58.8892 17.3135 58.6858L19.6812 56.8435C20.0737 56.5382 20.2776 56.0598 20.2219 55.5753L19.1606 51.3196L19.9277 47.7745C21.2813 48.0135 22.4642 48.6025 23.5275 49.5861C24 48.5 24.0009 48.5 25 47.0514C23.4353 45.787 21.4587 44.9093 18.9291 44.8097C18.8732 44.8035 18.8167 44.8003 18.7597 44.8003H13.1846C13.1276 44.8003 13.0711 44.8035 13.0152 44.8097C6.69939 45.0583 3.83129 50.1563 2.21463 54.0144L1.60628 55.9354C1.30469 56.6662 1.67193 57.4953 2.42666 57.787C2.60559 57.8563 2.79041 57.8893 2.97211 57.8893ZM17.2083 55.1122L15.972 56.0742L14.736 55.1124L15.5884 52.6755H16.3558L17.2083 55.1122ZM16.4777 49.8258H15.4666L14.9958 47.6502H16.9483L16.4777 49.8258ZM15.9724 42.6348C20.1382 42.6348 23.5275 39.3521 23.5275 35.3172C23.5275 31.2825 20.1382 28 15.9724 28C15.474 28 14.9865 28.047 14.5146 28.1368C14.4839 28.1418 14.453 28.1478 14.4223 28.155C10.9971 28.8494 8.41683 31.7971 8.41683 35.3174C8.41683 39.3521 11.8063 42.6348 15.9724 42.6348ZM18.5857 31.6377C19.7925 32.4442 20.5851 33.793 20.5851 35.3172C20.5851 37.7808 18.5159 39.7851 15.9724 39.7851C13.4287 39.7851 11.3592 37.7808 11.3592 35.3172C11.3592 33.4841 12.5051 31.9054 14.1396 31.2174C14.7568 31.9871 15.5282 32.6324 16.4143 33.114C17.1228 33.4995 18.0195 33.2553 18.4173 32.569C18.5881 32.2748 18.6391 31.9467 18.5857 31.6377Z" fill="#DE6F7E"/>
<path d="M10 48.5L7.5 56L14.5 59.5L19 59C22.1667 55.6667 27 48.8 21 48C15 47.2 11.1667 48 10 48.5Z" fill="white"/>
<path d="M52.1736 57.6026C51.4485 57.6026 50.7625 57.176 50.4771 56.4746L49.7256 54.067C47.3847 48.4056 44.6925 45.5478 40.9458 44.8774L39.9939 49.3375L41.3111 54.6915C41.38 55.301 41.1269 55.9029 40.6399 56.2869L37.7011 58.6047C37.3767 58.8606 36.9734 59 36.5572 59H35.5144C35.0984 59 34.6948 58.8606 34.3704 58.6047L31.4312 56.2869C30.944 55.9029 30.6908 55.301 30.76 54.6915L32.0775 49.3375L31.1253 44.8776C27.3788 45.548 24.6864 48.407 22.3418 54.0762L21.5191 56.4836C21.1399 57.4007 20.0752 57.8428 19.1401 57.4706C18.2055 57.0985 17.7553 56.0529 18.1345 55.1356L18.9572 52.728C20.9646 47.8739 24.5254 41.4605 32.3649 41.1477C32.4343 41.1399 32.5044 41.1358 32.5751 41.1358H39.496C39.5667 41.1358 39.6368 41.1399 39.7062 41.1477C47.5466 41.4605 51.107 47.8741 53.1139 52.7277L53.8691 55.1446C54.2435 56.0639 53.7876 57.107 52.8507 57.474C52.6285 57.5612 52.3991 57.6026 52.1736 57.6026ZM34.501 54.109L36.0358 55.3192L37.5701 54.1092L36.512 51.0434H35.5593L34.501 54.109ZM35.408 47.4582H36.6631L37.2475 44.7212H34.8238L35.408 47.4582ZM44.3407 53.3415C43.3321 53.3415 42.5144 52.5388 42.5144 51.5489V51.3246C42.5144 50.3347 43.3321 49.532 44.3407 49.532C45.3493 49.532 46.167 50.3347 46.167 51.3246V51.5489C46.167 52.5388 45.3493 53.3415 44.3407 53.3415ZM36.0353 38.4116C30.8639 38.4116 26.6565 34.2817 26.6565 29.2056C26.6565 24.1296 30.8639 20 36.0353 20C36.654 20 37.2592 20.0592 37.845 20.1721C37.8831 20.1784 37.9215 20.186 37.9596 20.1949C42.2115 21.0686 45.4146 24.777 45.4146 29.2058C45.4146 34.2817 41.207 38.4116 36.0353 38.4116ZM32.7911 24.5764C31.2931 25.591 30.3091 27.2879 30.3091 29.2056C30.3091 32.3049 32.8779 34.8264 36.0353 34.8264C39.193 34.8264 41.762 32.3049 41.762 29.2056C41.762 26.8994 40.3395 24.9132 38.3105 24.0476C37.5443 25.0161 36.5866 25.8279 35.4867 26.4338C34.6071 26.9187 33.494 26.6115 33.0002 25.7481C32.7881 25.378 32.7249 24.9652 32.7911 24.5764Z" fill="#DE6F7E"/>
<path d="M36.5 26.5L29.5 23.5V19L43 20L44 24L40 25L36.5 26.5Z" fill="white"/>
<path d="M38.6823 12.1001L38.6814 12.0999C36.9958 11.6332 35.0662 11.6332 33.3777 12.1007L33.3773 12.1008L24.7848 14.4958C24.7847 14.4958 24.7847 14.4958 24.7846 14.4958C23.8741 14.7479 23.1766 15.2485 22.8896 15.9104C22.8012 16.073 22.75 16.2552 22.75 16.4488V21.1668C22.75 21.9603 23.5552 22.5014 24.4054 22.5014C25.2556 22.5014 26.0608 21.9603 26.0608 21.1668V19.0027L27.7769 19.4745C27.48 20.2705 27.0365 21.9542 27.0365 24.9087C27.0365 25.6479 27.7431 26.1778 28.5367 26.2375L28.539 26.2377L28.5466 26.2383L28.5754 26.2408C28.6005 26.2431 28.6372 26.2466 28.6848 26.2516C28.78 26.2616 28.9187 26.2774 29.0947 26.301C29.447 26.3482 29.9485 26.4265 30.5509 26.5512C31.7528 26.8 33.3509 27.2324 34.9635 27.9681C35.2602 28.1545 35.6229 28.25 35.9855 28.25C35.9895 28.25 35.9933 28.2499 35.9963 28.2498C35.998 28.2498 35.9994 28.2498 36.0004 28.2497L36.0038 28.2498L36.0147 28.25C36.3771 28.25 36.7398 28.1546 37.0364 27.9682C38.6362 27.2388 40.2349 26.8063 41.4406 26.5559C42.0448 26.4304 42.549 26.3509 42.9033 26.3027C43.0804 26.2786 43.2199 26.2623 43.3156 26.252C43.3635 26.2469 43.4004 26.2433 43.4256 26.2409L43.4544 26.2382C43.4601 26.2377 43.4633 26.2375 43.4641 26.2374C44.2573 26.1774 44.9636 25.6477 44.9636 24.9087C44.9636 21.9607 44.522 20.278 44.2252 19.4799L47.2153 18.652C48.4046 18.3228 49.25 17.5561 49.25 16.5739C49.25 15.5922 48.4051 14.8253 47.2216 14.4975C47.2214 14.4975 47.2213 14.4974 47.2212 14.4974L38.6823 12.1001ZM38.6484 21.0238H38.6487L38.6815 21.0148L41.0879 20.3485C41.2558 20.8368 41.5415 21.9163 41.6275 23.7786C40.278 24.0033 38.1865 24.465 36 25.3827C33.8135 24.4651 31.722 24.0033 30.3725 23.7786C30.4591 21.9013 30.7487 20.8198 30.916 20.3373L33.3805 21.0148C33.3806 21.0148 33.3807 21.0148 33.3807 21.0148C34.2249 21.2485 35.1287 21.3648 36.0309 21.3648C36.9216 21.3648 37.8136 21.2515 38.6484 21.0238ZM34.4601 18.4902L34.4596 18.4901L31.8887 17.7834H36.1253C36.9755 17.7834 37.7807 17.2423 37.7807 16.4488C37.7807 15.6554 36.9755 15.1142 36.1253 15.1142H32.7027L34.4631 14.6235C34.4631 14.6235 34.4632 14.6235 34.4633 14.6235C35.443 14.3523 36.6189 14.3523 37.5924 14.6218C37.5926 14.6218 37.5928 14.6219 37.5929 14.6219L44.5347 16.5708L37.5989 18.4911C37.5989 18.4911 37.5989 18.4911 37.5989 18.4911C36.6191 18.7623 35.4431 18.7624 34.4601 18.4902Z" fill="#DE6F7E" stroke="#DE6F7E" stroke-width="0.5"/>
</svg>
