<svg width="72" height="72" viewBox="0 0 72 72" fill="none" xmlns="http://www.w3.org/2000/svg">
<path d="M68.5279 52.8893C67.9438 52.8893 67.3912 52.5501 67.1613 51.9927L66.5559 50.0789C64.6702 45.5788 62.5015 43.3072 59.4833 42.7743C58.3154 42.5681 57 42.5 55.5276 42.5C54.0553 42.5 52.926 42.5355 51.5723 42.7745C50.2187 43.0135 49.0358 43.6025 47.9725 44.5861C47.5 43.5 47.4991 43.5 46.5 42.0514C48.0647 40.787 50.0413 39.9093 52.5709 39.8097C52.6268 39.8035 52.6833 39.8003 52.7403 39.8003H58.3154C58.3724 39.8003 58.4289 39.8035 58.4848 39.8097C64.8006 40.0583 67.6687 45.1563 69.2854 49.0144L69.8937 50.9354C70.1953 51.6662 69.8281 52.4953 69.0733 52.787C68.8944 52.8563 68.7096 52.8893 68.5279 52.8893ZM55.5276 37.6348C51.3618 37.6348 47.9725 34.3521 47.9725 30.3172C47.9725 26.2825 51.3618 23 55.5276 23C56.026 23 56.5135 23.047 56.9854 23.1368C57.0161 23.1418 57.047 23.1478 57.0777 23.155C60.5029 23.8494 63.0832 26.7971 63.0832 30.3174C63.0832 34.3521 59.6937 37.6348 55.5276 37.6348ZM52.9143 26.6377C51.7075 27.4442 50.9149 28.793 50.9149 30.3172C50.9149 32.7808 52.9841 34.7851 55.5276 34.7851C58.0713 34.7851 60.1408 32.7808 60.1408 30.3172C60.1408 28.4841 58.9949 26.9054 57.3604 26.2174C56.7432 26.9871 55.9718 27.6324 55.0857 28.114C54.3772 28.4995 53.4805 28.2553 53.0827 27.569C52.9119 27.2748 52.8609 26.9467 52.9143 26.6377Z" fill="#DE6F7E"/>
<path d="M2.97211 52.8893C3.55617 52.8893 4.10879 52.5501 4.33866 51.9927L4.94407 50.0789C6.82977 45.5788 8.99851 43.3072 12.0167 42.7743C13.1846 42.5681 14.5 42.5 15.9724 42.5C17.4447 42.5 18.574 42.5355 19.9277 42.7745C21.2813 43.0135 22.4642 43.6025 23.5275 44.5861C24 43.5 24.0009 43.5 25 42.0514C23.4353 40.787 21.4587 39.9093 18.9291 39.8097C18.8732 39.8035 18.8167 39.8003 18.7597 39.8003H13.1846C13.1276 39.8003 13.0711 39.8035 13.0152 39.8097C6.69939 40.0583 3.83129 45.1563 2.21463 49.0144L1.60628 50.9354C1.30469 51.6662 1.67193 52.4953 2.42666 52.787C2.60559 52.8563 2.79041 52.8893 2.97211 52.8893ZM15.9724 37.6348C20.1382 37.6348 23.5275 34.3521 23.5275 30.3172C23.5275 26.2825 20.1382 23 15.9724 23C15.474 23 14.9865 23.047 14.5146 23.1368C14.4839 23.1418 14.453 23.1478 14.4223 23.155C10.9971 23.8494 8.41683 26.7971 8.41683 30.3174C8.41683 34.3521 11.8063 37.6348 15.9724 37.6348ZM18.5857 26.6377C19.7925 27.4442 20.5851 28.793 20.5851 30.3172C20.5851 32.7808 18.5159 34.7851 15.9724 34.7851C13.4287 34.7851 11.3592 32.7808 11.3592 30.3172C11.3592 28.4841 12.5051 26.9054 14.1396 26.2174C14.7568 26.9871 15.5282 27.6324 16.4143 28.114C17.1228 28.4995 18.0195 28.2553 18.4173 27.569C18.5881 27.2748 18.6391 26.9467 18.5857 26.6377Z" fill="#DE6F7E"/>
<path d="M52.1736 52.6026C51.4485 52.6026 50.7625 52.176 50.4771 51.4746L49.7256 49.067C47.3847 43.4056 44.6925 40.5478 40.9458 39.8774C39 39.5 37.5 39.5 36.0353 39.5C34 39.5 33.0002 39.5 31.1253 39.8776C27.3788 40.548 24.6864 43.407 22.3418 49.0762L21.5191 51.4836C21.1399 52.4007 20.0752 52.8428 19.1401 52.4706C18.2055 52.0985 17.7553 51.0529 18.1345 50.1356L18.9572 47.728C20.9646 42.8739 24.5254 36.4605 32.3649 36.1477C32.4343 36.1399 32.5044 36.1358 32.5751 36.1358H39.496C39.5667 36.1358 39.6368 36.1399 39.7062 36.1477C47.5466 36.4605 51.107 42.8741 53.1139 47.7277L53.8691 50.1446C54.2435 51.0639 53.7876 52.107 52.8507 52.474C52.6285 52.5612 52.3991 52.6026 52.1736 52.6026ZM36.0353 33.4116C30.8639 33.4116 26.6565 29.2817 26.6565 24.2056C26.6565 19.1296 30.8639 15 36.0353 15C36.654 15 37.2592 15.0592 37.845 15.1721C37.8831 15.1784 37.9215 15.186 37.9596 15.1949C42.2115 16.0686 45.4146 19.777 45.4146 24.2058C45.4146 29.2817 41.207 33.4116 36.0353 33.4116ZM32.7911 19.5764C31.2931 20.591 30.3091 22.2879 30.3091 24.2056C30.3091 27.3049 32.8779 29.8264 36.0353 29.8264C39.193 29.8264 41.762 27.3049 41.762 24.2056C41.762 21.8994 40.3395 19.9132 38.3105 19.0476C37.5443 20.0161 36.5866 20.8279 35.4867 21.4338C34.6071 21.9187 33.494 21.6115 33.0002 20.7481C32.7881 20.378 32.7249 19.9652 32.7911 19.5764Z" fill="#DE6F7E"/>
<path d="M39.3264 65.2039L39.3348 65.2087L39.3435 65.213C39.4662 65.2744 39.5748 65.3131 39.6925 65.3327C39.7965 65.3501 39.8974 65.35 39.9874 65.35L40 65.35L40.0107 65.35C40.103 65.35 40.2244 65.3501 40.337 65.334C40.441 65.3191 40.592 65.284 40.7176 65.1753C41.0861 64.9208 41.35 64.5247 41.35 64V57.043C42.6514 55.6896 43.35 53.9403 43.35 52C43.35 47.9067 40.0933 44.65 36 44.65C31.9067 44.65 28.65 47.9067 28.65 52C28.65 53.8402 29.3469 55.683 30.65 57.0428V64C30.65 64.5358 30.9252 64.9374 31.3059 65.1912C31.7198 65.4672 32.267 65.4696 32.6833 65.1984L36 63.3031L39.3264 65.2039ZM38.3565 58.813C38.4101 58.7863 38.4659 58.7698 38.55 58.7483V61.6469L36.671 60.5946L36.6639 60.5906L36.6565 60.587C36.5338 60.5256 36.4252 60.4869 36.3075 60.4673C36.2035 60.4499 36.1026 60.45 36.0126 60.45L36 60.45L35.9874 60.45C35.8974 60.45 35.7965 60.4499 35.6925 60.4673C35.5748 60.4869 35.4662 60.5256 35.3435 60.587L35.3361 60.5906L35.329 60.5946L33.35 61.7029V58.799C33.3686 58.8057 33.3873 58.812 33.4059 58.8176C33.4544 58.8324 33.5242 58.85 33.6 58.85H33.651C34.3326 59.0447 35.0633 59.25 35.9 59.25C36.7064 59.25 37.4369 59.152 38.1705 58.85H38.2H38.2826L38.3565 58.813ZM39.0784 55.4291L39.0699 55.4361L39.0618 55.4435C37.7683 56.6446 35.8152 56.9278 34.2333 56.2764L34.23 56.275C33.7649 56.089 33.3077 55.8127 32.9475 55.4525L32.9351 55.4402L32.9216 55.4291C31.9103 54.6016 31.35 53.305 31.35 52C31.35 49.3933 33.3933 47.35 36 47.35C38.6067 47.35 40.65 49.3933 40.65 52C40.65 53.305 40.0897 54.6016 39.0784 55.4291Z" fill="#DE6F7E" stroke="#DE6F7E" stroke-width="0.7"/>
</svg>
