<svg width="72" height="72" viewBox="0 0 72 72" fill="none" xmlns="http://www.w3.org/2000/svg">
<path d="M66.3542 66.7303C65.7009 66.7303 65.0827 66.3427 64.8256 65.7055L64.1484 63.5179C62.039 58.374 59.6131 55.7774 56.2369 55.1682L55.3791 59.2207L56.5661 64.0853C56.6282 64.6391 56.4001 65.186 55.9613 65.5349L53.3132 67.6409C53.0209 67.8734 52.6574 68 52.2824 68H51.3427C50.9679 68 50.6042 67.8734 50.3119 67.6409L47.6633 65.5349C47.2243 65.186 46.9962 64.6391 47.0585 64.0853L48.2457 59.2207L47.3877 55.1684C44.0118 55.7776 41.5856 58.3752 39.473 63.5262L38.7316 65.7136C38.3899 66.5469 37.4305 66.9486 36.5879 66.6104C35.7457 66.2723 35.34 65.3223 35.6817 64.4888L36.4231 62.3012C38.2319 57.8908 41.4406 52.0636 48.5047 51.7794C48.5672 51.7723 48.6304 51.7686 48.6941 51.7686H54.9305C54.9942 51.7686 55.0574 51.7723 55.1199 51.7794C62.1849 52.0636 65.3931 57.891 67.2015 62.301L67.882 64.4969C68.2194 65.3323 67.8086 66.28 66.9643 66.6135C66.7642 66.6927 66.5574 66.7303 66.3542 66.7303ZM50.4295 63.556L51.8125 64.6556L53.1951 63.5562L52.2416 60.7706H51.3832L50.4295 63.556ZM51.2468 57.5132H52.3778L52.9044 55.0263H50.7204L51.2468 57.5132ZM5.64549 66.7303C5.43936 66.7303 5.22995 66.6919 5.02733 66.6104C4.18515 66.2723 3.77948 65.3223 4.12117 64.4888L4.80064 62.4521C6.63002 57.9912 9.91152 52.0606 17.2595 52.0606H22.7086C26.6695 52.0606 29.9296 53.8037 32.3984 57.2418C32.4391 57.2984 32.6261 57.5506 32.8532 57.8566C33.6396 58.9175 33.8486 59.2018 33.9175 59.3048C34.4191 60.0552 34.2109 61.0654 33.4526 61.5618C32.6975 62.0561 31.6823 61.8537 31.1785 61.111C31.09 60.9852 30.5114 60.2046 30.1995 59.7836C29.9545 59.4534 29.7535 59.182 29.7145 59.1272C28.5759 57.5415 27.3031 56.4726 25.822 55.8804L21.3137 61.9946C21.0038 62.4146 20.5099 62.6632 19.9843 62.6632C19.4588 62.6632 18.9648 62.4146 18.655 61.9946L14.1471 55.8812C11.578 56.912 9.60439 59.399 7.8505 63.6767L7.17104 65.7134C6.91143 66.3464 6.29553 66.7303 5.64549 66.7303ZM17.8065 55.3181L19.9843 58.2718L22.1622 55.3181H17.8065ZM59.2961 62.8587C58.3872 62.8587 57.6504 62.1294 57.6504 61.2299V61.0261C57.6504 60.1267 58.3872 59.3974 59.2961 59.3974C60.2049 59.3974 60.9417 60.1267 60.9417 61.0261V61.2299C60.9417 62.1294 60.2049 62.8587 59.2961 62.8587ZM19.9843 49.6702C15.3799 49.6702 11.6339 45.9628 11.6339 41.4056C11.6339 37.652 14.1753 34.4752 17.6444 33.4715C17.6613 33.4662 17.6781 33.4609 17.6954 33.4562C18.2451 33.3013 18.8102 33.2031 19.3822 33.1626C19.3847 33.1622 19.388 33.1618 19.3907 33.162C19.3946 33.1616 19.3972 33.1614 19.4001 33.1614C19.4036 33.1612 19.4069 33.1612 19.4104 33.1606C19.4139 33.1606 19.4162 33.1604 19.4195 33.16C19.4238 33.1602 19.4267 33.1596 19.43 33.1594C19.4328 33.1586 19.4355 33.159 19.4384 33.1588C19.445 33.159 19.4509 33.1582 19.4573 33.1575C19.4845 33.1557 19.5114 33.1543 19.5388 33.1531C19.5476 33.1527 19.5569 33.152 19.5657 33.1516C19.5686 33.1518 19.5772 33.1508 19.5836 33.1506C19.5836 33.1506 19.589 33.1506 19.5921 33.1502C19.5956 33.1498 19.5988 33.15 19.6023 33.1498C19.6052 33.1496 19.6071 33.1496 19.6104 33.1494C19.6128 33.1494 19.6149 33.1492 19.618 33.1492C19.6211 33.1486 19.6244 33.1488 19.627 33.1488C19.6301 33.1484 19.6326 33.148 19.6365 33.1484C19.6388 33.148 19.6408 33.1478 19.6437 33.148C19.6501 33.1476 19.6566 33.1492 19.6628 33.1472C19.7649 33.1433 19.8671 33.1415 19.9695 33.1413C19.9722 33.1415 19.9743 33.1413 19.9767 33.1413C19.9792 33.1413 19.9841 33.1413 19.9841 33.1413C19.9924 33.1413 20.0012 33.1413 20.0092 33.1413C20.0136 33.1413 20.0185 33.1411 20.0224 33.1413C20.0263 33.1415 20.0321 33.1417 20.0356 33.1415C20.0403 33.1415 20.0454 33.1417 20.0498 33.1415H20.0549C24.1477 33.1748 27.559 36.0895 28.2196 40.033C28.2953 40.4795 28.3348 40.938 28.3348 41.4056C28.335 45.9628 24.589 49.6702 19.9843 49.6702ZM17.0242 37.3477C15.7535 38.2581 14.9253 39.738 14.9253 41.4058C14.9253 44.1669 17.1947 46.413 19.9843 46.413C22.3488 46.413 24.3397 44.7993 24.8914 42.6262C21.3163 42.6463 18.2422 40.4905 17.0242 37.3477ZM20.1921 36.403C20.9534 38.1066 22.6374 39.2848 24.604 39.3646C23.8398 37.6775 22.1587 36.4822 20.1921 36.403ZM51.8121 49.2934C47.1521 49.2934 43.3609 45.541 43.3609 40.9288C43.3609 36.3169 47.1521 32.5647 51.8121 32.5647C52.3696 32.5647 52.9149 32.6184 53.4428 32.721C53.4771 32.7267 53.5117 32.7337 53.546 32.7418C57.3774 33.5356 60.2637 36.905 60.2637 40.929C60.2637 45.541 56.4723 49.2934 51.8121 49.2934ZM48.8887 36.7228C47.5389 37.6447 46.6523 39.1865 46.6523 40.9288C46.6523 43.7449 48.9669 46.0359 51.8121 46.0359C54.6575 46.0359 56.9724 43.7449 56.9724 40.9288C56.9724 38.8335 55.6906 37.0288 53.8622 36.2424C53.1719 37.1223 52.3089 37.8599 51.3178 38.4104C50.5252 38.851 49.5221 38.5718 49.0772 37.7874C48.8861 37.4511 48.8291 37.0761 48.8887 36.7228ZM12.8301 32.2642C12.5426 32.2642 12.255 32.1897 11.9982 32.0406C11.4943 31.7483 11.1845 31.2137 11.1845 30.6355V15.96C11.1845 13.1075 13.5294 10.7869 16.4116 10.7869H22.25C23.1589 10.7869 23.8957 11.5162 23.8957 12.4157C23.8957 13.3151 23.1589 14.0444 22.25 14.0444H16.4116C15.3443 14.0444 14.4758 14.9037 14.4758 15.96V27.8558L16.7417 26.599C16.9876 26.4626 17.2646 26.3912 17.5463 26.3912H31.8263C32.7351 26.3912 33.472 27.1204 33.472 28.0199C33.472 28.9194 32.7351 29.6486 31.8263 29.6486H17.9758L13.6345 32.0563C13.3845 32.195 13.1072 32.2642 12.8301 32.2642ZM51.8212 28.8905C51.3671 28.8905 50.9228 28.7044 50.6048 28.3593L45.539 22.8617H32.2322C29.3501 22.8617 27.0055 20.5412 27.0055 17.6889V9.17305C27.0055 6.32053 29.3501 4 32.2322 4H48.2391C51.1213 4 53.4662 6.32053 53.4662 9.17305V27.2617C53.4662 27.9342 53.0488 28.5374 52.4152 28.7803C52.2219 28.8546 52.0205 28.8905 51.8212 28.8905ZM32.2322 7.25746C31.1649 7.25746 30.2968 8.11682 30.2968 9.17305V17.6887C30.2968 18.7449 31.1651 19.6041 32.2322 19.6041H46.2653C46.7282 19.6041 47.1696 19.7969 47.4813 20.1352L50.1751 23.0584V9.17305C50.1751 8.11682 49.3065 7.25746 48.2393 7.25746H32.2322ZM21.9207 20.2012H18.935C18.0262 20.2012 17.2893 19.4719 17.2893 18.5725C17.2893 17.673 18.0262 16.9437 18.935 16.9437H21.9207C22.8295 16.9437 23.5664 17.673 23.5664 18.5725C23.5664 19.4719 22.8295 20.2012 21.9207 20.2012ZM45.3653 13.5093H38.5726C37.6637 13.5093 36.9269 12.7801 36.9269 11.8806C36.9269 10.9811 37.6637 10.2519 38.5726 10.2519H45.3653C46.2742 10.2519 47.011 10.9811 47.011 11.8806C47.011 12.7801 46.2742 13.5093 45.3653 13.5093Z" fill="#DE6F7E"/>
</svg>
