<svg width="72" height="72" viewBox="0 0 72 72" fill="none" xmlns="http://www.w3.org/2000/svg">
<path d="M68.5279 57.8893C67.9438 57.8893 67.3912 57.5501 67.1613 56.9927L66.5559 55.0789C64.6702 50.5788 62.5015 48.3072 59.4833 47.7743C58.3154 47.5681 57 47.5 55.5276 47.5C54.0553 47.5 52.926 47.5355 51.5723 47.7745C50.2187 48.0135 49.0358 48.6025 47.9725 49.5861C47.5 48.5 47.4991 48.5 46.5 47.0514C48.0647 45.787 50.0413 44.9093 52.5709 44.8097C52.6268 44.8035 52.6833 44.8003 52.7403 44.8003H58.3154C58.3724 44.8003 58.4289 44.8035 58.4848 44.8097C64.8006 45.0583 67.6687 50.1563 69.2854 54.0144L69.8937 55.9354C70.1953 56.6662 69.8281 57.4953 69.0733 57.787C68.8944 57.8563 68.7096 57.8893 68.5279 57.8893ZM55.5276 42.6348C51.3618 42.6348 47.9725 39.3521 47.9725 35.3172C47.9725 31.2825 51.3618 28 55.5276 28C56.026 28 56.5135 28.047 56.9854 28.1368C57.0161 28.1418 57.047 28.1478 57.0777 28.155C60.5029 28.8494 63.0832 31.7971 63.0832 35.3174C63.0832 39.3521 59.6937 42.6348 55.5276 42.6348ZM52.9143 31.6377C51.7075 32.4442 50.9149 33.793 50.9149 35.3172C50.9149 37.7808 52.9841 39.7851 55.5276 39.7851C58.0713 39.7851 60.1408 37.7808 60.1408 35.3172C60.1408 33.4841 58.9949 31.9054 57.3604 31.2174C56.7432 31.9871 55.9718 32.6324 55.0857 33.114C54.3772 33.4995 53.4805 33.2553 53.0827 32.569C52.9119 32.2748 52.8609 31.9467 52.9143 31.6377Z" fill="#DE6F7E"/>
<path d="M2.97211 57.8893C3.55617 57.8893 4.10879 57.5501 4.33866 56.9927L4.94407 55.0789C6.82977 50.5788 8.99851 48.3072 12.0167 47.7743C13.1846 47.5681 14.5 47.5 15.9724 47.5C17.4447 47.5 18.574 47.5355 19.9277 47.7745C21.2813 48.0135 22.4642 48.6025 23.5275 49.5861C24 48.5 24.0009 48.5 25 47.0514C23.4353 45.787 21.4587 44.9093 18.9291 44.8097C18.8732 44.8035 18.8167 44.8003 18.7597 44.8003H13.1846C13.1276 44.8003 13.0711 44.8035 13.0152 44.8097C6.69939 45.0583 3.83129 50.1563 2.21463 54.0144L1.60628 55.9354C1.30469 56.6662 1.67193 57.4953 2.42666 57.787C2.60559 57.8563 2.79041 57.8893 2.97211 57.8893ZM15.9724 42.6348C20.1382 42.6348 23.5275 39.3521 23.5275 35.3172C23.5275 31.2825 20.1382 28 15.9724 28C15.474 28 14.9865 28.047 14.5146 28.1368C14.4839 28.1418 14.453 28.1478 14.4223 28.155C10.9971 28.8494 8.41683 31.7971 8.41683 35.3174C8.41683 39.3521 11.8063 42.6348 15.9724 42.6348ZM18.5857 31.6377C19.7925 32.4442 20.5851 33.793 20.5851 35.3172C20.5851 37.7808 18.5159 39.7851 15.9724 39.7851C13.4287 39.7851 11.3592 37.7808 11.3592 35.3172C11.3592 33.4841 12.5051 31.9054 14.1396 31.2174C14.7568 31.9871 15.5282 32.6324 16.4143 33.114C17.1228 33.4995 18.0195 33.2553 18.4173 32.569C18.5881 32.2748 18.6391 31.9467 18.5857 31.6377Z" fill="#DE6F7E"/>
<path d="M52.1736 57.6026C51.4485 57.6026 50.7625 57.176 50.4771 56.4746L49.7256 54.067C47.3847 48.4056 44.6925 45.5478 40.9458 44.8774C39 44.5 37.5 44.5 36.0353 44.5C34 44.5 33.0002 44.5 31.1253 44.8776C27.3788 45.548 24.6864 48.407 22.3418 54.0762L21.5191 56.4836C21.1399 57.4007 20.0752 57.8428 19.1401 57.4706C18.2055 57.0985 17.7553 56.0529 18.1345 55.1356L18.9572 52.728C20.9646 47.8739 24.5254 41.4605 32.3649 41.1477C32.4343 41.1399 32.5044 41.1358 32.5751 41.1358H39.496C39.5667 41.1358 39.6368 41.1399 39.7062 41.1477C47.5466 41.4605 51.107 47.8741 53.1139 52.7277L53.8691 55.1446C54.2435 56.0639 53.7876 57.107 52.8507 57.474C52.6285 57.5612 52.3991 57.6026 52.1736 57.6026ZM36.0353 38.4116C30.8639 38.4116 26.6565 34.2817 26.6565 29.2056C26.6565 24.1296 30.8639 20 36.0353 20C36.654 20 37.2592 20.0592 37.845 20.1721C37.8831 20.1784 37.9215 20.186 37.9596 20.1949C42.2115 21.0686 45.4146 24.777 45.4146 29.2058C45.4146 34.2817 41.207 38.4116 36.0353 38.4116ZM32.7911 24.5764C31.2931 25.591 30.3091 27.2879 30.3091 29.2056C30.3091 32.3049 32.8779 34.8264 36.0353 34.8264C39.193 34.8264 41.762 32.3049 41.762 29.2056C41.762 26.8994 40.3395 24.9132 38.3105 24.0476C37.5443 25.0161 36.5866 25.8279 35.4867 26.4338C34.6071 26.9187 33.494 26.6115 33.0002 25.7481C32.7881 25.378 32.7249 24.9652 32.7911 24.5764Z" fill="#DE6F7E"/>
<path d="M32.9999 47.6938L32.9999 47.6938C33.704 47.5827 34.5173 47.6876 35.1718 47.9737L35.1718 47.9737C35.6656 48.1896 36.0322 48.4493 36.4727 48.8835L36.227 49.1327L36.4727 48.8835L36.5006 48.911L36.5025 48.9091C36.5025 48.9091 36.5025 48.9091 36.5025 48.9091C36.9599 48.4576 37.3021 48.2094 37.7868 47.9939C38.88 47.5079 40.1062 47.5384 41.1793 48.0767C42.2783 48.6279 43.0396 49.6521 43.2959 50.8992L43.2959 50.8992C43.3372 51.1002 43.3522 51.388 43.3497 51.6572C43.3472 51.9276 43.3267 52.218 43.2828 52.426L43.2828 52.426C43.1969 52.8321 43.102 53.1106 42.9218 53.4854L32.9999 47.6938ZM32.9999 47.6938C31.3547 47.9535 30.0767 49.1845 29.717 50.8381L29.717 50.8381M32.9999 47.6938L29.717 50.8381M35.0648 58.4411C33.5483 57.1587 32.5605 56.2836 31.6545 55.4192C30.7678 54.5731 30.3941 54.1302 30.0932 53.5129L35.0648 58.4411ZM35.0648 58.4411C35.3039 58.6433 35.53 58.8319 35.702 58.973C35.7878 59.0435 35.8611 59.1029 35.9162 59.1466C35.9435 59.1682 35.9678 59.1872 35.9876 59.2021L35.9895 59.2035C36.001 59.2122 36.034 59.2371 36.0666 59.2545L36.0668 59.2545C36.1825 59.3159 36.326 59.3387 36.43 59.3464C36.5356 59.3542 36.6787 59.3521 36.8011 59.3111L36.8012 59.3111C36.917 59.2722 37.0116 59.2065 37.163 59.0864C37.32 58.962 37.5759 58.747 38.0229 58.3691C39.9353 56.7522 41.5452 55.2869 42.1517 54.6039L42.1517 54.6038C42.5195 54.1895 42.7248 53.8951 42.9218 53.4854L35.0648 58.4411ZM29.717 50.8381C29.6694 51.0568 29.6495 51.3523 29.65 51.6327C29.6505 51.9139 29.6717 52.2121 29.7192 52.4371L29.7192 52.4372M29.717 50.8381L29.7192 52.4372M29.7192 52.4372C29.8076 52.8558 29.8956 53.1075 30.0932 53.5129L29.7192 52.4372ZM33.9492 49.5477L33.9492 49.5477C32.8284 49.3526 31.7305 50.1211 31.532 51.2377L31.532 51.2377C31.4218 51.8572 31.5785 52.517 31.978 53.0643C32.1537 53.3049 32.6073 53.7715 33.3184 54.432C34.0205 55.084 34.9516 55.9052 36.0605 56.8475C36.2286 56.9904 36.3839 57.1204 36.501 57.2168C36.5295 57.1933 36.5607 57.1674 36.5943 57.1394C36.781 56.9835 37.0371 56.7658 37.323 56.5203C37.8949 56.0293 38.5817 55.4305 39.0637 54.9986L39.2972 55.2593L39.0637 54.9986C40.0758 54.0918 40.7994 53.3693 41.0301 53.0533L41.0301 53.0533C41.2812 52.7093 41.4483 52.2723 41.4914 51.8457C41.596 50.8101 40.9389 49.8572 39.9318 49.5858C39.7513 49.5372 39.6983 49.5293 39.3997 49.5293C39.1031 49.5293 39.0464 49.5377 38.8775 49.5833C38.6125 49.6549 38.369 49.7686 38.1833 49.9017L38.1832 49.9017C38.1178 49.9486 37.8448 50.1988 37.5742 50.4695C37.4386 50.605 37.3045 50.7343 37.1968 50.8338C37.1433 50.8834 37.0944 50.9273 37.0543 50.9615C37.0344 50.9785 37.0145 50.995 36.9959 51.0093C36.9832 51.0191 36.9517 51.0433 36.9146 51.0624L36.9146 51.0624C36.7938 51.1246 36.6514 51.1435 36.5417 51.1466C36.426 51.1499 36.2915 51.1369 36.1708 51.0957L33.9492 49.5477ZM33.9492 49.5477C34.2772 49.6048 34.5471 49.7144 34.814 49.8974C34.8139 49.8974 34.8139 49.8974 34.814 49.8974C34.8143 49.8976 34.8198 49.9017 34.8322 49.9118C34.8451 49.9222 34.8616 49.9361 34.8818 49.9537C34.9222 49.9888 34.9731 50.0347 35.0314 50.0887C35.1478 50.1966 35.289 50.3324 35.426 50.4692L35.426 50.4692M33.9492 49.5477L35.426 50.4692M35.426 50.4692C35.6178 50.6608 35.7576 50.7964 35.861 50.8884M35.426 50.4692L35.861 50.8884M35.861 50.8884C35.9489 50.9665 36.0555 51.0563 36.1707 51.0957L35.861 50.8884Z" fill="#DE6F7E" stroke="#DE6F7E" stroke-width="0.7"/>
<path d="M36.5 26.5L29.5 23.5V19L43 20L44 24L40 25L36.5 26.5Z" fill="white"/>
<path d="M38.6823 12.1001L38.6814 12.0999C36.9958 11.6332 35.0662 11.6332 33.3777 12.1007L33.3773 12.1008L24.7848 14.4958C24.7847 14.4958 24.7847 14.4958 24.7846 14.4958C23.8741 14.7479 23.1766 15.2485 22.8896 15.9104C22.8012 16.073 22.75 16.2552 22.75 16.4488V21.1668C22.75 21.9603 23.5552 22.5014 24.4054 22.5014C25.2556 22.5014 26.0608 21.9603 26.0608 21.1668V19.0027L27.7769 19.4745C27.48 20.2705 27.0365 21.9542 27.0365 24.9087C27.0365 25.6479 27.7431 26.1778 28.5367 26.2375L28.539 26.2377L28.5466 26.2383L28.5754 26.2408C28.6005 26.2431 28.6372 26.2466 28.6848 26.2516C28.78 26.2616 28.9187 26.2774 29.0947 26.301C29.447 26.3482 29.9485 26.4265 30.5509 26.5512C31.7528 26.8 33.3509 27.2324 34.9635 27.9681C35.2602 28.1545 35.6229 28.25 35.9855 28.25C35.9895 28.25 35.9933 28.2499 35.9963 28.2498C35.998 28.2498 35.9994 28.2498 36.0004 28.2497L36.0038 28.2498L36.0147 28.25C36.3771 28.25 36.7398 28.1546 37.0364 27.9682C38.6362 27.2388 40.2349 26.8063 41.4406 26.5559C42.0448 26.4304 42.549 26.3509 42.9033 26.3027C43.0804 26.2786 43.2199 26.2623 43.3156 26.252C43.3635 26.2469 43.4004 26.2433 43.4256 26.2409L43.4544 26.2382C43.4601 26.2377 43.4633 26.2375 43.4641 26.2374C44.2573 26.1774 44.9636 25.6477 44.9636 24.9087C44.9636 21.9607 44.522 20.278 44.2252 19.4799L47.2153 18.652C48.4046 18.3228 49.25 17.5561 49.25 16.5739C49.25 15.5922 48.4051 14.8253 47.2216 14.4975C47.2214 14.4975 47.2213 14.4974 47.2212 14.4974L38.6823 12.1001ZM38.6484 21.0238H38.6487L38.6815 21.0148L41.0879 20.3485C41.2558 20.8368 41.5415 21.9163 41.6275 23.7786C40.278 24.0033 38.1865 24.465 36 25.3827C33.8135 24.4651 31.722 24.0033 30.3725 23.7786C30.4591 21.9013 30.7487 20.8198 30.916 20.3373L33.3805 21.0148C33.3806 21.0148 33.3807 21.0148 33.3807 21.0148C34.2249 21.2485 35.1287 21.3648 36.0309 21.3648C36.9216 21.3648 37.8136 21.2515 38.6484 21.0238ZM34.4601 18.4902L34.4596 18.4901L31.8887 17.7834H36.1253C36.9755 17.7834 37.7807 17.2423 37.7807 16.4488C37.7807 15.6554 36.9755 15.1142 36.1253 15.1142H32.7027L34.4631 14.6235C34.4631 14.6235 34.4632 14.6235 34.4633 14.6235C35.443 14.3523 36.6189 14.3523 37.5924 14.6218C37.5926 14.6218 37.5928 14.6219 37.5929 14.6219L44.5347 16.5708L37.5989 18.4911C37.5989 18.4911 37.5989 18.4911 37.5989 18.4911C36.6191 18.7623 35.4431 18.7624 34.4601 18.4902Z" fill="#DE6F7E" stroke="#DE6F7E" stroke-width="0.5"/>
</svg>
