<svg width="72" height="72" viewBox="0 0 72 72" fill="none" xmlns="http://www.w3.org/2000/svg">
<mask id="path-1-outside-1_5461_4716" maskUnits="userSpaceOnUse" x="5" y="2" width="63" height="68" fill="black">
<rect fill="white" x="5" y="2" width="63" height="68"/>
<path fill-rule="evenodd" clip-rule="evenodd" d="M39.6919 3.04379C39.5171 3.07422 38.9736 3.16398 38.4841 3.24316C36.449 3.5724 33.9223 4.62215 32.0029 5.93588C30.0242 7.29023 27.929 9.66067 26.8432 11.7733L26.3296 12.7728H18.9886C10.9955 12.7728 10.9212 12.7786 9.43605 13.521C8.5415 13.9681 7.17871 15.3505 6.73792 16.2578C5.96428 17.8502 6.00026 16.9115 6.00026 35.47C6.00026 50.082 6.02658 52.5412 6.18957 53.176C6.80225 55.5621 8.56858 57.3537 10.9209 57.9752C11.5298 58.136 13.0364 58.1672 20.2029 58.1672H28.758V59.7148C28.758 61.2417 28.7541 61.2623 28.4669 61.2623C27.9746 61.2623 26.6965 61.6444 25.964 62.0105C25.0695 62.4576 23.7067 63.84 23.2659 64.7474C22.8573 65.5884 22.5282 66.8044 22.5282 67.4735C22.5282 68.114 22.7265 68.5239 23.1627 68.7853C23.4899 68.9814 24.5294 69 35.1644 69H46.8076L47.2036 68.6412C48.5987 67.3768 46.7791 63.275 44.2623 62.0105C43.5346 61.6448 42.2567 61.2623 41.763 61.2623C41.4758 61.2623 41.4719 61.2417 41.4719 59.7148V58.1672H50.027C59.3502 58.1672 59.2885 58.1715 60.7938 57.419C61.6884 56.9719 63.0512 55.5895 63.492 54.6822C64.1545 53.3185 64.2296 52.7385 64.2296 48.9865V45.5343L64.7129 45.2841C66.3621 44.4308 67.3214 42.3261 66.9016 40.4823C66.6782 39.5019 66.2939 38.8974 65.1925 37.7945L64.2296 36.8305V27.6659C64.2296 17.6754 64.2371 17.7916 63.492 16.2578C63.3025 15.8677 62.7777 15.1752 62.3195 14.7103C61.0049 13.377 59.5119 12.776 57.4964 12.769L56.4106 12.7652L55.8385 11.7136C53.5199 7.45182 49.543 4.43554 44.8119 3.35072C43.7436 3.10582 40.4643 2.90915 39.6919 3.04379ZM43.4953 5.74888C46.6052 6.26047 49.5781 7.86243 51.5969 10.1144C57.6167 16.8294 56.1186 27.2221 48.4532 31.9225C45.9217 33.4748 42.5469 34.1947 39.6633 33.7976C36.4363 33.3532 33.7337 32.0093 31.4897 29.733C26.0179 24.1828 26.0179 15.2906 31.4897 9.74037C34.6817 6.50253 39.1156 5.02838 43.4953 5.74888ZM39.9462 8.46507C35.1238 9.36806 31.9406 12.1789 30.5836 16.7324C30.1391 18.2241 30.0826 20.7962 30.4609 22.3159C31.5155 26.5521 34.6116 29.6917 38.802 30.7745C40.095 31.1085 42.6898 31.1076 43.9404 30.7727C46.1042 30.1932 47.8101 29.1915 49.3544 27.5939C53.6189 23.1823 53.5635 16.1347 49.2297 11.7386C47.1669 9.64636 44.6599 8.54864 41.7261 8.45321C40.922 8.42703 40.121 8.43244 39.9462 8.46507ZM43.9511 11.4035C45.3131 11.8467 46.4167 12.5308 47.4328 13.5614C48.4397 14.5829 49.1144 15.6968 49.5717 17.093C49.8653 17.9891 49.9097 18.3364 49.9097 19.7367C49.9097 21.137 49.8653 21.4843 49.5717 22.3804C49.1144 23.7765 48.4397 24.8905 47.4328 25.912C46.4247 26.9344 45.3258 27.6188 43.9511 28.0804C42.5256 28.5588 40.3382 28.5853 38.9291 28.1409C32.6173 26.1506 30.6313 18.2603 35.2603 13.565C37.5504 11.242 40.8976 10.4094 43.9511 11.4035ZM40.8997 14.0553C39.7409 14.5365 39.9612 16.258 41.2062 16.4502C43.3286 16.7779 44.2617 17.7244 44.5847 19.8773C44.6713 20.4542 45.1088 20.8845 45.7094 20.9832C46.1141 21.0499 46.223 21.0044 46.6175 20.6042C47.1112 20.1035 47.1532 19.8515 46.9361 18.6909C46.5031 16.3748 44.6591 14.5043 42.3757 14.0651C41.5788 13.9118 41.2508 13.9096 40.8997 14.0553ZM25.2719 15.7711C24.9159 17.5244 24.7965 18.8812 24.8665 20.3815C25.2221 28.0107 30.3771 34.4926 38.1958 36.1971C39.6459 36.5133 42.8918 36.5179 44.4192 36.2061C45.9002 35.9038 47.285 35.4338 48.5677 34.7981L49.6289 34.2722L55.0541 39.7547C59.6664 44.4159 60.5696 45.2713 61.083 45.4652C61.6768 45.6892 61.6869 45.7023 61.6869 46.2558V46.8186H35.1149H8.54303V32.7823C8.54303 17.5306 8.51811 18.0886 9.24801 17.02C9.69681 16.3632 10.364 15.8588 11.1483 15.5837C11.7206 15.3831 12.4722 15.36 18.5711 15.3563L25.3571 15.352L25.2719 15.7711ZM59.4318 15.7121C60.1667 16.0418 60.9996 16.885 61.3501 17.6541C61.619 18.2441 61.6238 18.3794 61.6578 26.1848L61.6922 34.1159L58.7018 31.0851L55.7115 28.0542L56.2111 27.0228C56.7957 25.8162 57.2721 24.3905 57.5832 22.9168C57.8849 21.4877 57.8815 17.8954 57.5772 16.5127C57.4602 15.9807 57.3643 15.4939 57.3643 15.4308C57.364 15.2389 58.818 15.4366 59.4318 15.7121ZM59.2962 35.4378C63.6985 39.913 64.3498 40.6252 64.4253 41.0467C64.5457 41.7181 64.4109 42.1469 63.9245 42.6403C63.4382 43.1335 63.0153 43.2704 62.3535 43.1485C61.9378 43.0719 61.2362 42.4115 56.8157 37.9366L51.7539 32.8126L52.938 31.5795C53.5893 30.9014 54.1518 30.3386 54.1879 30.3289C54.224 30.3194 56.5228 32.6183 59.2962 35.4378ZM61.664 51.0421C61.625 52.3705 61.5639 52.8015 61.3463 53.2859C61.003 54.0499 60.1754 54.8908 59.4173 55.2464L58.8263 55.5235H35.1149H11.4036L10.8126 55.2464C10.0544 54.8908 9.22691 54.0499 8.88363 53.2859C8.66597 52.8015 8.60494 52.3705 8.56591 51.0421L8.51747 49.3978H35.1149H61.7124L61.664 51.0421ZM38.9291 59.7148V61.2623H35.1149H31.3008V59.7148V58.1672H35.1149H38.9291V59.7148ZM42.4451 64.0337C43.2925 64.289 44.0697 64.8779 44.5293 65.6131C44.7358 65.9432 44.9046 66.26 44.9046 66.3171C44.9046 66.3741 40.4993 66.4208 35.1149 66.4208C29.7306 66.4208 25.3253 66.3741 25.3253 66.3171C25.3253 66.0651 26.1035 65.0035 26.5302 64.6733C27.5894 63.8538 27.6251 63.8504 35.06 63.8458C40.6764 63.8422 41.9141 63.8738 42.4451 64.0337Z"/>
</mask>
<path fill-rule="evenodd" clip-rule="evenodd" d="M39.6919 3.04379C39.5171 3.07422 38.9736 3.16398 38.4841 3.24316C36.449 3.5724 33.9223 4.62215 32.0029 5.93588C30.0242 7.29023 27.929 9.66067 26.8432 11.7733L26.3296 12.7728H18.9886C10.9955 12.7728 10.9212 12.7786 9.43605 13.521C8.5415 13.9681 7.17871 15.3505 6.73792 16.2578C5.96428 17.8502 6.00026 16.9115 6.00026 35.47C6.00026 50.082 6.02658 52.5412 6.18957 53.176C6.80225 55.5621 8.56858 57.3537 10.9209 57.9752C11.5298 58.136 13.0364 58.1672 20.2029 58.1672H28.758V59.7148C28.758 61.2417 28.7541 61.2623 28.4669 61.2623C27.9746 61.2623 26.6965 61.6444 25.964 62.0105C25.0695 62.4576 23.7067 63.84 23.2659 64.7474C22.8573 65.5884 22.5282 66.8044 22.5282 67.4735C22.5282 68.114 22.7265 68.5239 23.1627 68.7853C23.4899 68.9814 24.5294 69 35.1644 69H46.8076L47.2036 68.6412C48.5987 67.3768 46.7791 63.275 44.2623 62.0105C43.5346 61.6448 42.2567 61.2623 41.763 61.2623C41.4758 61.2623 41.4719 61.2417 41.4719 59.7148V58.1672H50.027C59.3502 58.1672 59.2885 58.1715 60.7938 57.419C61.6884 56.9719 63.0512 55.5895 63.492 54.6822C64.1545 53.3185 64.2296 52.7385 64.2296 48.9865V45.5343L64.7129 45.2841C66.3621 44.4308 67.3214 42.3261 66.9016 40.4823C66.6782 39.5019 66.2939 38.8974 65.1925 37.7945L64.2296 36.8305V27.6659C64.2296 17.6754 64.2371 17.7916 63.492 16.2578C63.3025 15.8677 62.7777 15.1752 62.3195 14.7103C61.0049 13.377 59.5119 12.776 57.4964 12.769L56.4106 12.7652L55.8385 11.7136C53.5199 7.45182 49.543 4.43554 44.8119 3.35072C43.7436 3.10582 40.4643 2.90915 39.6919 3.04379ZM43.4953 5.74888C46.6052 6.26047 49.5781 7.86243 51.5969 10.1144C57.6167 16.8294 56.1186 27.2221 48.4532 31.9225C45.9217 33.4748 42.5469 34.1947 39.6633 33.7976C36.4363 33.3532 33.7337 32.0093 31.4897 29.733C26.0179 24.1828 26.0179 15.2906 31.4897 9.74037C34.6817 6.50253 39.1156 5.02838 43.4953 5.74888ZM39.9462 8.46507C35.1238 9.36806 31.9406 12.1789 30.5836 16.7324C30.1391 18.2241 30.0826 20.7962 30.4609 22.3159C31.5155 26.5521 34.6116 29.6917 38.802 30.7745C40.095 31.1085 42.6898 31.1076 43.9404 30.7727C46.1042 30.1932 47.8101 29.1915 49.3544 27.5939C53.6189 23.1823 53.5635 16.1347 49.2297 11.7386C47.1669 9.64636 44.6599 8.54864 41.7261 8.45321C40.922 8.42703 40.121 8.43244 39.9462 8.46507ZM43.9511 11.4035C45.3131 11.8467 46.4167 12.5308 47.4328 13.5614C48.4397 14.5829 49.1144 15.6968 49.5717 17.093C49.8653 17.9891 49.9097 18.3364 49.9097 19.7367C49.9097 21.137 49.8653 21.4843 49.5717 22.3804C49.1144 23.7765 48.4397 24.8905 47.4328 25.912C46.4247 26.9344 45.3258 27.6188 43.9511 28.0804C42.5256 28.5588 40.3382 28.5853 38.9291 28.1409C32.6173 26.1506 30.6313 18.2603 35.2603 13.565C37.5504 11.242 40.8976 10.4094 43.9511 11.4035ZM40.8997 14.0553C39.7409 14.5365 39.9612 16.258 41.2062 16.4502C43.3286 16.7779 44.2617 17.7244 44.5847 19.8773C44.6713 20.4542 45.1088 20.8845 45.7094 20.9832C46.1141 21.0499 46.223 21.0044 46.6175 20.6042C47.1112 20.1035 47.1532 19.8515 46.9361 18.6909C46.5031 16.3748 44.6591 14.5043 42.3757 14.0651C41.5788 13.9118 41.2508 13.9096 40.8997 14.0553ZM25.2719 15.7711C24.9159 17.5244 24.7965 18.8812 24.8665 20.3815C25.2221 28.0107 30.3771 34.4926 38.1958 36.1971C39.6459 36.5133 42.8918 36.5179 44.4192 36.2061C45.9002 35.9038 47.285 35.4338 48.5677 34.7981L49.6289 34.2722L55.0541 39.7547C59.6664 44.4159 60.5696 45.2713 61.083 45.4652C61.6768 45.6892 61.6869 45.7023 61.6869 46.2558V46.8186H35.1149H8.54303V32.7823C8.54303 17.5306 8.51811 18.0886 9.24801 17.02C9.69681 16.3632 10.364 15.8588 11.1483 15.5837C11.7206 15.3831 12.4722 15.36 18.5711 15.3563L25.3571 15.352L25.2719 15.7711ZM59.4318 15.7121C60.1667 16.0418 60.9996 16.885 61.3501 17.6541C61.619 18.2441 61.6238 18.3794 61.6578 26.1848L61.6922 34.1159L58.7018 31.0851L55.7115 28.0542L56.2111 27.0228C56.7957 25.8162 57.2721 24.3905 57.5832 22.9168C57.8849 21.4877 57.8815 17.8954 57.5772 16.5127C57.4602 15.9807 57.3643 15.4939 57.3643 15.4308C57.364 15.2389 58.818 15.4366 59.4318 15.7121ZM59.2962 35.4378C63.6985 39.913 64.3498 40.6252 64.4253 41.0467C64.5457 41.7181 64.4109 42.1469 63.9245 42.6403C63.4382 43.1335 63.0153 43.2704 62.3535 43.1485C61.9378 43.0719 61.2362 42.4115 56.8157 37.9366L51.7539 32.8126L52.938 31.5795C53.5893 30.9014 54.1518 30.3386 54.1879 30.3289C54.224 30.3194 56.5228 32.6183 59.2962 35.4378ZM61.664 51.0421C61.625 52.3705 61.5639 52.8015 61.3463 53.2859C61.003 54.0499 60.1754 54.8908 59.4173 55.2464L58.8263 55.5235H35.1149H11.4036L10.8126 55.2464C10.0544 54.8908 9.22691 54.0499 8.88363 53.2859C8.66597 52.8015 8.60494 52.3705 8.56591 51.0421L8.51747 49.3978H35.1149H61.7124L61.664 51.0421ZM38.9291 59.7148V61.2623H35.1149H31.3008V59.7148V58.1672H35.1149H38.9291V59.7148ZM42.4451 64.0337C43.2925 64.289 44.0697 64.8779 44.5293 65.6131C44.7358 65.9432 44.9046 66.26 44.9046 66.3171C44.9046 66.3741 40.4993 66.4208 35.1149 66.4208C29.7306 66.4208 25.3253 66.3741 25.3253 66.3171C25.3253 66.0651 26.1035 65.0035 26.5302 64.6733C27.5894 63.8538 27.6251 63.8504 35.06 63.8458C40.6764 63.8422 41.9141 63.8738 42.4451 64.0337Z" fill="#DE6F7E"/>
<path fill-rule="evenodd" clip-rule="evenodd" d="M39.6919 3.04379C39.5171 3.07422 38.9736 3.16398 38.4841 3.24316C36.449 3.5724 33.9223 4.62215 32.0029 5.93588C30.0242 7.29023 27.929 9.66067 26.8432 11.7733L26.3296 12.7728H18.9886C10.9955 12.7728 10.9212 12.7786 9.43605 13.521C8.5415 13.9681 7.17871 15.3505 6.73792 16.2578C5.96428 17.8502 6.00026 16.9115 6.00026 35.47C6.00026 50.082 6.02658 52.5412 6.18957 53.176C6.80225 55.5621 8.56858 57.3537 10.9209 57.9752C11.5298 58.136 13.0364 58.1672 20.2029 58.1672H28.758V59.7148C28.758 61.2417 28.7541 61.2623 28.4669 61.2623C27.9746 61.2623 26.6965 61.6444 25.964 62.0105C25.0695 62.4576 23.7067 63.84 23.2659 64.7474C22.8573 65.5884 22.5282 66.8044 22.5282 67.4735C22.5282 68.114 22.7265 68.5239 23.1627 68.7853C23.4899 68.9814 24.5294 69 35.1644 69H46.8076L47.2036 68.6412C48.5987 67.3768 46.7791 63.275 44.2623 62.0105C43.5346 61.6448 42.2567 61.2623 41.763 61.2623C41.4758 61.2623 41.4719 61.2417 41.4719 59.7148V58.1672H50.027C59.3502 58.1672 59.2885 58.1715 60.7938 57.419C61.6884 56.9719 63.0512 55.5895 63.492 54.6822C64.1545 53.3185 64.2296 52.7385 64.2296 48.9865V45.5343L64.7129 45.2841C66.3621 44.4308 67.3214 42.3261 66.9016 40.4823C66.6782 39.5019 66.2939 38.8974 65.1925 37.7945L64.2296 36.8305V27.6659C64.2296 17.6754 64.2371 17.7916 63.492 16.2578C63.3025 15.8677 62.7777 15.1752 62.3195 14.7103C61.0049 13.377 59.5119 12.776 57.4964 12.769L56.4106 12.7652L55.8385 11.7136C53.5199 7.45182 49.543 4.43554 44.8119 3.35072C43.7436 3.10582 40.4643 2.90915 39.6919 3.04379ZM43.4953 5.74888C46.6052 6.26047 49.5781 7.86243 51.5969 10.1144C57.6167 16.8294 56.1186 27.2221 48.4532 31.9225C45.9217 33.4748 42.5469 34.1947 39.6633 33.7976C36.4363 33.3532 33.7337 32.0093 31.4897 29.733C26.0179 24.1828 26.0179 15.2906 31.4897 9.74037C34.6817 6.50253 39.1156 5.02838 43.4953 5.74888ZM39.9462 8.46507C35.1238 9.36806 31.9406 12.1789 30.5836 16.7324C30.1391 18.2241 30.0826 20.7962 30.4609 22.3159C31.5155 26.5521 34.6116 29.6917 38.802 30.7745C40.095 31.1085 42.6898 31.1076 43.9404 30.7727C46.1042 30.1932 47.8101 29.1915 49.3544 27.5939C53.6189 23.1823 53.5635 16.1347 49.2297 11.7386C47.1669 9.64636 44.6599 8.54864 41.7261 8.45321C40.922 8.42703 40.121 8.43244 39.9462 8.46507ZM43.9511 11.4035C45.3131 11.8467 46.4167 12.5308 47.4328 13.5614C48.4397 14.5829 49.1144 15.6968 49.5717 17.093C49.8653 17.9891 49.9097 18.3364 49.9097 19.7367C49.9097 21.137 49.8653 21.4843 49.5717 22.3804C49.1144 23.7765 48.4397 24.8905 47.4328 25.912C46.4247 26.9344 45.3258 27.6188 43.9511 28.0804C42.5256 28.5588 40.3382 28.5853 38.9291 28.1409C32.6173 26.1506 30.6313 18.2603 35.2603 13.565C37.5504 11.242 40.8976 10.4094 43.9511 11.4035ZM40.8997 14.0553C39.7409 14.5365 39.9612 16.258 41.2062 16.4502C43.3286 16.7779 44.2617 17.7244 44.5847 19.8773C44.6713 20.4542 45.1088 20.8845 45.7094 20.9832C46.1141 21.0499 46.223 21.0044 46.6175 20.6042C47.1112 20.1035 47.1532 19.8515 46.9361 18.6909C46.5031 16.3748 44.6591 14.5043 42.3757 14.0651C41.5788 13.9118 41.2508 13.9096 40.8997 14.0553ZM25.2719 15.7711C24.9159 17.5244 24.7965 18.8812 24.8665 20.3815C25.2221 28.0107 30.3771 34.4926 38.1958 36.1971C39.6459 36.5133 42.8918 36.5179 44.4192 36.2061C45.9002 35.9038 47.285 35.4338 48.5677 34.7981L49.6289 34.2722L55.0541 39.7547C59.6664 44.4159 60.5696 45.2713 61.083 45.4652C61.6768 45.6892 61.6869 45.7023 61.6869 46.2558V46.8186H35.1149H8.54303V32.7823C8.54303 17.5306 8.51811 18.0886 9.24801 17.02C9.69681 16.3632 10.364 15.8588 11.1483 15.5837C11.7206 15.3831 12.4722 15.36 18.5711 15.3563L25.3571 15.352L25.2719 15.7711ZM59.4318 15.7121C60.1667 16.0418 60.9996 16.885 61.3501 17.6541C61.619 18.2441 61.6238 18.3794 61.6578 26.1848L61.6922 34.1159L58.7018 31.0851L55.7115 28.0542L56.2111 27.0228C56.7957 25.8162 57.2721 24.3905 57.5832 22.9168C57.8849 21.4877 57.8815 17.8954 57.5772 16.5127C57.4602 15.9807 57.3643 15.4939 57.3643 15.4308C57.364 15.2389 58.818 15.4366 59.4318 15.7121ZM59.2962 35.4378C63.6985 39.913 64.3498 40.6252 64.4253 41.0467C64.5457 41.7181 64.4109 42.1469 63.9245 42.6403C63.4382 43.1335 63.0153 43.2704 62.3535 43.1485C61.9378 43.0719 61.2362 42.4115 56.8157 37.9366L51.7539 32.8126L52.938 31.5795C53.5893 30.9014 54.1518 30.3386 54.1879 30.3289C54.224 30.3194 56.5228 32.6183 59.2962 35.4378ZM61.664 51.0421C61.625 52.3705 61.5639 52.8015 61.3463 53.2859C61.003 54.0499 60.1754 54.8908 59.4173 55.2464L58.8263 55.5235H35.1149H11.4036L10.8126 55.2464C10.0544 54.8908 9.22691 54.0499 8.88363 53.2859C8.66597 52.8015 8.60494 52.3705 8.56591 51.0421L8.51747 49.3978H35.1149H61.7124L61.664 51.0421ZM38.9291 59.7148V61.2623H35.1149H31.3008V59.7148V58.1672H35.1149H38.9291V59.7148ZM42.4451 64.0337C43.2925 64.289 44.0697 64.8779 44.5293 65.6131C44.7358 65.9432 44.9046 66.26 44.9046 66.3171C44.9046 66.3741 40.4993 66.4208 35.1149 66.4208C29.7306 66.4208 25.3253 66.3741 25.3253 66.3171C25.3253 66.0651 26.1035 65.0035 26.5302 64.6733C27.5894 63.8538 27.6251 63.8504 35.06 63.8458C40.6764 63.8422 41.9141 63.8738 42.4451 64.0337Z" stroke="#DE6F7E" mask="url(#path-1-outside-1_5461_4716)"/>
<path fill-rule="evenodd" clip-rule="evenodd" d="M15.7444 24.2024C13.1401 25.1602 11.7198 27.8348 12.502 30.3081L12.7486 31.0873L9.38871 34.3977L6.02901 37.708C4.81974 39.2581 6.83209 41.2451 8.39371 40.0508L11.7393 36.7611L15.0849 33.4715L16.2158 33.742C17.2892 33.9987 17.4042 33.9987 18.4773 33.742L19.6077 33.4717L22.1046 35.9252L24.6014 38.3786L24.3789 38.9992C24.0791 39.8352 24.0983 41.2377 24.4229 42.2268C24.7599 43.2539 25.8385 44.4523 26.9107 44.9912C28.0666 45.572 29.7607 45.6571 31.0011 45.1966C33.3252 44.3336 34.69 41.7209 34.0534 39.3539L33.8036 38.4257L41.817 28.4924L42.8226 28.7458C43.4817 28.9121 44.0797 28.9636 44.5586 28.8957C46.3963 28.6348 48.08 27.3487 48.6998 25.7321C49.1678 24.5116 49.0813 22.8444 48.4911 21.7069C46.6224 18.1061 41.2857 18.0953 39.5243 21.6889C38.8899 22.9833 38.7822 23.8519 39.1036 25.086L39.3611 26.0756L31.3553 36.0016L30.2917 35.7432C29.2467 35.4895 28.6696 35.5228 27.2445 35.9198C26.9941 35.9896 26.4061 35.4928 24.4365 33.5477L21.9451 31.0873L22.1915 30.3081C22.898 28.0727 21.7668 25.579 19.5313 24.444C18.6836 24.0135 16.6166 23.8817 15.7444 24.2024ZM18.1588 27.5133C19.6268 28.2604 19.0255 30.5419 17.3606 30.5419C15.7094 30.5419 15.0571 28.4067 16.4524 27.5694C17.0578 27.2061 17.525 27.1908 18.1588 27.5133ZM45.1439 22.7489C45.9313 23.4768 45.7338 24.9453 44.7917 25.3676C43.2554 26.0566 41.8322 24.6692 42.5298 23.1626C42.9509 22.2533 44.3656 22.0294 45.1439 22.7489ZM30.3448 39.4128C31.1254 40.1809 30.9235 41.484 29.9433 42.0035C28.9319 42.5395 27.7251 41.9296 27.5368 40.7871C27.2868 39.2714 29.2331 38.3188 30.3448 39.4128Z" fill="#DE6F7E"/>
</svg>
