<svg width="72" height="72" viewBox="0 0 72 72" fill="none" xmlns="http://www.w3.org/2000/svg">
<mask id="path-1-inside-1_5461_4723" fill="white">
<path fill-rule="evenodd" clip-rule="evenodd" d="M61.3219 41.2611C61.3219 39.9664 62.3714 38.917 63.6661 38.917C64.9607 38.917 66.0101 39.9666 66.0101 41.2611C66.0101 46.4313 61.8038 50.6377 56.6335 50.6377H53.3492V54.3117H54.5537C55.8484 54.3117 56.8978 55.3611 56.8978 56.6558C56.8978 57.9505 55.8484 59 54.5537 59H47.4564C46.1617 59 45.1123 57.9505 45.1123 56.6558C45.1123 55.3611 46.1617 54.3117 47.4564 54.3117H48.6609V50.6377H15.3766C10.2063 50.6377 6 46.4313 6 41.2611V17.8197C6 12.0878 10.6884 15.9999 10.6884 17.8197V41.2611C10.6884 43.8462 12.7916 45.9494 15.3767 45.9494H56.6336C59.2188 45.9494 61.3219 43.8462 61.3219 41.2611ZM61.3223 32.5403V20.8196C61.3223 15.6896 66.0106 14.863 66.0106 20.8196V32.5403C66.0106 33.835 64.9611 34.8845 63.6664 34.8845C62.3717 34.8845 61.3223 33.835 61.3223 32.5403Z"/>
</mask>
<path fill-rule="evenodd" clip-rule="evenodd" d="M61.3219 41.2611C61.3219 39.9664 62.3714 38.917 63.6661 38.917C64.9607 38.917 66.0101 39.9666 66.0101 41.2611C66.0101 46.4313 61.8038 50.6377 56.6335 50.6377H53.3492V54.3117H54.5537C55.8484 54.3117 56.8978 55.3611 56.8978 56.6558C56.8978 57.9505 55.8484 59 54.5537 59H47.4564C46.1617 59 45.1123 57.9505 45.1123 56.6558C45.1123 55.3611 46.1617 54.3117 47.4564 54.3117H48.6609V50.6377H15.3766C10.2063 50.6377 6 46.4313 6 41.2611V17.8197C6 12.0878 10.6884 15.9999 10.6884 17.8197V41.2611C10.6884 43.8462 12.7916 45.9494 15.3767 45.9494H56.6336C59.2188 45.9494 61.3219 43.8462 61.3219 41.2611ZM61.3223 32.5403V20.8196C61.3223 15.6896 66.0106 14.863 66.0106 20.8196V32.5403C66.0106 33.835 64.9611 34.8845 63.6664 34.8845C62.3717 34.8845 61.3223 33.835 61.3223 32.5403Z" fill="#DE6F7E"/>
<path d="M53.3492 50.6377V50.1377H52.8492V50.6377H53.3492ZM53.3492 54.3117H52.8492V54.8117H53.3492V54.3117ZM48.6609 54.3117V54.8117H49.1609V54.3117H48.6609ZM48.6609 50.6377H49.1609V50.1377H48.6609V50.6377ZM63.6661 38.417C62.0952 38.417 60.8219 39.6903 60.8219 41.2611H61.8219C61.8219 40.2426 62.6475 39.417 63.6661 39.417V38.417ZM66.5101 41.2611C66.5101 39.6905 65.2369 38.417 63.6661 38.417V39.417C64.6845 39.417 65.5101 40.2426 65.5101 41.2611H66.5101ZM56.6335 51.1377C62.0799 51.1377 66.5101 46.7075 66.5101 41.2611H65.5101C65.5101 46.1552 61.5276 50.1377 56.6335 50.1377V51.1377ZM53.3492 51.1377H56.6335V50.1377H53.3492V51.1377ZM53.8492 54.3117V50.6377H52.8492V54.3117H53.8492ZM54.5537 53.8117H53.3492V54.8117H54.5537V53.8117ZM57.3978 56.6558C57.3978 55.085 56.1245 53.8117 54.5537 53.8117V54.8117C55.5722 54.8117 56.3978 55.6373 56.3978 56.6558H57.3978ZM54.5537 59.5C56.1245 59.5 57.3978 58.2266 57.3978 56.6558H56.3978C56.3978 57.6743 55.5722 58.5 54.5537 58.5V59.5ZM47.4564 59.5H54.5537V58.5H47.4564V59.5ZM44.6123 56.6558C44.6123 58.2266 45.8856 59.5 47.4564 59.5V58.5C46.4379 58.5 45.6123 57.6743 45.6123 56.6558H44.6123ZM47.4564 53.8117C45.8856 53.8117 44.6123 55.085 44.6123 56.6558H45.6123C45.6123 55.6373 46.4379 54.8117 47.4564 54.8117V53.8117ZM48.6609 53.8117H47.4564V54.8117H48.6609V53.8117ZM48.1609 50.6377V54.3117H49.1609V50.6377H48.1609ZM15.3766 51.1377H48.6609V50.1377H15.3766V51.1377ZM5.5 41.2611C5.5 46.7075 9.93019 51.1377 15.3766 51.1377V50.1377C10.4825 50.1377 6.5 46.1552 6.5 41.2611H5.5ZM5.5 17.8197V41.2611H6.5V17.8197H5.5ZM11.1884 17.8197C11.1884 17.1885 10.8045 16.4893 10.3416 15.9278C9.86469 15.3494 9.21633 14.8099 8.53672 14.5264C7.85684 14.2427 7.03268 14.1807 6.39113 14.7804C5.79385 15.3387 5.5 16.3518 5.5 17.8197H6.5C6.5 16.4216 6.7922 15.7743 7.07399 15.5109C7.31153 15.2889 7.65947 15.2439 8.15168 15.4493C8.64417 15.6547 9.16791 16.0762 9.57006 16.564C9.98624 17.0688 10.1884 17.541 10.1884 17.8197H11.1884ZM11.1884 41.2611V17.8197H10.1884V41.2611H11.1884ZM15.3767 45.4494C13.0677 45.4494 11.1884 43.5701 11.1884 41.2611H10.1884C10.1884 44.1224 12.5154 46.4494 15.3767 46.4494V45.4494ZM56.6336 45.4494H15.3767V46.4494H56.6336V45.4494ZM60.8219 41.2611C60.8219 43.5701 58.9426 45.4494 56.6336 45.4494V46.4494C59.4949 46.4494 61.8219 44.1224 61.8219 41.2611H60.8219ZM60.8223 20.8196V32.5403H61.8223V20.8196H60.8223ZM66.5106 20.8196C66.5106 19.2741 66.2078 18.1028 65.6979 17.3139C65.1805 16.5133 64.4314 16.0928 63.6225 16.1641C62.8352 16.2335 62.1259 16.7576 61.6304 17.5534C61.1316 18.3545 60.8223 19.4644 60.8223 20.8196H61.8223C61.8223 19.6099 62.099 18.6927 62.4792 18.082C62.8627 17.4662 63.3256 17.1941 63.7103 17.1602C64.0734 17.1282 64.4965 17.2973 64.8581 17.8567C65.2272 18.4278 65.5106 19.3868 65.5106 20.8196H66.5106ZM66.5106 32.5403V20.8196H65.5106V32.5403H66.5106ZM63.6664 35.3845C65.2372 35.3845 66.5106 34.1112 66.5106 32.5403H65.5106C65.5106 33.5589 64.6849 34.3845 63.6664 34.3845V35.3845ZM60.8223 32.5403C60.8223 34.1112 62.0956 35.3845 63.6664 35.3845V34.3845C62.6479 34.3845 61.8223 33.5589 61.8223 32.5403H60.8223Z" fill="white" mask="url(#path-1-inside-1_5461_4723)"/>
<path d="M15 42.5C9 44.1 5.5 47.5 5 49L16.5 61.4999C25.5 61.5 42.3819 60.7412 40 53C36 40 22.5 40.5 15 42.5Z" fill="white"/>
<path d="M36.7937 61.1657C36.1403 61.1657 35.5222 60.778 35.265 60.1408L34.5878 57.9532C32.4785 52.8093 30.0525 50.2127 26.6764 49.6035L25.8186 53.656L27.0055 58.5207C27.0677 59.0744 26.8395 59.6213 26.4008 59.9702L23.7526 62.0762C23.4603 62.3087 23.0968 62.4353 22.7218 62.4353H21.7821C21.4073 62.4353 21.0436 62.3087 20.7513 62.0762L18.1028 59.9702C17.6638 59.6213 17.4357 59.0744 17.498 58.5207L18.6852 53.656L17.8271 49.6037C14.4512 50.2129 12.0251 52.8105 9.91242 57.9616L9.17104 60.1489C8.82935 60.9822 7.86992 61.3839 7.02732 61.0457C6.18515 60.7076 5.77948 59.7576 6.12117 58.9241L6.86256 56.7366C8.67137 52.3262 11.88 46.499 18.9441 46.2148C19.0067 46.2076 19.0698 46.204 19.1336 46.204H25.3699C25.4337 46.204 25.4969 46.2076 25.5594 46.2148C32.6243 46.499 35.8326 52.3264 37.641 56.7364L38.3215 58.9323C38.6588 59.7676 38.248 60.7153 37.4038 61.0488C37.2037 61.128 36.9969 61.1657 36.7937 61.1657ZM20.869 57.9913L22.252 59.0909L23.6346 57.9915L22.6811 55.206H21.8227L20.869 57.9913ZM21.6863 51.9485H22.8173L23.3439 49.4616H21.1599L21.6863 51.9485ZM29.7355 57.294C28.8267 57.294 28.0898 56.5647 28.0898 55.6653V55.4615C28.0898 54.562 28.8267 53.8327 29.7355 53.8327C30.6444 53.8327 31.3812 54.562 31.3812 55.4615V55.6653C31.3812 56.5647 30.6444 57.294 29.7355 57.294ZM22.2516 43.7287C17.5916 43.7287 13.8004 39.9763 13.8004 35.3641C13.8004 30.7522 17.5916 27 22.2516 27C22.809 27 23.3544 27.0537 23.8822 27.1564C23.9166 27.1621 23.9512 27.169 23.9855 27.1771C27.8169 27.9709 30.7032 31.3404 30.7032 35.3643C30.7032 39.9763 26.9117 43.7287 22.2516 43.7287ZM19.3282 31.1581C17.9783 32.08 17.0917 33.6218 17.0917 35.3641C17.0917 38.1802 19.4064 40.4712 22.2516 40.4712C25.097 40.4712 27.4118 38.1802 27.4118 35.3641C27.4118 33.2688 26.13 31.4641 24.3017 30.6777C23.6113 31.5576 22.7484 32.2952 21.7572 32.8457C20.9646 33.2863 19.9616 33.0072 19.5166 32.2227C19.3255 31.8864 19.2686 31.5114 19.3282 31.1581Z" fill="#DE6F7E"/>
<rect x="6" y="11" width="61" height="7" rx="3" stroke="#DE6F7E" stroke-width="4"/>
<rect x="37" y="24" width="19" height="4" rx="2" fill="#DE6F7E"/>
<rect x="37" y="31" width="19" height="4" rx="2" fill="#DE6F7E"/>
</svg>
